<?xml version="1.0" encoding="UTF-8" standalone="no"?>
<!-- Created with Inkscape (http://www.inkscape.org/) -->
<svg
   xmlns:dc="http://purl.org/dc/elements/1.1/"
   xmlns:cc="http://creativecommons.org/ns#"
   xmlns:rdf="http://www.w3.org/1999/02/22-rdf-syntax-ns#"
   xmlns:svg="http://www.w3.org/2000/svg"
   xmlns="http://www.w3.org/2000/svg"
   xmlns:xlink="http://www.w3.org/1999/xlink"
   xmlns:sodipodi="http://sodipodi.sourceforge.net/DTD/sodipodi-0.dtd"
   xmlns:inkscape="http://www.inkscape.org/namespaces/inkscape"
   width="153"
   height="55"
   id="svg2533"
   sodipodi:version="0.32"
   inkscape:version="0.46"
   version="1.0"
   sodipodi:docname="firetray.svg"
   inkscape:output_extension="org.inkscape.output.svg.inkscape">
  <sodipodi:namedview
     id="base"
     pagecolor="#ffffff"
     bordercolor="#666666"
     borderopacity="1.0"
     inkscape:pageopacity="0.0"
     inkscape:pageshadow="2"
     inkscape:zoom="7.9195959"
     inkscape:cx="79.154713"
     inkscape:cy="16.98476"
     inkscape:document-units="px"
     inkscape:current-layer="layer1"
     showgrid="false"
     inkscape:window-width="1440"
     inkscape:window-height="843"
     inkscape:window-x="-4"
     inkscape:window-y="28"
     showguides="true"
     inkscape:guide-bbox="true"
     inkscape:snap-global="false">
    <inkscape:grid
       type="xygrid"
       id="grid2766"
       visible="true"
       enabled="true" />
  </sodipodi:namedview>
  <defs
     id="defs2535">
    <linearGradient
       id="linearGradient17386">
      <stop
         style="stop-color:#ffffff;stop-opacity:1;"
         offset="0"
         id="stop17388" />
      <stop
         style="stop-color:#0011f6;stop-opacity:1;"
         offset="1"
         id="stop17390" />
    </linearGradient>
    <radialGradient
       r="9.8489876"
       fy="190.53304"
       fx="207.52052"
       cy="190.53304"
       cx="207.52052"
       gradientTransform="matrix(0.6388128,-0.1446217,0.2289406,1.0112596,30.898586,27.691184)"
       gradientUnits="userSpaceOnUse"
       id="radialGradient20956"
       xlink:href="#linearGradient17386"
       inkscape:collect="always" />
    <linearGradient
       id="linearGradient17378">
      <stop
         style="stop-color:#ffffff;stop-opacity:1;"
         offset="0"
         id="stop17380" />
      <stop
         style="stop-color:#ff6300;stop-opacity:1;"
         offset="1"
         id="stop17382" />
    </linearGradient>
    <radialGradient
       r="9.8489876"
       fy="189.42081"
       fx="207.24223"
       cy="189.42081"
       cx="207.24223"
       gradientTransform="matrix(0.7011687,-0.154604,0.2755639,1.2497536,9.732907,-15.268069)"
       gradientUnits="userSpaceOnUse"
       id="radialGradient20954"
       xlink:href="#linearGradient17378"
       inkscape:collect="always" />
    <linearGradient
       id="linearGradient20968">
      <stop
         id="stop20970"
         offset="0"
         style="stop-color:#ffffff;stop-opacity:1;" />
      <stop
         id="stop20972"
         offset="1"
         style="stop-color:#ffe680;stop-opacity:1;" />
    </linearGradient>
    <inkscape:perspective
       id="perspective2541"
       inkscape:persp3d-origin="372.04724 : 350.78739 : 1"
       inkscape:vp_z="744.09448 : 526.18109 : 1"
       inkscape:vp_y="0 : 1000 : 0"
       inkscape:vp_x="0 : 526.18109 : 1"
       sodipodi:type="inkscape:persp3d" />
    <radialGradient
       inkscape:collect="always"
       xlink:href="#linearGradient20968"
       id="radialGradient2715"
       gradientUnits="userSpaceOnUse"
       gradientTransform="matrix(0.607183,-0.1543365,0.4547716,1.7891437,-229.99793,-279.37025)"
       cx="164.85623"
       cy="224.40895"
       fx="164.85623"
       fy="224.40895"
       r="4.8719999" />
    <radialGradient
       inkscape:collect="always"
       xlink:href="#linearGradient20968"
       id="radialGradient2752"
       gradientUnits="userSpaceOnUse"
       gradientTransform="matrix(0.607183,-0.1543365,0.4547716,1.7891437,-229.99793,-279.37025)"
       cx="164.85623"
       cy="224.40895"
       fx="164.85623"
       fy="224.40895"
       r="4.8719999" />
    <radialGradient
       inkscape:collect="always"
       xlink:href="#linearGradient20968"
       id="radialGradient2754"
       gradientUnits="userSpaceOnUse"
       gradientTransform="matrix(0.607183,-0.1543365,0.4547716,1.7891437,-229.99793,-279.37025)"
       cx="164.85623"
       cy="224.40895"
       fx="164.85623"
       fy="224.40895"
       r="4.8719999" />
    <radialGradient
       inkscape:collect="always"
       xlink:href="#linearGradient20968"
       id="radialGradient2756"
       gradientUnits="userSpaceOnUse"
       gradientTransform="matrix(0.607183,-0.1543365,0.4547716,1.7891437,-229.99793,-279.37025)"
       cx="164.85623"
       cy="224.40895"
       fx="164.85623"
       fy="224.40895"
       r="4.8719999" />
    <radialGradient
       inkscape:collect="always"
       xlink:href="#linearGradient20968"
       id="radialGradient2758"
       gradientUnits="userSpaceOnUse"
       gradientTransform="matrix(0.607183,-0.1543365,0.4547716,1.7891437,-229.99793,-279.37025)"
       cx="164.85623"
       cy="224.40895"
       fx="164.85623"
       fy="224.40895"
       r="4.8719999" />
    <radialGradient
       inkscape:collect="always"
       xlink:href="#linearGradient20968"
       id="radialGradient2760"
       gradientUnits="userSpaceOnUse"
       gradientTransform="matrix(0.607183,-0.1543365,0.4547716,1.7891437,-229.99793,-279.37025)"
       cx="164.85623"
       cy="224.40895"
       fx="164.85623"
       fy="224.40895"
       r="4.8719999" />
    <radialGradient
       inkscape:collect="always"
       xlink:href="#linearGradient20968"
       id="radialGradient2762"
       gradientUnits="userSpaceOnUse"
       gradientTransform="matrix(0.607183,-0.1543365,0.4547716,1.7891437,-229.99793,-279.37025)"
       cx="164.85623"
       cy="224.40895"
       fx="164.85623"
       fy="224.40895"
       r="4.8719999" />
    <radialGradient
       inkscape:collect="always"
       xlink:href="#linearGradient20968"
       id="radialGradient2764"
       gradientUnits="userSpaceOnUse"
       gradientTransform="matrix(0.607183,-0.1543365,0.4547716,1.7891437,-229.99793,-279.37025)"
       cx="164.85623"
       cy="224.40895"
       fx="164.85623"
       fy="224.40895"
       r="4.8719999" />
  </defs>
  <metadata
     id="metadata2538">
    <rdf:RDF>
      <cc:Work
         rdf:about="">
        <dc:format>image/svg+xml</dc:format>
        <dc:type
           rdf:resource="http://purl.org/dc/dcmitype/StillImage" />
      </cc:Work>
    </rdf:RDF>
  </metadata>
  <g
     id="layer1"
     inkscape:groupmode="layer"
     inkscape:label="Livello 1">
    <rect
       ry="2.5203807"
       y="-97.148659"
       x="97.165565"
       height="26.678396"
       width="28.438185"
       id="rect20958"
       style="opacity:1;fill:#eaffdc;fill-opacity:1;fill-rule:nonzero;stroke:none;stroke-width:1.20000005;stroke-linecap:butt;stroke-linejoin:miter;stroke-miterlimit:4;stroke-dasharray:none;stroke-dashoffset:0;stroke-opacity:1" />
    <path
       transform="translate(159.4719,-158.48304)"
       sodipodi:type="inkscape:offset"
       inkscape:radius="0.64950466"
       inkscape:original="M -36.46875 75.375 C -36.434253 76.395776 -36.409498 77.416724 -36.375 78.4375 C -35.969274 78.622807 -35.491621 78.719133 -35.125 78.9375 C -35.585062 79.166277 -35.911279 79.48885 -36.3125 79.75 C -36.281519 80.666726 -36.249731 81.583277 -36.21875 82.5 C -34.513591 81.503145 -32.97065 80.773202 -31.21875 80.25 C -31.119349 79.834845 -31.036901 79.415155 -30.9375 79 C -32.591712 77.576618 -34.618698 76.313899 -36.46875 75.375 z M -30.9375 79 C -30.608611 79.282996 -30.192347 79.515359 -29.90625 79.8125 C -30.397752 79.909232 -30.774446 80.117309 -31.21875 80.25 C -31.433392 81.146464 -31.660358 82.041034 -31.875 82.9375 C -29.965355 82.429004 -28.295624 82.193626 -26.46875 82.15625 C -26.268198 81.782704 -26.075552 81.404796 -25.875 81.03125 C -27.101308 79.213401 -28.682086 77.398655 -30.21875 76 C -30.458102 76.999663 -30.698148 78.000336 -30.9375 79 z M -25.875 81.03125 C -25.633452 81.389314 -25.294594 81.737126 -25.09375 82.09375 C -25.592809 82.064156 -26.006596 82.146795 -26.46875 82.15625 C -26.905223 82.969219 -27.344777 83.780783 -27.78125 84.59375 C -25.803515 84.588758 -24.151189 84.755328 -22.375 85.1875 C -22.084398 84.873222 -21.790602 84.564278 -21.5 84.25 C -22.221887 82.185427 -23.28129 80.049692 -24.40625 78.3125 C -24.893444 79.219942 -25.387806 80.123808 -25.875 81.03125 z M -21.5 84.25 C -21.354347 84.666563 -21.13666 85.095951 -21.03125 85.5 C -21.504838 85.344663 -21.92737 85.296415 -22.375 85.1875 C -23.001427 85.864962 -23.623573 86.541286 -24.25 87.21875 C -22.352335 87.705384 -20.81277 88.275357 -19.28125 89.1875 C -18.907798 88.988393 -18.529702 88.792857 -18.15625 88.59375 C -18.229822 86.387797 -18.749971 83.973047 -19.40625 82 C -20.102733 82.753228 -20.803518 83.496775 -21.5 84.25 z M -18.15625 88.59375 C -18.14182 89.026425 -18.02948 89.499754 -18.0625 89.90625 C -18.473111 89.592029 -18.87704 89.42824 -19.28125 89.1875 C -20.102082 89.625128 -20.929168 90.062372 -21.75 90.5 C -20.103309 91.592412 -18.732453 92.632936 -17.46875 93.96875 C -17.051534 93.874277 -16.635966 93.781973 -16.21875 93.6875 C -15.691304 91.582167 -15.465672 89.228683 -15.4375 87.15625 C -16.340367 87.637615 -17.253383 88.112385 -18.15625 88.59375 z M -16.21875 93.6875 C -16.324239 94.108567 -16.359512 94.578752 -16.5 94.96875 C -16.803751 94.571582 -17.149002 94.306743 -17.46875 93.96875 C -18.367245 94.172202 -19.257755 94.3903 -20.15625 94.59375 C -19.060279 95.848574 -18.192785 97.0222 -17.40625 98.3125 C -16.718605 98.33374 -16.031395 98.353759 -15.34375 98.375 C -14.475849 96.635237 -13.720925 94.741581 -13.21875 93 C -14.220979 93.226937 -15.216521 93.460559 -16.21875 93.6875 z M -15.34375 98.375 C -15.666789 99.022553 -15.933193 99.723336 -16.3125 100.28125 C -16.629131 99.535623 -17.023822 98.939868 -17.40625 98.3125 C -18.187577 98.288366 -18.968673 98.274132 -19.75 98.25 C -18.863227 100.02036 -18.103913 101.60583 -17.625 103.40625 C -17.218065 103.52706 -16.813184 103.66044 -16.40625 103.78125 C -14.939841 102.20263 -13.682854 100.25659 -12.625 98.46875 C -13.531557 98.440746 -14.437193 98.403003 -15.34375 98.375 z M -16.40625 103.78125 C -16.69556 104.0927 -16.939778 104.48218 -17.25 104.75 C -17.319246 104.25874 -17.505 103.85738 -17.625 103.40625 C -18.508634 103.14392 -19.397616 102.88733 -20.28125 102.625 C -19.87617 104.55719 -19.622533 106.25515 -19.65625 108.09375 C -19.291586 108.32105 -18.927164 108.55395 -18.5625 108.78125 C -16.710945 107.65332 -14.914014 106.1134 -13.4375 104.65625 C -14.425258 104.363 -15.418492 104.07449 -16.40625 103.78125 z M -18.5625 108.78125 C -18.930859 109.00565 -19.283307 109.32326 -19.65625 109.5 C -19.591388 109.0023 -19.664822 108.56119 -19.65625 108.09375 C -20.437006 107.6071 -21.219244 107.11165 -22 106.625 C -22.122211 108.58932 -22.368906 110.26112 -22.90625 112 C -22.616584 112.31326 -22.320916 112.62424 -22.03125 112.9375 C -19.934985 112.35429 -17.740063 111.41454 -15.9375 110.40625 C -16.808959 109.86306 -17.691041 109.32444 -18.5625 108.78125 z M -22.03125 112.9375 C -22.459291 113.05659 -22.897407 113.26914 -23.3125 113.34375 C -23.117351 112.87474 -23.044943 112.44882 -22.90625 112 C -23.530668 111.32471 -24.156832 110.64404 -24.78125 109.96875 C -25.418895 111.83477 -26.14811 113.36462 -27.125 114.90625 C -26.924448 115.2798 -26.731802 115.6577 -26.53125 116.03125 C -24.342245 116.01499 -21.952353 115.71794 -19.9375 115.21875 C -20.636928 114.46234 -21.331821 113.69391 -22.03125 112.9375 z M -26.53125 116.03125 C -26.965089 116.03447 -27.433459 116.12395 -27.84375 116.09375 C -27.540401 115.69107 -27.374751 115.30038 -27.125 114.90625 C -27.561473 114.09328 -28.001027 113.28172 -28.4375 112.46875 C -29.527716 114.12254 -30.589764 115.42005 -31.9375 116.65625 C -31.840457 117.06156 -31.753293 117.46969 -31.65625 117.875 C -29.532096 118.42625 -27.13896 118.72781 -25.0625 118.75 C -25.549693 117.84256 -26.044056 116.93869 -26.53125 116.03125 z M -31.65625 117.875 C -32.076295 117.76599 -32.549705 117.72876 -32.9375 117.59375 C -32.547289 117.28863 -32.274539 116.9654 -31.9375 116.65625 C -32.1545 115.74994 -32.37675 114.84381 -32.59375 113.9375 C -34.057332 115.24795 -35.383388 116.17849 -37 116.9375 C -37.043368 117.36439 -37.081632 117.79186 -37.125 118.21875 C -35.248748 119.39617 -32.948223 120.32198 -30.9375 120.875 C -31.176852 119.87534 -31.416899 118.87467 -31.65625 117.875 z M -37.125 118.21875 C -37.48648 117.99191 -37.935533 117.81256 -38.25 117.5625 C -37.765505 117.39824 -37.420984 117.13516 -37 116.9375 C -36.906874 116.02081 -36.811876 115.10419 -36.71875 114.1875 C -38.538502 114.94404 -40.161528 115.4736 -41.96875 115.78125 C -42.124444 116.18755 -42.281806 116.5937 -42.4375 117 C -40.979557 118.61399 -39.146456 120.10038 -37.4375 121.28125 C -37.333793 120.26041 -37.228706 119.23959 -37.125 118.21875 z M -42.4375 117 C -42.725189 116.68152 -43.099794 116.3919 -43.34375 116.0625 C -42.839474 116.02951 -42.432162 115.86014 -41.96875 115.78125 C -41.640775 114.92538 -41.296725 114.07463 -40.96875 113.21875 C -42.92218 113.47275 -44.642353 113.54344 -46.46875 113.375 C -46.71976 113.72863 -46.96774 114.08387 -47.21875 114.4375 C -46.22218 116.36468 -44.86589 118.29509 -43.53125 119.875 C -43.164486 118.9179 -42.804264 117.9571 -42.4375 117 z M -47.21875 114.4375 C -47.42065 114.04706 -47.717201 113.6694 -47.875 113.28125 C -47.377474 113.37487 -46.938136 113.33171 -46.46875 113.375 C -45.936583 112.62526 -45.407166 111.87474 -44.875 111.125 C -46.831977 110.885 -48.479025 110.51586 -50.1875 109.875 C -50.518361 110.14918 -50.856639 110.41332 -51.1875 110.6875 C -50.729154 112.82161 -49.902098 115.07056 -49 116.9375 C -48.407541 116.10281 -47.81121 115.27218 -47.21875 114.4375 z M -51.1875 110.6875 C -51.278957 110.26166 -51.449885 109.81693 -51.5 109.40625 C -51.04588 109.62601 -50.624673 109.71101 -50.1875 109.875 C -49.480593 109.2892 -48.769407 108.7108 -48.0625 108.125 C -49.882951 107.39035 -51.367609 106.63487 -52.78125 105.53125 C -53.179631 105.67903 -53.570369 105.85222 -53.96875 106 C -54.173934 108.18686 -53.951643 110.61717 -53.5625 112.65625 C -52.770327 111.9998 -51.979673 111.34395 -51.1875 110.6875 z M -53.96875 106 C -53.928099 105.56675 -53.993921 105.08932 -53.90625 104.6875 C -53.544068 105.05081 -53.150667 105.24285 -52.78125 105.53125 C -51.907988 105.20731 -51.029512 104.88644 -50.15625 104.5625 C -51.638675 103.26143 -52.900217 102.04529 -54 100.5625 C -54.427578 100.60267 -54.853672 100.64733 -55.28125 100.6875 C -56.056703 102.70062 -56.538178 105.01566 -56.84375 107.0625 C -55.887158 106.70766 -54.925342 106.35485 -53.96875 106 z M -55.28125 100.6875 C -55.124767 100.28126 -55.033832 99.809366 -54.84375 99.4375 C -54.590792 99.873088 -54.280857 100.18383 -54 100.5625 C -53.082831 100.47633 -52.167169 100.39867 -51.25 100.3125 C -52.349666 98.666273 -53.252709 97.162247 -53.9375 95.4375 C -54.364606 95.369601 -54.791644 95.317898 -55.21875 95.25 C -56.479808 96.997964 -57.520635 99.073553 -58.34375 100.96875 C -57.322271 100.87278 -56.30273 100.78347 -55.28125 100.6875 z M -55.21875 95.25 C -54.961825 94.893874 -54.748249 94.471036 -54.46875 94.15625 C -54.335112 94.634338 -54.109213 95.005015 -53.9375 95.4375 C -53.019007 95.583516 -52.105993 95.728982 -51.1875 95.875 C -51.839752 94.016886 -52.27003 92.38049 -52.46875 90.5625 C -52.864105 90.384826 -53.260895 90.208924 -53.65625 90.03125 C -55.34948 91.390388 -56.947543 93.146911 -58.21875 94.78125 C -57.21719 94.940472 -56.22031 95.090779 -55.21875 95.25 z M -53.65625 90.03125 C -53.315508 89.75774 -53.005323 89.38374 -52.65625 89.15625 C -52.653497 89.663097 -52.519898 90.094571 -52.46875 90.5625 C -51.6356 90.93692 -50.8019 91.313082 -49.96875 91.6875 C -50.111996 89.725748 -50.034465 88.063857 -49.71875 86.28125 C -50.04252 86.012949 -50.36373 85.737051 -50.6875 85.46875 C -52.712002 86.315006 -54.808912 87.501149 -56.46875 88.75 C -55.529501 89.172098 -54.595499 89.609148 -53.65625 90.03125 z M -50.6875 85.46875 C -50.287935 85.301729 -49.890574 85.030837 -49.5 84.90625 C -49.632537 85.397818 -49.637032 85.81985 -49.71875 86.28125 C -49.013818 86.865411 -48.298682 87.447089 -47.59375 88.03125 C -47.213732 86.12463 -46.675011 84.573039 -45.90625 82.96875 C -46.133013 82.602579 -46.366987 82.241171 -46.59375 81.875 C -48.77969 82.151272 -51.162966 82.707841 -53.09375 83.46875 C -52.292512 84.132712 -51.488737 84.804784 -50.6875 85.46875 z M -46.59375 81.875 C -46.159954 81.820174 -45.692564 81.677271 -45.28125 81.65625 C -45.546081 82.117641 -45.695889 82.529759 -45.90625 82.96875 C -45.428292 83.740543 -44.946708 84.509456 -44.46875 85.28125 C -43.487556 83.571818 -42.536124 82.082266 -41.3125 80.6875 C -41.442233 80.269471 -41.589017 79.855529 -41.71875 79.4375 C -43.836464 79.10139 -46.154918 79.113256 -48.21875 79.21875 C -47.672162 80.101367 -47.140338 80.992385 -46.59375 81.875 z M -41.71875 79.4375 C -41.287642 79.505923 -40.811865 79.482188 -40.40625 79.59375 C -40.78258 79.930707 -40.998898 80.330036 -41.3125 80.6875 C -41.041254 81.561514 -40.771246 82.438488 -40.5 83.3125 C -39.12746 81.910079 -37.844804 80.747361 -36.3125 79.75 C -36.327294 79.312264 -36.360206 78.875236 -36.375 78.4375 C -38.334009 77.542761 -40.606659 76.914371 -42.625 76.5 C -42.321552 77.477779 -42.022199 78.459718 -41.71875 79.4375 z "
       style="fill:#c6e9af;fill-opacity:1;fill-rule:evenodd;stroke:none;stroke-width:0.53951621px;stroke-linecap:butt;stroke-linejoin:miter;stroke-opacity:1"
       id="path20664"
       d="M -36.5625,74.71875 C -36.90188,74.763869 -37.147978,75.064656 -37.125,75.40625 C -37.101861,76.090925 -37.08288,76.78028 -37.0625,77.46875 C -38.842857,76.757772 -40.76218,76.231779 -42.5,75.875 C -42.721164,75.831833 -42.948901,75.90637 -43.101743,76.071949 C -43.254585,76.237528 -43.310694,76.47049 -43.25,76.6875 C -43.043604,77.352554 -42.830784,78.019284 -42.625,78.6875 C -44.522834,78.4789 -46.476075,78.471825 -48.25,78.5625 C -48.484625,78.568124 -48.697971,78.699873 -48.808078,78.907134 C -48.918186,79.114395 -48.90793,79.364932 -48.78125,79.5625 C -48.404709,80.17053 -48.032026,80.789952 -47.65625,81.40625 C -49.60805,81.716126 -51.628754,82.199132 -53.34375,82.875 C -53.549953,82.965127 -53.694816,83.15556 -53.726642,83.378337 C -53.758467,83.601114 -53.672719,83.824492 -53.5,83.96875 C -52.955927,84.419607 -52.421195,84.889355 -51.875,85.34375 C -53.641423,86.161891 -55.391701,87.126238 -56.84375,88.21875 C -57.036304,88.350721 -57.143236,88.575866 -57.12385,88.808498 C -57.104464,89.04113 -56.961742,89.24547 -56.75,89.34375 C -56.10809,89.632224 -55.45859,89.923283 -54.8125,90.21875 C -56.265467,91.501741 -57.617447,92.9591 -58.71875,94.375 C -58.871431,94.555733 -58.913771,94.805186 -58.829275,95.026175 C -58.744779,95.247164 -58.546812,95.404735 -58.3125,95.4375 C -57.632306,95.545633 -56.956941,95.645002 -56.28125,95.75 C -57.324997,97.353009 -58.229888,99.089496 -58.9375,100.71875 C -59.029347,100.92948 -59.002971,101.17307 -58.868144,101.35926 C -58.733317,101.54545 -58.510122,101.64651 -58.28125,101.625 C -57.574581,101.55861 -56.864956,101.50217 -56.15625,101.4375 C -56.762754,103.27065 -57.236212,105.2018 -57.5,106.96875 C -57.528106,107.19476 -57.435796,107.41897 -57.256714,107.55968 C -57.077632,107.70039 -56.83794,107.73703 -56.625,107.65625 C -55.9594,107.40935 -55.293577,107.15309 -54.625,106.90625 C -54.7077,108.90455 -54.530781,110.98248 -54.1875,112.78125 C -54.139785,112.99859 -53.984143,113.17638 -53.775027,113.25242 C -53.565911,113.32846 -53.332423,113.29217 -53.15625,113.15625 C -52.614664,112.70745 -52.072234,112.26099 -51.53125,111.8125 C -51.041017,113.69329 -50.37778,115.59616 -49.59375,117.21875 C -49.49547,117.43049 -49.29113,117.57321 -49.058498,117.5926 C -48.825866,117.61199 -48.600721,117.50505 -48.46875,117.3125 C -48.067917,116.74778 -47.653219,116.19026 -47.25,115.625 C -46.295523,117.2973 -45.188584,118.91123 -44.03125,120.28125 C -43.882356,120.45218 -43.65512,120.53313 -43.43169,120.49483 C -43.20826,120.45653 -43.02096,120.30452 -42.9375,120.09375 C -42.685534,119.43622 -42.436478,118.78087 -42.1875,118.125 C -40.819155,119.50883 -39.299869,120.78474 -37.8125,121.8125 C -37.623087,121.95134 -37.373481,121.97713 -37.159681,121.87995 C -36.945881,121.78277 -36.801187,121.57775 -36.78125,121.34375 C -36.710371,120.64605 -36.633842,119.94823 -36.5625,119.25 C -34.810901,120.22337 -32.891662,121.01411 -31.125,121.5 C -30.901552,121.56537 -30.660206,121.50616 -30.492385,121.34479 C -30.324565,121.18343 -30.255938,120.94459 -30.3125,120.71875 C -30.474267,120.04313 -30.619317,119.36326 -30.78125,118.6875 C -28.877116,119.10004 -26.871245,119.38692 -25.0625,119.40625 C -24.832163,119.4051 -24.619659,119.28206 -24.503997,119.08286 C -24.388335,118.88366 -24.386814,118.63811 -24.5,118.4375 C -24.827423,117.82765 -25.171881,117.23114 -25.5,116.625 C -23.555555,116.53968 -21.543438,116.28034 -19.78125,115.84375 C -19.563141,115.78479 -19.391338,115.61673 -19.327586,115.39997 C -19.263834,115.18322 -19.317293,114.94891 -19.46875,114.78125 C -19.946085,114.26503 -20.427172,113.74186 -20.90625,113.21875 C -19.054851,112.62262 -17.202909,111.85138 -15.625,110.96875 C -15.42071,110.85839 -15.290863,110.64738 -15.284415,110.41528 C -15.277968,110.18317 -15.395902,109.96528 -15.59375,109.84375 C -16.186072,109.47455 -16.782649,109.11591 -17.375,108.75 C -15.774862,107.66517 -14.243901,106.38343 -12.96875,105.125 C -12.800841,104.9626 -12.733061,104.72255 -12.791236,104.49632 C -12.849411,104.27008 -13.02458,104.09251 -13.25,104.03125 C -13.93666,103.82739 -14.626588,103.63926 -15.3125,103.4375 C -14.07575,101.96377 -12.97301,100.35132 -12.0625,98.8125 C -11.93582,98.614932 -11.925564,98.364395 -12.035672,98.157134 C -12.145779,97.949873 -12.359125,97.818124 -12.59375,97.8125 C -13.195016,97.793927 -13.801116,97.771587 -14.40625,97.75 C -13.702663,96.233963 -13.024228,94.680429 -12.59375,93.1875 C -12.528378,92.964052 -12.58759,92.722706 -12.748956,92.554885 C -12.910321,92.387065 -13.149161,92.318438 -13.375,92.375 C -14.056055,92.529213 -14.730189,92.688239 -15.40625,92.84375 C -15.020487,90.946514 -14.805708,88.955492 -14.78125,87.15625 C -14.782398,86.925913 -14.905444,86.713409 -15.10464,86.597747 C -15.303835,86.482085 -15.549387,86.480564 -15.75,86.59375 C -16.371116,86.924899 -16.997111,87.262533 -17.625,87.59375 C -17.795091,85.591812 -18.20146,83.52434 -18.78125,81.78125 C -18.857702,81.565751 -19.041828,81.406321 -19.266045,81.361477 C -19.490263,81.316634 -19.721545,81.392982 -19.875,81.5625 C -20.339065,82.064374 -20.813415,82.560797 -21.28125,83.0625 C -21.990964,81.262597 -22.896122,79.480359 -23.875,77.96875 C -23.999678,77.785694 -24.209034,77.67878 -24.430426,77.685105 C -24.651817,77.69143 -24.854727,77.810124 -24.96875,78 C -25.298361,78.61393 -25.63555,79.228146 -25.96875,79.84375 C -27.120877,78.269096 -28.437658,76.754173 -29.78125,75.53125 C -29.948906,75.379793 -30.183218,75.326334 -30.399975,75.390086 C -30.616731,75.453838 -30.78479,75.625641 -30.84375,75.84375 C -31.008381,76.531337 -31.178873,77.218194 -31.34375,77.90625 C -32.876939,76.706347 -34.581491,75.596298 -36.1875,74.78125 C -36.30347,74.723485 -36.434064,74.701719 -36.5625,74.71875 z M -36.9375,81.03125 C -36.920378,81.531383 -36.891896,82.031299 -36.875,82.53125 C -36.863225,82.75598 -36.735971,82.958605 -36.538655,83.066811 C -36.341338,83.175017 -36.102073,83.173386 -35.90625,83.0625 C -34.605421,82.302021 -33.382323,81.745099 -32.125,81.28125 C -32.248267,81.781377 -32.37928,82.277054 -32.5,82.78125 C -32.55162,83.000288 -32.486192,83.230439 -32.327065,83.389565 C -32.167939,83.548692 -31.937788,83.61412 -31.71875,83.5625 C -30.257092,83.173293 -28.944039,83.0022 -27.59375,82.90625 C -27.841485,83.365692 -28.096391,83.820524 -28.34375,84.28125 C -28.456936,84.481863 -28.455415,84.727415 -28.339753,84.92661 C -28.224091,85.125806 -28.011587,85.248852 -27.78125,85.25 C -26.271639,85.24619 -24.968839,85.384466 -23.65625,85.625 C -24.010958,86.009579 -24.363336,86.39688 -24.71875,86.78125 C -24.870207,86.948906 -24.923666,87.183218 -24.859914,87.399975 C -24.796162,87.616731 -24.624359,87.78479 -24.40625,87.84375 C -22.997251,88.205071 -21.847898,88.665975 -20.71875,89.21875 C -21.167756,89.457133 -21.614384,89.698586 -22.0625,89.9375 C -22.252376,90.051523 -22.37107,90.254433 -22.377395,90.475824 C -22.38372,90.697216 -22.276806,90.906572 -22.09375,91.03125 C -20.832441,91.868 -19.80149,92.710533 -18.8125,93.625 C -19.311887,93.742606 -19.815493,93.856211 -20.3125,93.96875 C -20.53592,94.019517 -20.716071,94.184231 -20.786598,94.402222 C -20.857124,94.620213 -20.807594,94.859235 -20.65625,95.03125 C -19.888952,95.909763 -19.337076,96.7636 -18.75,97.625 C -19.072559,97.61702 -19.398016,97.603656 -19.71875,97.59375 C -19.950888,97.578186 -20.173622,97.687964 -20.302678,97.881548 C -20.431734,98.075132 -20.4474,98.322955 -20.34375,98.53125 C -19.659555,99.897182 -19.103255,101.14925 -18.65625,102.4375 C -19.137363,102.29664 -19.615941,102.14185 -20.09375,102 C -20.31076,101.93931 -20.543722,101.99542 -20.709301,102.14826 C -20.87488,102.3011 -20.949417,102.52884 -20.90625,102.75 C -20.598684,104.21706 -20.443455,105.54466 -20.375,106.875 C -20.80351,106.60577 -21.226536,106.33034 -21.65625,106.0625 C -21.853818,105.93582 -22.104355,105.92556 -22.311616,106.03567 C -22.518877,106.14578 -22.650626,106.35912 -22.65625,106.59375 C -22.748994,108.08445 -22.941956,109.36934 -23.25,110.65625 C -23.599945,110.27683 -23.962561,109.9097 -24.3125,109.53125 C -24.465955,109.36173 -24.697237,109.28538 -24.921455,109.33023 C -25.145672,109.37507 -25.329798,109.5345 -25.40625,109.75 C -25.893257,111.17519 -26.461063,112.3858 -27.125,113.5625 C -27.377204,113.09476 -27.62416,112.62346 -27.875,112.15625 C -27.989023,111.96637 -28.191933,111.84768 -28.413324,111.84136 C -28.634716,111.83503 -28.844072,111.94194 -28.96875,112.125 C -29.800468,113.38667 -30.66368,114.38282 -31.59375,115.34375 C -31.719946,114.8229 -31.844397,114.30062 -31.96875,113.78125 C -32.02771,113.56314 -32.195769,113.39134 -32.412525,113.32759 C -32.629282,113.26383 -32.863594,113.31729 -33.03125,113.46875 C -34.113089,114.4374 -35.131445,115.09942 -36.21875,115.71875 C -36.168497,115.229 -36.112306,114.74027 -36.0625,114.25 C -36.04099,114.02113 -36.142051,113.79793 -36.328241,113.66311 C -36.51443,113.52828 -36.758016,113.5019 -36.96875,113.59375 C -38.362671,114.17326 -39.624402,114.56911 -40.9375,114.875 C -40.7492,114.39663 -40.56065,113.92197 -40.375,113.4375 C -40.29422,113.22456 -40.330862,112.98487 -40.471569,112.80579 C -40.612276,112.6267 -40.836494,112.53439 -41.0625,112.5625 C -42.544931,112.75526 -43.842795,112.73438 -45.1875,112.6875 C -44.907046,112.29116 -44.624518,111.89556 -44.34375,111.5 C -44.206466,111.31504 -44.177401,111.07121 -44.26736,110.85916 C -44.357319,110.64712 -44.552848,110.49857 -44.78125,110.46875 C -46.269219,110.28627 -47.569118,110.01956 -48.84375,109.625 C -48.444147,109.29689 -48.056613,108.95677 -47.65625,108.625 C -47.483531,108.48074 -47.397783,108.25736 -47.429608,108.03459 C -47.461434,107.81181 -47.606297,107.62138 -47.8125,107.53125 C -49.180166,106.97932 -50.304997,106.38853 -51.375,105.6875 C -50.895397,105.51095 -50.416915,105.33409 -49.9375,105.15625 C -49.722001,105.0798 -49.562571,104.89567 -49.517727,104.67145 C -49.472884,104.44724 -49.549232,104.21595 -49.71875,104.0625 C -50.854422,103.06576 -51.807986,102.1255 -52.6875,101.09375 C -52.188167,101.0491 -51.689558,101.01592 -51.1875,100.96875 C -50.953498,100.94881 -50.74848,100.80412 -50.651298,100.59032 C -50.554116,100.37652 -50.579907,100.12691 -50.71875,99.9375 C -51.560056,98.678044 -52.227273,97.509129 -52.8125,96.28125 C -52.302251,96.362455 -51.793096,96.449879 -51.28125,96.53125 C -51.050157,96.572198 -50.814947,96.485304 -50.665978,96.303951 C -50.517009,96.122598 -50.477451,95.87499 -50.5625,95.65625 C -51.060133,94.238609 -51.398433,92.973125 -51.625,91.65625 C -51.165871,91.862991 -50.709337,92.074824 -50.25,92.28125 C -50.036445,92.388912 -49.781005,92.370519 -49.585078,92.23337 C -49.389152,92.096222 -49.284437,91.862506 -49.3125,91.625 C -49.42144,90.133064 -49.377899,88.848873 -49.21875,87.53125 C -48.811934,87.865303 -48.401944,88.198168 -48,88.53125 C -47.823827,88.667173 -47.590339,88.70346 -47.381223,88.627418 C -47.172107,88.551376 -47.016465,88.373587 -46.96875,88.15625 C -46.689595,86.755677 -46.263902,85.577446 -45.78125,84.40625 C -45.529076,84.811164 -45.281835,85.220361 -45.03125,85.625 C -44.90972,85.822848 -44.691826,85.940782 -44.459723,85.934335 C -44.22762,85.927887 -44.016609,85.79804 -43.90625,85.59375 C -43.159012,84.291914 -42.361684,83.233811 -41.53125,82.15625 C -41.392999,82.603497 -41.263717,83.053023 -41.125,83.5 C -41.063743,83.72542 -40.886167,83.900589 -40.659932,83.958764 C -40.433697,84.016939 -40.193648,83.949159 -40.03125,83.78125 C -38.993489,82.720896 -37.99835,81.829713 -36.9375,81.03125 z" />
    <path
       transform="matrix(0.8333586,-0.1469436,0.1469436,0.8333586,116.82687,-149.30321)"
       d="M -36.5625,74.71875 C -36.90188,74.763869 -37.147978,75.064656 -37.125,75.40625 C -37.101861,76.090925 -37.08288,76.78028 -37.0625,77.46875 C -38.842857,76.757772 -40.76218,76.231779 -42.5,75.875 C -42.721164,75.831833 -42.948901,75.90637 -43.101743,76.071949 C -43.254585,76.237528 -43.310694,76.47049 -43.25,76.6875 C -43.043604,77.352554 -42.830784,78.019284 -42.625,78.6875 C -44.522834,78.4789 -46.476075,78.471825 -48.25,78.5625 C -48.484625,78.568124 -48.697971,78.699873 -48.808078,78.907134 C -48.918186,79.114395 -48.90793,79.364932 -48.78125,79.5625 C -48.404709,80.17053 -48.032026,80.789952 -47.65625,81.40625 C -49.60805,81.716126 -51.628754,82.199132 -53.34375,82.875 C -53.549953,82.965127 -53.694816,83.15556 -53.726642,83.378337 C -53.758467,83.601114 -53.672719,83.824492 -53.5,83.96875 C -52.955927,84.419607 -52.421195,84.889355 -51.875,85.34375 C -53.641423,86.161891 -55.391701,87.126238 -56.84375,88.21875 C -57.036304,88.350721 -57.143236,88.575866 -57.12385,88.808498 C -57.104464,89.04113 -56.961742,89.24547 -56.75,89.34375 C -56.10809,89.632224 -55.45859,89.923283 -54.8125,90.21875 C -56.265467,91.501741 -57.617447,92.9591 -58.71875,94.375 C -58.871431,94.555733 -58.913771,94.805186 -58.829275,95.026175 C -58.744779,95.247164 -58.546812,95.404735 -58.3125,95.4375 C -57.632306,95.545633 -56.956941,95.645002 -56.28125,95.75 C -57.324997,97.353009 -58.229888,99.089496 -58.9375,100.71875 C -59.029347,100.92948 -59.002971,101.17307 -58.868144,101.35926 C -58.733317,101.54545 -58.510122,101.64651 -58.28125,101.625 C -57.574581,101.55861 -56.864956,101.50217 -56.15625,101.4375 C -56.762754,103.27065 -57.236212,105.2018 -57.5,106.96875 C -57.528106,107.19476 -57.435796,107.41897 -57.256714,107.55968 C -57.077632,107.70039 -56.83794,107.73703 -56.625,107.65625 C -55.9594,107.40935 -55.293577,107.15309 -54.625,106.90625 C -54.7077,108.90455 -54.530781,110.98248 -54.1875,112.78125 C -54.139785,112.99859 -53.984143,113.17638 -53.775027,113.25242 C -53.565911,113.32846 -53.332423,113.29217 -53.15625,113.15625 C -52.614664,112.70745 -52.072234,112.26099 -51.53125,111.8125 C -51.041017,113.69329 -50.37778,115.59616 -49.59375,117.21875 C -49.49547,117.43049 -49.29113,117.57321 -49.058498,117.5926 C -48.825866,117.61199 -48.600721,117.50505 -48.46875,117.3125 C -48.067917,116.74778 -47.653219,116.19026 -47.25,115.625 C -46.295523,117.2973 -45.188584,118.91123 -44.03125,120.28125 C -43.882356,120.45218 -43.65512,120.53313 -43.43169,120.49483 C -43.20826,120.45653 -43.02096,120.30452 -42.9375,120.09375 C -42.685534,119.43622 -42.436478,118.78087 -42.1875,118.125 C -40.819155,119.50883 -39.299869,120.78474 -37.8125,121.8125 C -37.623087,121.95134 -37.373481,121.97713 -37.159681,121.87995 C -36.945881,121.78277 -36.801187,121.57775 -36.78125,121.34375 C -36.710371,120.64605 -36.633842,119.94823 -36.5625,119.25 C -34.810901,120.22337 -32.891662,121.01411 -31.125,121.5 C -30.901552,121.56537 -30.660206,121.50616 -30.492385,121.34479 C -30.324565,121.18343 -30.255938,120.94459 -30.3125,120.71875 C -30.474267,120.04313 -30.619317,119.36326 -30.78125,118.6875 C -28.877116,119.10004 -26.871245,119.38692 -25.0625,119.40625 C -24.832163,119.4051 -24.619659,119.28206 -24.503997,119.08286 C -24.388335,118.88366 -24.386814,118.63811 -24.5,118.4375 C -24.827423,117.82765 -25.171881,117.23114 -25.5,116.625 C -23.555555,116.53968 -21.543438,116.28034 -19.78125,115.84375 C -19.563141,115.78479 -19.391338,115.61673 -19.327586,115.39997 C -19.263834,115.18322 -19.317293,114.94891 -19.46875,114.78125 C -19.946085,114.26503 -20.427172,113.74186 -20.90625,113.21875 C -19.054851,112.62262 -17.202909,111.85138 -15.625,110.96875 C -15.42071,110.85839 -15.290863,110.64738 -15.284415,110.41528 C -15.277968,110.18317 -15.395902,109.96528 -15.59375,109.84375 C -16.186072,109.47455 -16.782649,109.11591 -17.375,108.75 C -15.774862,107.66517 -14.243901,106.38343 -12.96875,105.125 C -12.800841,104.9626 -12.733061,104.72255 -12.791236,104.49632 C -12.849411,104.27008 -13.02458,104.09251 -13.25,104.03125 C -13.93666,103.82739 -14.626588,103.63926 -15.3125,103.4375 C -14.07575,101.96377 -12.97301,100.35132 -12.0625,98.8125 C -11.93582,98.614932 -11.925564,98.364395 -12.035672,98.157134 C -12.145779,97.949873 -12.359125,97.818124 -12.59375,97.8125 C -13.195016,97.793927 -13.801116,97.771587 -14.40625,97.75 C -13.702663,96.233963 -13.024228,94.680429 -12.59375,93.1875 C -12.528378,92.964052 -12.58759,92.722706 -12.748956,92.554885 C -12.910321,92.387065 -13.149161,92.318438 -13.375,92.375 C -14.056055,92.529213 -14.730189,92.688239 -15.40625,92.84375 C -15.020487,90.946514 -14.805708,88.955492 -14.78125,87.15625 C -14.782398,86.925913 -14.905444,86.713409 -15.10464,86.597747 C -15.303835,86.482085 -15.549387,86.480564 -15.75,86.59375 C -16.371116,86.924899 -16.997111,87.262533 -17.625,87.59375 C -17.795091,85.591812 -18.20146,83.52434 -18.78125,81.78125 C -18.857702,81.565751 -19.041828,81.406321 -19.266045,81.361477 C -19.490263,81.316634 -19.721545,81.392982 -19.875,81.5625 C -20.339065,82.064374 -20.813415,82.560797 -21.28125,83.0625 C -21.990964,81.262597 -22.896122,79.480359 -23.875,77.96875 C -23.999678,77.785694 -24.209034,77.67878 -24.430426,77.685105 C -24.651817,77.69143 -24.854727,77.810124 -24.96875,78 C -25.298361,78.61393 -25.63555,79.228146 -25.96875,79.84375 C -27.120877,78.269096 -28.437658,76.754173 -29.78125,75.53125 C -29.948906,75.379793 -30.183218,75.326334 -30.399975,75.390086 C -30.616731,75.453838 -30.78479,75.625641 -30.84375,75.84375 C -31.008381,76.531337 -31.178873,77.218194 -31.34375,77.90625 C -32.876939,76.706347 -34.581491,75.596298 -36.1875,74.78125 C -36.30347,74.723485 -36.434064,74.701719 -36.5625,74.71875 z M -36.9375,81.03125 C -36.920378,81.531383 -36.891896,82.031299 -36.875,82.53125 C -36.863225,82.75598 -36.735971,82.958605 -36.538655,83.066811 C -36.341338,83.175017 -36.102073,83.173386 -35.90625,83.0625 C -34.605421,82.302021 -33.382323,81.745099 -32.125,81.28125 C -32.248267,81.781377 -32.37928,82.277054 -32.5,82.78125 C -32.55162,83.000288 -32.486192,83.230439 -32.327065,83.389565 C -32.167939,83.548692 -31.937788,83.61412 -31.71875,83.5625 C -30.257092,83.173293 -28.944039,83.0022 -27.59375,82.90625 C -27.841485,83.365692 -28.096391,83.820524 -28.34375,84.28125 C -28.456936,84.481863 -28.455415,84.727415 -28.339753,84.92661 C -28.224091,85.125806 -28.011587,85.248852 -27.78125,85.25 C -26.271639,85.24619 -24.968839,85.384466 -23.65625,85.625 C -24.010958,86.009579 -24.363336,86.39688 -24.71875,86.78125 C -24.870207,86.948906 -24.923666,87.183218 -24.859914,87.399975 C -24.796162,87.616731 -24.624359,87.78479 -24.40625,87.84375 C -22.997251,88.205071 -21.847898,88.665975 -20.71875,89.21875 C -21.167756,89.457133 -21.614384,89.698586 -22.0625,89.9375 C -22.252376,90.051523 -22.37107,90.254433 -22.377395,90.475824 C -22.38372,90.697216 -22.276806,90.906572 -22.09375,91.03125 C -20.832441,91.868 -19.80149,92.710533 -18.8125,93.625 C -19.311887,93.742606 -19.815493,93.856211 -20.3125,93.96875 C -20.53592,94.019517 -20.716071,94.184231 -20.786598,94.402222 C -20.857124,94.620213 -20.807594,94.859235 -20.65625,95.03125 C -19.888952,95.909763 -19.337076,96.7636 -18.75,97.625 C -19.072559,97.61702 -19.398016,97.603656 -19.71875,97.59375 C -19.950888,97.578186 -20.173622,97.687964 -20.302678,97.881548 C -20.431734,98.075132 -20.4474,98.322955 -20.34375,98.53125 C -19.659555,99.897182 -19.103255,101.14925 -18.65625,102.4375 C -19.137363,102.29664 -19.615941,102.14185 -20.09375,102 C -20.31076,101.93931 -20.543722,101.99542 -20.709301,102.14826 C -20.87488,102.3011 -20.949417,102.52884 -20.90625,102.75 C -20.598684,104.21706 -20.443455,105.54466 -20.375,106.875 C -20.80351,106.60577 -21.226536,106.33034 -21.65625,106.0625 C -21.853818,105.93582 -22.104355,105.92556 -22.311616,106.03567 C -22.518877,106.14578 -22.650626,106.35912 -22.65625,106.59375 C -22.748994,108.08445 -22.941956,109.36934 -23.25,110.65625 C -23.599945,110.27683 -23.962561,109.9097 -24.3125,109.53125 C -24.465955,109.36173 -24.697237,109.28538 -24.921455,109.33023 C -25.145672,109.37507 -25.329798,109.5345 -25.40625,109.75 C -25.893257,111.17519 -26.461063,112.3858 -27.125,113.5625 C -27.377204,113.09476 -27.62416,112.62346 -27.875,112.15625 C -27.989023,111.96637 -28.191933,111.84768 -28.413324,111.84136 C -28.634716,111.83503 -28.844072,111.94194 -28.96875,112.125 C -29.800468,113.38667 -30.66368,114.38282 -31.59375,115.34375 C -31.719946,114.8229 -31.844397,114.30062 -31.96875,113.78125 C -32.02771,113.56314 -32.195769,113.39134 -32.412525,113.32759 C -32.629282,113.26383 -32.863594,113.31729 -33.03125,113.46875 C -34.113089,114.4374 -35.131445,115.09942 -36.21875,115.71875 C -36.168497,115.229 -36.112306,114.74027 -36.0625,114.25 C -36.04099,114.02113 -36.142051,113.79793 -36.328241,113.66311 C -36.51443,113.52828 -36.758016,113.5019 -36.96875,113.59375 C -38.362671,114.17326 -39.624402,114.56911 -40.9375,114.875 C -40.7492,114.39663 -40.56065,113.92197 -40.375,113.4375 C -40.29422,113.22456 -40.330862,112.98487 -40.471569,112.80579 C -40.612276,112.6267 -40.836494,112.53439 -41.0625,112.5625 C -42.544931,112.75526 -43.842795,112.73438 -45.1875,112.6875 C -44.907046,112.29116 -44.624518,111.89556 -44.34375,111.5 C -44.206466,111.31504 -44.177401,111.07121 -44.26736,110.85916 C -44.357319,110.64712 -44.552848,110.49857 -44.78125,110.46875 C -46.269219,110.28627 -47.569118,110.01956 -48.84375,109.625 C -48.444147,109.29689 -48.056613,108.95677 -47.65625,108.625 C -47.483531,108.48074 -47.397783,108.25736 -47.429608,108.03459 C -47.461434,107.81181 -47.606297,107.62138 -47.8125,107.53125 C -49.180166,106.97932 -50.304997,106.38853 -51.375,105.6875 C -50.895397,105.51095 -50.416915,105.33409 -49.9375,105.15625 C -49.722001,105.0798 -49.562571,104.89567 -49.517727,104.67145 C -49.472884,104.44724 -49.549232,104.21595 -49.71875,104.0625 C -50.854422,103.06576 -51.807986,102.1255 -52.6875,101.09375 C -52.188167,101.0491 -51.689558,101.01592 -51.1875,100.96875 C -50.953498,100.94881 -50.74848,100.80412 -50.651298,100.59032 C -50.554116,100.37652 -50.579907,100.12691 -50.71875,99.9375 C -51.560056,98.678044 -52.227273,97.509129 -52.8125,96.28125 C -52.302251,96.362455 -51.793096,96.449879 -51.28125,96.53125 C -51.050157,96.572198 -50.814947,96.485304 -50.665978,96.303951 C -50.517009,96.122598 -50.477451,95.87499 -50.5625,95.65625 C -51.060133,94.238609 -51.398433,92.973125 -51.625,91.65625 C -51.165871,91.862991 -50.709337,92.074824 -50.25,92.28125 C -50.036445,92.388912 -49.781005,92.370519 -49.585078,92.23337 C -49.389152,92.096222 -49.284437,91.862506 -49.3125,91.625 C -49.42144,90.133064 -49.377899,88.848873 -49.21875,87.53125 C -48.811934,87.865303 -48.401944,88.198168 -48,88.53125 C -47.823827,88.667173 -47.590339,88.70346 -47.381223,88.627418 C -47.172107,88.551376 -47.016465,88.373587 -46.96875,88.15625 C -46.689595,86.755677 -46.263902,85.577446 -45.78125,84.40625 C -45.529076,84.811164 -45.281835,85.220361 -45.03125,85.625 C -44.90972,85.822848 -44.691826,85.940782 -44.459723,85.934335 C -44.22762,85.927887 -44.016609,85.79804 -43.90625,85.59375 C -43.159012,84.291914 -42.361684,83.233811 -41.53125,82.15625 C -41.392999,82.603497 -41.263717,83.053023 -41.125,83.5 C -41.063743,83.72542 -40.886167,83.900589 -40.659932,83.958764 C -40.433697,84.016939 -40.193648,83.949159 -40.03125,83.78125 C -38.993489,82.720896 -37.99835,81.829713 -36.9375,81.03125 z"
       id="path20950"
       style="fill:#aade87;fill-opacity:1;fill-rule:evenodd;stroke:none;stroke-width:0.53951621px;stroke-linecap:butt;stroke-linejoin:miter;stroke-opacity:1"
       inkscape:original="M -36.46875 75.375 C -36.434253 76.395776 -36.409498 77.416724 -36.375 78.4375 C -35.969274 78.622807 -35.491621 78.719133 -35.125 78.9375 C -35.585062 79.166277 -35.911279 79.48885 -36.3125 79.75 C -36.281519 80.666726 -36.249731 81.583277 -36.21875 82.5 C -34.513591 81.503145 -32.97065 80.773202 -31.21875 80.25 C -31.119349 79.834845 -31.036901 79.415155 -30.9375 79 C -32.591712 77.576618 -34.618698 76.313899 -36.46875 75.375 z M -30.9375 79 C -30.608611 79.282996 -30.192347 79.515359 -29.90625 79.8125 C -30.397752 79.909232 -30.774446 80.117309 -31.21875 80.25 C -31.433392 81.146464 -31.660358 82.041034 -31.875 82.9375 C -29.965355 82.429004 -28.295624 82.193626 -26.46875 82.15625 C -26.268198 81.782704 -26.075552 81.404796 -25.875 81.03125 C -27.101308 79.213401 -28.682086 77.398655 -30.21875 76 C -30.458102 76.999663 -30.698148 78.000336 -30.9375 79 z M -25.875 81.03125 C -25.633452 81.389314 -25.294594 81.737126 -25.09375 82.09375 C -25.592809 82.064156 -26.006596 82.146795 -26.46875 82.15625 C -26.905223 82.969219 -27.344777 83.780783 -27.78125 84.59375 C -25.803515 84.588758 -24.151189 84.755328 -22.375 85.1875 C -22.084398 84.873222 -21.790602 84.564278 -21.5 84.25 C -22.221887 82.185427 -23.28129 80.049692 -24.40625 78.3125 C -24.893444 79.219942 -25.387806 80.123808 -25.875 81.03125 z M -21.5 84.25 C -21.354347 84.666563 -21.13666 85.095951 -21.03125 85.5 C -21.504838 85.344663 -21.92737 85.296415 -22.375 85.1875 C -23.001427 85.864962 -23.623573 86.541286 -24.25 87.21875 C -22.352335 87.705384 -20.81277 88.275357 -19.28125 89.1875 C -18.907798 88.988393 -18.529702 88.792857 -18.15625 88.59375 C -18.229822 86.387797 -18.749971 83.973047 -19.40625 82 C -20.102733 82.753228 -20.803518 83.496775 -21.5 84.25 z M -18.15625 88.59375 C -18.14182 89.026425 -18.02948 89.499754 -18.0625 89.90625 C -18.473111 89.592029 -18.87704 89.42824 -19.28125 89.1875 C -20.102082 89.625128 -20.929168 90.062372 -21.75 90.5 C -20.103309 91.592412 -18.732453 92.632936 -17.46875 93.96875 C -17.051534 93.874277 -16.635966 93.781973 -16.21875 93.6875 C -15.691304 91.582167 -15.465672 89.228683 -15.4375 87.15625 C -16.340367 87.637615 -17.253383 88.112385 -18.15625 88.59375 z M -16.21875 93.6875 C -16.324239 94.108567 -16.359512 94.578752 -16.5 94.96875 C -16.803751 94.571582 -17.149002 94.306743 -17.46875 93.96875 C -18.367245 94.172202 -19.257755 94.3903 -20.15625 94.59375 C -19.060279 95.848574 -18.192785 97.0222 -17.40625 98.3125 C -16.718605 98.33374 -16.031395 98.353759 -15.34375 98.375 C -14.475849 96.635237 -13.720925 94.741581 -13.21875 93 C -14.220979 93.226937 -15.216521 93.460559 -16.21875 93.6875 z M -15.34375 98.375 C -15.666789 99.022553 -15.933193 99.723336 -16.3125 100.28125 C -16.629131 99.535623 -17.023822 98.939868 -17.40625 98.3125 C -18.187577 98.288366 -18.968673 98.274132 -19.75 98.25 C -18.863227 100.02036 -18.103913 101.60583 -17.625 103.40625 C -17.218065 103.52706 -16.813184 103.66044 -16.40625 103.78125 C -14.939841 102.20263 -13.682854 100.25659 -12.625 98.46875 C -13.531557 98.440746 -14.437193 98.403003 -15.34375 98.375 z M -16.40625 103.78125 C -16.69556 104.0927 -16.939778 104.48218 -17.25 104.75 C -17.319246 104.25874 -17.505 103.85738 -17.625 103.40625 C -18.508634 103.14392 -19.397616 102.88733 -20.28125 102.625 C -19.87617 104.55719 -19.622533 106.25515 -19.65625 108.09375 C -19.291586 108.32105 -18.927164 108.55395 -18.5625 108.78125 C -16.710945 107.65332 -14.914014 106.1134 -13.4375 104.65625 C -14.425258 104.363 -15.418492 104.07449 -16.40625 103.78125 z M -18.5625 108.78125 C -18.930859 109.00565 -19.283307 109.32326 -19.65625 109.5 C -19.591388 109.0023 -19.664822 108.56119 -19.65625 108.09375 C -20.437006 107.6071 -21.219244 107.11165 -22 106.625 C -22.122211 108.58932 -22.368906 110.26112 -22.90625 112 C -22.616584 112.31326 -22.320916 112.62424 -22.03125 112.9375 C -19.934985 112.35429 -17.740063 111.41454 -15.9375 110.40625 C -16.808959 109.86306 -17.691041 109.32444 -18.5625 108.78125 z M -22.03125 112.9375 C -22.459291 113.05659 -22.897407 113.26914 -23.3125 113.34375 C -23.117351 112.87474 -23.044943 112.44882 -22.90625 112 C -23.530668 111.32471 -24.156832 110.64404 -24.78125 109.96875 C -25.418895 111.83477 -26.14811 113.36462 -27.125 114.90625 C -26.924448 115.2798 -26.731802 115.6577 -26.53125 116.03125 C -24.342245 116.01499 -21.952353 115.71794 -19.9375 115.21875 C -20.636928 114.46234 -21.331821 113.69391 -22.03125 112.9375 z M -26.53125 116.03125 C -26.965089 116.03447 -27.433459 116.12395 -27.84375 116.09375 C -27.540401 115.69107 -27.374751 115.30038 -27.125 114.90625 C -27.561473 114.09328 -28.001027 113.28172 -28.4375 112.46875 C -29.527716 114.12254 -30.589764 115.42005 -31.9375 116.65625 C -31.840457 117.06156 -31.753293 117.46969 -31.65625 117.875 C -29.532096 118.42625 -27.13896 118.72781 -25.0625 118.75 C -25.549693 117.84256 -26.044056 116.93869 -26.53125 116.03125 z M -31.65625 117.875 C -32.076295 117.76599 -32.549705 117.72876 -32.9375 117.59375 C -32.547289 117.28863 -32.274539 116.9654 -31.9375 116.65625 C -32.1545 115.74994 -32.37675 114.84381 -32.59375 113.9375 C -34.057332 115.24795 -35.383388 116.17849 -37 116.9375 C -37.043368 117.36439 -37.081632 117.79186 -37.125 118.21875 C -35.248748 119.39617 -32.948223 120.32198 -30.9375 120.875 C -31.176852 119.87534 -31.416899 118.87467 -31.65625 117.875 z M -37.125 118.21875 C -37.48648 117.99191 -37.935533 117.81256 -38.25 117.5625 C -37.765505 117.39824 -37.420984 117.13516 -37 116.9375 C -36.906874 116.02081 -36.811876 115.10419 -36.71875 114.1875 C -38.538502 114.94404 -40.161528 115.4736 -41.96875 115.78125 C -42.124444 116.18755 -42.281806 116.5937 -42.4375 117 C -40.979557 118.61399 -39.146456 120.10038 -37.4375 121.28125 C -37.333793 120.26041 -37.228706 119.23959 -37.125 118.21875 z M -42.4375 117 C -42.725189 116.68152 -43.099794 116.3919 -43.34375 116.0625 C -42.839474 116.02951 -42.432162 115.86014 -41.96875 115.78125 C -41.640775 114.92538 -41.296725 114.07463 -40.96875 113.21875 C -42.92218 113.47275 -44.642353 113.54344 -46.46875 113.375 C -46.71976 113.72863 -46.96774 114.08387 -47.21875 114.4375 C -46.22218 116.36468 -44.86589 118.29509 -43.53125 119.875 C -43.164486 118.9179 -42.804264 117.9571 -42.4375 117 z M -47.21875 114.4375 C -47.42065 114.04706 -47.717201 113.6694 -47.875 113.28125 C -47.377474 113.37487 -46.938136 113.33171 -46.46875 113.375 C -45.936583 112.62526 -45.407166 111.87474 -44.875 111.125 C -46.831977 110.885 -48.479025 110.51586 -50.1875 109.875 C -50.518361 110.14918 -50.856639 110.41332 -51.1875 110.6875 C -50.729154 112.82161 -49.902098 115.07056 -49 116.9375 C -48.407541 116.10281 -47.81121 115.27218 -47.21875 114.4375 z M -51.1875 110.6875 C -51.278957 110.26166 -51.449885 109.81693 -51.5 109.40625 C -51.04588 109.62601 -50.624673 109.71101 -50.1875 109.875 C -49.480593 109.2892 -48.769407 108.7108 -48.0625 108.125 C -49.882951 107.39035 -51.367609 106.63487 -52.78125 105.53125 C -53.179631 105.67903 -53.570369 105.85222 -53.96875 106 C -54.173934 108.18686 -53.951643 110.61717 -53.5625 112.65625 C -52.770327 111.9998 -51.979673 111.34395 -51.1875 110.6875 z M -53.96875 106 C -53.928099 105.56675 -53.993921 105.08932 -53.90625 104.6875 C -53.544068 105.05081 -53.150667 105.24285 -52.78125 105.53125 C -51.907988 105.20731 -51.029512 104.88644 -50.15625 104.5625 C -51.638675 103.26143 -52.900217 102.04529 -54 100.5625 C -54.427578 100.60267 -54.853672 100.64733 -55.28125 100.6875 C -56.056703 102.70062 -56.538178 105.01566 -56.84375 107.0625 C -55.887158 106.70766 -54.925342 106.35485 -53.96875 106 z M -55.28125 100.6875 C -55.124767 100.28126 -55.033832 99.809366 -54.84375 99.4375 C -54.590792 99.873088 -54.280857 100.18383 -54 100.5625 C -53.082831 100.47633 -52.167169 100.39867 -51.25 100.3125 C -52.349666 98.666273 -53.252709 97.162247 -53.9375 95.4375 C -54.364606 95.369601 -54.791644 95.317898 -55.21875 95.25 C -56.479808 96.997964 -57.520635 99.073553 -58.34375 100.96875 C -57.322271 100.87278 -56.30273 100.78347 -55.28125 100.6875 z M -55.21875 95.25 C -54.961825 94.893874 -54.748249 94.471036 -54.46875 94.15625 C -54.335112 94.634338 -54.109213 95.005015 -53.9375 95.4375 C -53.019007 95.583516 -52.105993 95.728982 -51.1875 95.875 C -51.839752 94.016886 -52.27003 92.38049 -52.46875 90.5625 C -52.864105 90.384826 -53.260895 90.208924 -53.65625 90.03125 C -55.34948 91.390388 -56.947543 93.146911 -58.21875 94.78125 C -57.21719 94.940472 -56.22031 95.090779 -55.21875 95.25 z M -53.65625 90.03125 C -53.315508 89.75774 -53.005323 89.38374 -52.65625 89.15625 C -52.653497 89.663097 -52.519898 90.094571 -52.46875 90.5625 C -51.6356 90.93692 -50.8019 91.313082 -49.96875 91.6875 C -50.111996 89.725748 -50.034465 88.063857 -49.71875 86.28125 C -50.04252 86.012949 -50.36373 85.737051 -50.6875 85.46875 C -52.712002 86.315006 -54.808912 87.501149 -56.46875 88.75 C -55.529501 89.172098 -54.595499 89.609148 -53.65625 90.03125 z M -50.6875 85.46875 C -50.287935 85.301729 -49.890574 85.030837 -49.5 84.90625 C -49.632537 85.397818 -49.637032 85.81985 -49.71875 86.28125 C -49.013818 86.865411 -48.298682 87.447089 -47.59375 88.03125 C -47.213732 86.12463 -46.675011 84.573039 -45.90625 82.96875 C -46.133013 82.602579 -46.366987 82.241171 -46.59375 81.875 C -48.77969 82.151272 -51.162966 82.707841 -53.09375 83.46875 C -52.292512 84.132712 -51.488737 84.804784 -50.6875 85.46875 z M -46.59375 81.875 C -46.159954 81.820174 -45.692564 81.677271 -45.28125 81.65625 C -45.546081 82.117641 -45.695889 82.529759 -45.90625 82.96875 C -45.428292 83.740543 -44.946708 84.509456 -44.46875 85.28125 C -43.487556 83.571818 -42.536124 82.082266 -41.3125 80.6875 C -41.442233 80.269471 -41.589017 79.855529 -41.71875 79.4375 C -43.836464 79.10139 -46.154918 79.113256 -48.21875 79.21875 C -47.672162 80.101367 -47.140338 80.992385 -46.59375 81.875 z M -41.71875 79.4375 C -41.287642 79.505923 -40.811865 79.482188 -40.40625 79.59375 C -40.78258 79.930707 -40.998898 80.330036 -41.3125 80.6875 C -41.041254 81.561514 -40.771246 82.438488 -40.5 83.3125 C -39.12746 81.910079 -37.844804 80.747361 -36.3125 79.75 C -36.327294 79.312264 -36.360206 78.875236 -36.375 78.4375 C -38.334009 77.542761 -40.606659 76.914371 -42.625 76.5 C -42.321552 77.477779 -42.022199 78.459718 -41.71875 79.4375 z "
       inkscape:radius="0.64950466"
       sodipodi:type="inkscape:offset" />
    <path
       sodipodi:type="inkscape:offset"
       inkscape:radius="0.64950466"
       inkscape:original="M -36.46875 75.375 C -36.434253 76.395776 -36.409498 77.416724 -36.375 78.4375 C -35.969274 78.622807 -35.491621 78.719133 -35.125 78.9375 C -35.585062 79.166277 -35.911279 79.48885 -36.3125 79.75 C -36.281519 80.666726 -36.249731 81.583277 -36.21875 82.5 C -34.513591 81.503145 -32.97065 80.773202 -31.21875 80.25 C -31.119349 79.834845 -31.036901 79.415155 -30.9375 79 C -32.591712 77.576618 -34.618698 76.313899 -36.46875 75.375 z M -30.9375 79 C -30.608611 79.282996 -30.192347 79.515359 -29.90625 79.8125 C -30.397752 79.909232 -30.774446 80.117309 -31.21875 80.25 C -31.433392 81.146464 -31.660358 82.041034 -31.875 82.9375 C -29.965355 82.429004 -28.295624 82.193626 -26.46875 82.15625 C -26.268198 81.782704 -26.075552 81.404796 -25.875 81.03125 C -27.101308 79.213401 -28.682086 77.398655 -30.21875 76 C -30.458102 76.999663 -30.698148 78.000336 -30.9375 79 z M -25.875 81.03125 C -25.633452 81.389314 -25.294594 81.737126 -25.09375 82.09375 C -25.592809 82.064156 -26.006596 82.146795 -26.46875 82.15625 C -26.905223 82.969219 -27.344777 83.780783 -27.78125 84.59375 C -25.803515 84.588758 -24.151189 84.755328 -22.375 85.1875 C -22.084398 84.873222 -21.790602 84.564278 -21.5 84.25 C -22.221887 82.185427 -23.28129 80.049692 -24.40625 78.3125 C -24.893444 79.219942 -25.387806 80.123808 -25.875 81.03125 z M -21.5 84.25 C -21.354347 84.666563 -21.13666 85.095951 -21.03125 85.5 C -21.504838 85.344663 -21.92737 85.296415 -22.375 85.1875 C -23.001427 85.864962 -23.623573 86.541286 -24.25 87.21875 C -22.352335 87.705384 -20.81277 88.275357 -19.28125 89.1875 C -18.907798 88.988393 -18.529702 88.792857 -18.15625 88.59375 C -18.229822 86.387797 -18.749971 83.973047 -19.40625 82 C -20.102733 82.753228 -20.803518 83.496775 -21.5 84.25 z M -18.15625 88.59375 C -18.14182 89.026425 -18.02948 89.499754 -18.0625 89.90625 C -18.473111 89.592029 -18.87704 89.42824 -19.28125 89.1875 C -20.102082 89.625128 -20.929168 90.062372 -21.75 90.5 C -20.103309 91.592412 -18.732453 92.632936 -17.46875 93.96875 C -17.051534 93.874277 -16.635966 93.781973 -16.21875 93.6875 C -15.691304 91.582167 -15.465672 89.228683 -15.4375 87.15625 C -16.340367 87.637615 -17.253383 88.112385 -18.15625 88.59375 z M -16.21875 93.6875 C -16.324239 94.108567 -16.359512 94.578752 -16.5 94.96875 C -16.803751 94.571582 -17.149002 94.306743 -17.46875 93.96875 C -18.367245 94.172202 -19.257755 94.3903 -20.15625 94.59375 C -19.060279 95.848574 -18.192785 97.0222 -17.40625 98.3125 C -16.718605 98.33374 -16.031395 98.353759 -15.34375 98.375 C -14.475849 96.635237 -13.720925 94.741581 -13.21875 93 C -14.220979 93.226937 -15.216521 93.460559 -16.21875 93.6875 z M -15.34375 98.375 C -15.666789 99.022553 -15.933193 99.723336 -16.3125 100.28125 C -16.629131 99.535623 -17.023822 98.939868 -17.40625 98.3125 C -18.187577 98.288366 -18.968673 98.274132 -19.75 98.25 C -18.863227 100.02036 -18.103913 101.60583 -17.625 103.40625 C -17.218065 103.52706 -16.813184 103.66044 -16.40625 103.78125 C -14.939841 102.20263 -13.682854 100.25659 -12.625 98.46875 C -13.531557 98.440746 -14.437193 98.403003 -15.34375 98.375 z M -16.40625 103.78125 C -16.69556 104.0927 -16.939778 104.48218 -17.25 104.75 C -17.319246 104.25874 -17.505 103.85738 -17.625 103.40625 C -18.508634 103.14392 -19.397616 102.88733 -20.28125 102.625 C -19.87617 104.55719 -19.622533 106.25515 -19.65625 108.09375 C -19.291586 108.32105 -18.927164 108.55395 -18.5625 108.78125 C -16.710945 107.65332 -14.914014 106.1134 -13.4375 104.65625 C -14.425258 104.363 -15.418492 104.07449 -16.40625 103.78125 z M -18.5625 108.78125 C -18.930859 109.00565 -19.283307 109.32326 -19.65625 109.5 C -19.591388 109.0023 -19.664822 108.56119 -19.65625 108.09375 C -20.437006 107.6071 -21.219244 107.11165 -22 106.625 C -22.122211 108.58932 -22.368906 110.26112 -22.90625 112 C -22.616584 112.31326 -22.320916 112.62424 -22.03125 112.9375 C -19.934985 112.35429 -17.740063 111.41454 -15.9375 110.40625 C -16.808959 109.86306 -17.691041 109.32444 -18.5625 108.78125 z M -22.03125 112.9375 C -22.459291 113.05659 -22.897407 113.26914 -23.3125 113.34375 C -23.117351 112.87474 -23.044943 112.44882 -22.90625 112 C -23.530668 111.32471 -24.156832 110.64404 -24.78125 109.96875 C -25.418895 111.83477 -26.14811 113.36462 -27.125 114.90625 C -26.924448 115.2798 -26.731802 115.6577 -26.53125 116.03125 C -24.342245 116.01499 -21.952353 115.71794 -19.9375 115.21875 C -20.636928 114.46234 -21.331821 113.69391 -22.03125 112.9375 z M -26.53125 116.03125 C -26.965089 116.03447 -27.433459 116.12395 -27.84375 116.09375 C -27.540401 115.69107 -27.374751 115.30038 -27.125 114.90625 C -27.561473 114.09328 -28.001027 113.28172 -28.4375 112.46875 C -29.527716 114.12254 -30.589764 115.42005 -31.9375 116.65625 C -31.840457 117.06156 -31.753293 117.46969 -31.65625 117.875 C -29.532096 118.42625 -27.13896 118.72781 -25.0625 118.75 C -25.549693 117.84256 -26.044056 116.93869 -26.53125 116.03125 z M -31.65625 117.875 C -32.076295 117.76599 -32.549705 117.72876 -32.9375 117.59375 C -32.547289 117.28863 -32.274539 116.9654 -31.9375 116.65625 C -32.1545 115.74994 -32.37675 114.84381 -32.59375 113.9375 C -34.057332 115.24795 -35.383388 116.17849 -37 116.9375 C -37.043368 117.36439 -37.081632 117.79186 -37.125 118.21875 C -35.248748 119.39617 -32.948223 120.32198 -30.9375 120.875 C -31.176852 119.87534 -31.416899 118.87467 -31.65625 117.875 z M -37.125 118.21875 C -37.48648 117.99191 -37.935533 117.81256 -38.25 117.5625 C -37.765505 117.39824 -37.420984 117.13516 -37 116.9375 C -36.906874 116.02081 -36.811876 115.10419 -36.71875 114.1875 C -38.538502 114.94404 -40.161528 115.4736 -41.96875 115.78125 C -42.124444 116.18755 -42.281806 116.5937 -42.4375 117 C -40.979557 118.61399 -39.146456 120.10038 -37.4375 121.28125 C -37.333793 120.26041 -37.228706 119.23959 -37.125 118.21875 z M -42.4375 117 C -42.725189 116.68152 -43.099794 116.3919 -43.34375 116.0625 C -42.839474 116.02951 -42.432162 115.86014 -41.96875 115.78125 C -41.640775 114.92538 -41.296725 114.07463 -40.96875 113.21875 C -42.92218 113.47275 -44.642353 113.54344 -46.46875 113.375 C -46.71976 113.72863 -46.96774 114.08387 -47.21875 114.4375 C -46.22218 116.36468 -44.86589 118.29509 -43.53125 119.875 C -43.164486 118.9179 -42.804264 117.9571 -42.4375 117 z M -47.21875 114.4375 C -47.42065 114.04706 -47.717201 113.6694 -47.875 113.28125 C -47.377474 113.37487 -46.938136 113.33171 -46.46875 113.375 C -45.936583 112.62526 -45.407166 111.87474 -44.875 111.125 C -46.831977 110.885 -48.479025 110.51586 -50.1875 109.875 C -50.518361 110.14918 -50.856639 110.41332 -51.1875 110.6875 C -50.729154 112.82161 -49.902098 115.07056 -49 116.9375 C -48.407541 116.10281 -47.81121 115.27218 -47.21875 114.4375 z M -51.1875 110.6875 C -51.278957 110.26166 -51.449885 109.81693 -51.5 109.40625 C -51.04588 109.62601 -50.624673 109.71101 -50.1875 109.875 C -49.480593 109.2892 -48.769407 108.7108 -48.0625 108.125 C -49.882951 107.39035 -51.367609 106.63487 -52.78125 105.53125 C -53.179631 105.67903 -53.570369 105.85222 -53.96875 106 C -54.173934 108.18686 -53.951643 110.61717 -53.5625 112.65625 C -52.770327 111.9998 -51.979673 111.34395 -51.1875 110.6875 z M -53.96875 106 C -53.928099 105.56675 -53.993921 105.08932 -53.90625 104.6875 C -53.544068 105.05081 -53.150667 105.24285 -52.78125 105.53125 C -51.907988 105.20731 -51.029512 104.88644 -50.15625 104.5625 C -51.638675 103.26143 -52.900217 102.04529 -54 100.5625 C -54.427578 100.60267 -54.853672 100.64733 -55.28125 100.6875 C -56.056703 102.70062 -56.538178 105.01566 -56.84375 107.0625 C -55.887158 106.70766 -54.925342 106.35485 -53.96875 106 z M -55.28125 100.6875 C -55.124767 100.28126 -55.033832 99.809366 -54.84375 99.4375 C -54.590792 99.873088 -54.280857 100.18383 -54 100.5625 C -53.082831 100.47633 -52.167169 100.39867 -51.25 100.3125 C -52.349666 98.666273 -53.252709 97.162247 -53.9375 95.4375 C -54.364606 95.369601 -54.791644 95.317898 -55.21875 95.25 C -56.479808 96.997964 -57.520635 99.073553 -58.34375 100.96875 C -57.322271 100.87278 -56.30273 100.78347 -55.28125 100.6875 z M -55.21875 95.25 C -54.961825 94.893874 -54.748249 94.471036 -54.46875 94.15625 C -54.335112 94.634338 -54.109213 95.005015 -53.9375 95.4375 C -53.019007 95.583516 -52.105993 95.728982 -51.1875 95.875 C -51.839752 94.016886 -52.27003 92.38049 -52.46875 90.5625 C -52.864105 90.384826 -53.260895 90.208924 -53.65625 90.03125 C -55.34948 91.390388 -56.947543 93.146911 -58.21875 94.78125 C -57.21719 94.940472 -56.22031 95.090779 -55.21875 95.25 z M -53.65625 90.03125 C -53.315508 89.75774 -53.005323 89.38374 -52.65625 89.15625 C -52.653497 89.663097 -52.519898 90.094571 -52.46875 90.5625 C -51.6356 90.93692 -50.8019 91.313082 -49.96875 91.6875 C -50.111996 89.725748 -50.034465 88.063857 -49.71875 86.28125 C -50.04252 86.012949 -50.36373 85.737051 -50.6875 85.46875 C -52.712002 86.315006 -54.808912 87.501149 -56.46875 88.75 C -55.529501 89.172098 -54.595499 89.609148 -53.65625 90.03125 z M -50.6875 85.46875 C -50.287935 85.301729 -49.890574 85.030837 -49.5 84.90625 C -49.632537 85.397818 -49.637032 85.81985 -49.71875 86.28125 C -49.013818 86.865411 -48.298682 87.447089 -47.59375 88.03125 C -47.213732 86.12463 -46.675011 84.573039 -45.90625 82.96875 C -46.133013 82.602579 -46.366987 82.241171 -46.59375 81.875 C -48.77969 82.151272 -51.162966 82.707841 -53.09375 83.46875 C -52.292512 84.132712 -51.488737 84.804784 -50.6875 85.46875 z M -46.59375 81.875 C -46.159954 81.820174 -45.692564 81.677271 -45.28125 81.65625 C -45.546081 82.117641 -45.695889 82.529759 -45.90625 82.96875 C -45.428292 83.740543 -44.946708 84.509456 -44.46875 85.28125 C -43.487556 83.571818 -42.536124 82.082266 -41.3125 80.6875 C -41.442233 80.269471 -41.589017 79.855529 -41.71875 79.4375 C -43.836464 79.10139 -46.154918 79.113256 -48.21875 79.21875 C -47.672162 80.101367 -47.140338 80.992385 -46.59375 81.875 z M -41.71875 79.4375 C -41.287642 79.505923 -40.811865 79.482188 -40.40625 79.59375 C -40.78258 79.930707 -40.998898 80.330036 -41.3125 80.6875 C -41.041254 81.561514 -40.771246 82.438488 -40.5 83.3125 C -39.12746 81.910079 -37.844804 80.747361 -36.3125 79.75 C -36.327294 79.312264 -36.360206 78.875236 -36.375 78.4375 C -38.334009 77.542761 -40.606659 76.914371 -42.625 76.5 C -42.321552 77.477779 -42.022199 78.459718 -41.71875 79.4375 z "
       style="fill:#71c837;fill-opacity:1;fill-rule:evenodd;stroke:none;stroke-width:0.53951621px;stroke-linecap:butt;stroke-linejoin:miter;stroke-opacity:1"
       id="path20952"
       d="M -36.5625,74.71875 C -36.90188,74.763869 -37.147978,75.064656 -37.125,75.40625 C -37.101861,76.090925 -37.08288,76.78028 -37.0625,77.46875 C -38.842857,76.757772 -40.76218,76.231779 -42.5,75.875 C -42.721164,75.831833 -42.948901,75.90637 -43.101743,76.071949 C -43.254585,76.237528 -43.310694,76.47049 -43.25,76.6875 C -43.043604,77.352554 -42.830784,78.019284 -42.625,78.6875 C -44.522834,78.4789 -46.476075,78.471825 -48.25,78.5625 C -48.484625,78.568124 -48.697971,78.699873 -48.808078,78.907134 C -48.918186,79.114395 -48.90793,79.364932 -48.78125,79.5625 C -48.404709,80.17053 -48.032026,80.789952 -47.65625,81.40625 C -49.60805,81.716126 -51.628754,82.199132 -53.34375,82.875 C -53.549953,82.965127 -53.694816,83.15556 -53.726642,83.378337 C -53.758467,83.601114 -53.672719,83.824492 -53.5,83.96875 C -52.955927,84.419607 -52.421195,84.889355 -51.875,85.34375 C -53.641423,86.161891 -55.391701,87.126238 -56.84375,88.21875 C -57.036304,88.350721 -57.143236,88.575866 -57.12385,88.808498 C -57.104464,89.04113 -56.961742,89.24547 -56.75,89.34375 C -56.10809,89.632224 -55.45859,89.923283 -54.8125,90.21875 C -56.265467,91.501741 -57.617447,92.9591 -58.71875,94.375 C -58.871431,94.555733 -58.913771,94.805186 -58.829275,95.026175 C -58.744779,95.247164 -58.546812,95.404735 -58.3125,95.4375 C -57.632306,95.545633 -56.956941,95.645002 -56.28125,95.75 C -57.324997,97.353009 -58.229888,99.089496 -58.9375,100.71875 C -59.029347,100.92948 -59.002971,101.17307 -58.868144,101.35926 C -58.733317,101.54545 -58.510122,101.64651 -58.28125,101.625 C -57.574581,101.55861 -56.864956,101.50217 -56.15625,101.4375 C -56.762754,103.27065 -57.236212,105.2018 -57.5,106.96875 C -57.528106,107.19476 -57.435796,107.41897 -57.256714,107.55968 C -57.077632,107.70039 -56.83794,107.73703 -56.625,107.65625 C -55.9594,107.40935 -55.293577,107.15309 -54.625,106.90625 C -54.7077,108.90455 -54.530781,110.98248 -54.1875,112.78125 C -54.139785,112.99859 -53.984143,113.17638 -53.775027,113.25242 C -53.565911,113.32846 -53.332423,113.29217 -53.15625,113.15625 C -52.614664,112.70745 -52.072234,112.26099 -51.53125,111.8125 C -51.041017,113.69329 -50.37778,115.59616 -49.59375,117.21875 C -49.49547,117.43049 -49.29113,117.57321 -49.058498,117.5926 C -48.825866,117.61199 -48.600721,117.50505 -48.46875,117.3125 C -48.067917,116.74778 -47.653219,116.19026 -47.25,115.625 C -46.295523,117.2973 -45.188584,118.91123 -44.03125,120.28125 C -43.882356,120.45218 -43.65512,120.53313 -43.43169,120.49483 C -43.20826,120.45653 -43.02096,120.30452 -42.9375,120.09375 C -42.685534,119.43622 -42.436478,118.78087 -42.1875,118.125 C -40.819155,119.50883 -39.299869,120.78474 -37.8125,121.8125 C -37.623087,121.95134 -37.373481,121.97713 -37.159681,121.87995 C -36.945881,121.78277 -36.801187,121.57775 -36.78125,121.34375 C -36.710371,120.64605 -36.633842,119.94823 -36.5625,119.25 C -34.810901,120.22337 -32.891662,121.01411 -31.125,121.5 C -30.901552,121.56537 -30.660206,121.50616 -30.492385,121.34479 C -30.324565,121.18343 -30.255938,120.94459 -30.3125,120.71875 C -30.474267,120.04313 -30.619317,119.36326 -30.78125,118.6875 C -28.877116,119.10004 -26.871245,119.38692 -25.0625,119.40625 C -24.832163,119.4051 -24.619659,119.28206 -24.503997,119.08286 C -24.388335,118.88366 -24.386814,118.63811 -24.5,118.4375 C -24.827423,117.82765 -25.171881,117.23114 -25.5,116.625 C -23.555555,116.53968 -21.543438,116.28034 -19.78125,115.84375 C -19.563141,115.78479 -19.391338,115.61673 -19.327586,115.39997 C -19.263834,115.18322 -19.317293,114.94891 -19.46875,114.78125 C -19.946085,114.26503 -20.427172,113.74186 -20.90625,113.21875 C -19.054851,112.62262 -17.202909,111.85138 -15.625,110.96875 C -15.42071,110.85839 -15.290863,110.64738 -15.284415,110.41528 C -15.277968,110.18317 -15.395902,109.96528 -15.59375,109.84375 C -16.186072,109.47455 -16.782649,109.11591 -17.375,108.75 C -15.774862,107.66517 -14.243901,106.38343 -12.96875,105.125 C -12.800841,104.9626 -12.733061,104.72255 -12.791236,104.49632 C -12.849411,104.27008 -13.02458,104.09251 -13.25,104.03125 C -13.93666,103.82739 -14.626588,103.63926 -15.3125,103.4375 C -14.07575,101.96377 -12.97301,100.35132 -12.0625,98.8125 C -11.93582,98.614932 -11.925564,98.364395 -12.035672,98.157134 C -12.145779,97.949873 -12.359125,97.818124 -12.59375,97.8125 C -13.195016,97.793927 -13.801116,97.771587 -14.40625,97.75 C -13.702663,96.233963 -13.024228,94.680429 -12.59375,93.1875 C -12.528378,92.964052 -12.58759,92.722706 -12.748956,92.554885 C -12.910321,92.387065 -13.149161,92.318438 -13.375,92.375 C -14.056055,92.529213 -14.730189,92.688239 -15.40625,92.84375 C -15.020487,90.946514 -14.805708,88.955492 -14.78125,87.15625 C -14.782398,86.925913 -14.905444,86.713409 -15.10464,86.597747 C -15.303835,86.482085 -15.549387,86.480564 -15.75,86.59375 C -16.371116,86.924899 -16.997111,87.262533 -17.625,87.59375 C -17.795091,85.591812 -18.20146,83.52434 -18.78125,81.78125 C -18.857702,81.565751 -19.041828,81.406321 -19.266045,81.361477 C -19.490263,81.316634 -19.721545,81.392982 -19.875,81.5625 C -20.339065,82.064374 -20.813415,82.560797 -21.28125,83.0625 C -21.990964,81.262597 -22.896122,79.480359 -23.875,77.96875 C -23.999678,77.785694 -24.209034,77.67878 -24.430426,77.685105 C -24.651817,77.69143 -24.854727,77.810124 -24.96875,78 C -25.298361,78.61393 -25.63555,79.228146 -25.96875,79.84375 C -27.120877,78.269096 -28.437658,76.754173 -29.78125,75.53125 C -29.948906,75.379793 -30.183218,75.326334 -30.399975,75.390086 C -30.616731,75.453838 -30.78479,75.625641 -30.84375,75.84375 C -31.008381,76.531337 -31.178873,77.218194 -31.34375,77.90625 C -32.876939,76.706347 -34.581491,75.596298 -36.1875,74.78125 C -36.30347,74.723485 -36.434064,74.701719 -36.5625,74.71875 z M -36.9375,81.03125 C -36.920378,81.531383 -36.891896,82.031299 -36.875,82.53125 C -36.863225,82.75598 -36.735971,82.958605 -36.538655,83.066811 C -36.341338,83.175017 -36.102073,83.173386 -35.90625,83.0625 C -34.605421,82.302021 -33.382323,81.745099 -32.125,81.28125 C -32.248267,81.781377 -32.37928,82.277054 -32.5,82.78125 C -32.55162,83.000288 -32.486192,83.230439 -32.327065,83.389565 C -32.167939,83.548692 -31.937788,83.61412 -31.71875,83.5625 C -30.257092,83.173293 -28.944039,83.0022 -27.59375,82.90625 C -27.841485,83.365692 -28.096391,83.820524 -28.34375,84.28125 C -28.456936,84.481863 -28.455415,84.727415 -28.339753,84.92661 C -28.224091,85.125806 -28.011587,85.248852 -27.78125,85.25 C -26.271639,85.24619 -24.968839,85.384466 -23.65625,85.625 C -24.010958,86.009579 -24.363336,86.39688 -24.71875,86.78125 C -24.870207,86.948906 -24.923666,87.183218 -24.859914,87.399975 C -24.796162,87.616731 -24.624359,87.78479 -24.40625,87.84375 C -22.997251,88.205071 -21.847898,88.665975 -20.71875,89.21875 C -21.167756,89.457133 -21.614384,89.698586 -22.0625,89.9375 C -22.252376,90.051523 -22.37107,90.254433 -22.377395,90.475824 C -22.38372,90.697216 -22.276806,90.906572 -22.09375,91.03125 C -20.832441,91.868 -19.80149,92.710533 -18.8125,93.625 C -19.311887,93.742606 -19.815493,93.856211 -20.3125,93.96875 C -20.53592,94.019517 -20.716071,94.184231 -20.786598,94.402222 C -20.857124,94.620213 -20.807594,94.859235 -20.65625,95.03125 C -19.888952,95.909763 -19.337076,96.7636 -18.75,97.625 C -19.072559,97.61702 -19.398016,97.603656 -19.71875,97.59375 C -19.950888,97.578186 -20.173622,97.687964 -20.302678,97.881548 C -20.431734,98.075132 -20.4474,98.322955 -20.34375,98.53125 C -19.659555,99.897182 -19.103255,101.14925 -18.65625,102.4375 C -19.137363,102.29664 -19.615941,102.14185 -20.09375,102 C -20.31076,101.93931 -20.543722,101.99542 -20.709301,102.14826 C -20.87488,102.3011 -20.949417,102.52884 -20.90625,102.75 C -20.598684,104.21706 -20.443455,105.54466 -20.375,106.875 C -20.80351,106.60577 -21.226536,106.33034 -21.65625,106.0625 C -21.853818,105.93582 -22.104355,105.92556 -22.311616,106.03567 C -22.518877,106.14578 -22.650626,106.35912 -22.65625,106.59375 C -22.748994,108.08445 -22.941956,109.36934 -23.25,110.65625 C -23.599945,110.27683 -23.962561,109.9097 -24.3125,109.53125 C -24.465955,109.36173 -24.697237,109.28538 -24.921455,109.33023 C -25.145672,109.37507 -25.329798,109.5345 -25.40625,109.75 C -25.893257,111.17519 -26.461063,112.3858 -27.125,113.5625 C -27.377204,113.09476 -27.62416,112.62346 -27.875,112.15625 C -27.989023,111.96637 -28.191933,111.84768 -28.413324,111.84136 C -28.634716,111.83503 -28.844072,111.94194 -28.96875,112.125 C -29.800468,113.38667 -30.66368,114.38282 -31.59375,115.34375 C -31.719946,114.8229 -31.844397,114.30062 -31.96875,113.78125 C -32.02771,113.56314 -32.195769,113.39134 -32.412525,113.32759 C -32.629282,113.26383 -32.863594,113.31729 -33.03125,113.46875 C -34.113089,114.4374 -35.131445,115.09942 -36.21875,115.71875 C -36.168497,115.229 -36.112306,114.74027 -36.0625,114.25 C -36.04099,114.02113 -36.142051,113.79793 -36.328241,113.66311 C -36.51443,113.52828 -36.758016,113.5019 -36.96875,113.59375 C -38.362671,114.17326 -39.624402,114.56911 -40.9375,114.875 C -40.7492,114.39663 -40.56065,113.92197 -40.375,113.4375 C -40.29422,113.22456 -40.330862,112.98487 -40.471569,112.80579 C -40.612276,112.6267 -40.836494,112.53439 -41.0625,112.5625 C -42.544931,112.75526 -43.842795,112.73438 -45.1875,112.6875 C -44.907046,112.29116 -44.624518,111.89556 -44.34375,111.5 C -44.206466,111.31504 -44.177401,111.07121 -44.26736,110.85916 C -44.357319,110.64712 -44.552848,110.49857 -44.78125,110.46875 C -46.269219,110.28627 -47.569118,110.01956 -48.84375,109.625 C -48.444147,109.29689 -48.056613,108.95677 -47.65625,108.625 C -47.483531,108.48074 -47.397783,108.25736 -47.429608,108.03459 C -47.461434,107.81181 -47.606297,107.62138 -47.8125,107.53125 C -49.180166,106.97932 -50.304997,106.38853 -51.375,105.6875 C -50.895397,105.51095 -50.416915,105.33409 -49.9375,105.15625 C -49.722001,105.0798 -49.562571,104.89567 -49.517727,104.67145 C -49.472884,104.44724 -49.549232,104.21595 -49.71875,104.0625 C -50.854422,103.06576 -51.807986,102.1255 -52.6875,101.09375 C -52.188167,101.0491 -51.689558,101.01592 -51.1875,100.96875 C -50.953498,100.94881 -50.74848,100.80412 -50.651298,100.59032 C -50.554116,100.37652 -50.579907,100.12691 -50.71875,99.9375 C -51.560056,98.678044 -52.227273,97.509129 -52.8125,96.28125 C -52.302251,96.362455 -51.793096,96.449879 -51.28125,96.53125 C -51.050157,96.572198 -50.814947,96.485304 -50.665978,96.303951 C -50.517009,96.122598 -50.477451,95.87499 -50.5625,95.65625 C -51.060133,94.238609 -51.398433,92.973125 -51.625,91.65625 C -51.165871,91.862991 -50.709337,92.074824 -50.25,92.28125 C -50.036445,92.388912 -49.781005,92.370519 -49.585078,92.23337 C -49.389152,92.096222 -49.284437,91.862506 -49.3125,91.625 C -49.42144,90.133064 -49.377899,88.848873 -49.21875,87.53125 C -48.811934,87.865303 -48.401944,88.198168 -48,88.53125 C -47.823827,88.667173 -47.590339,88.70346 -47.381223,88.627418 C -47.172107,88.551376 -47.016465,88.373587 -46.96875,88.15625 C -46.689595,86.755677 -46.263902,85.577446 -45.78125,84.40625 C -45.529076,84.811164 -45.281835,85.220361 -45.03125,85.625 C -44.90972,85.822848 -44.691826,85.940782 -44.459723,85.934335 C -44.22762,85.927887 -44.016609,85.79804 -43.90625,85.59375 C -43.159012,84.291914 -42.361684,83.233811 -41.53125,82.15625 C -41.392999,82.603497 -41.263717,83.053023 -41.125,83.5 C -41.063743,83.72542 -40.886167,83.900589 -40.659932,83.958764 C -40.433697,84.016939 -40.193648,83.949159 -40.03125,83.78125 C -38.993489,82.720896 -37.99835,81.829713 -36.9375,81.03125 z"
       transform="matrix(0.6049329,-0.3492582,0.3492582,0.6049329,163.62226,-127.68943)" />
    <path
       transform="matrix(0.9741798,0,0,0.9741798,-168.88672,-171.9681)"
       d="M 211.62696,193.47998 A 9.8489876,9.8489876 0 1 1 191.92898,193.47998 A 9.8489876,9.8489876 0 1 1 211.62696,193.47998 z"
       sodipodi:ry="9.8489876"
       sodipodi:rx="9.8489876"
       sodipodi:cy="193.47998"
       sodipodi:cx="201.77797"
       id="path15595"
       style="opacity:1;fill:url(#radialGradient20956);fill-opacity:1;fill-rule:nonzero;stroke:none;stroke-width:1.39999998;stroke-linecap:butt;stroke-linejoin:miter;stroke-miterlimit:4;stroke-dasharray:none;stroke-dashoffset:0;stroke-opacity:1"
       sodipodi:type="arc" />
    <path
       sodipodi:type="arc"
       style="opacity:1;fill:url(#radialGradient20954);fill-opacity:1;fill-rule:nonzero;stroke:none;stroke-width:1.39999998;stroke-linecap:butt;stroke-linejoin:miter;stroke-miterlimit:4;stroke-dasharray:none;stroke-dashoffset:0;stroke-opacity:1"
       id="path15597"
       sodipodi:cx="201.77797"
       sodipodi:cy="193.47998"
       sodipodi:rx="9.8489876"
       sodipodi:ry="9.8489876"
       d="M 211.62696,193.47998 A 9.8489876,9.8489876 0 1 1 191.92898,193.47998 A 9.8489876,9.8489876 0 1 1 211.62696,193.47998 z"
       transform="matrix(0.9741798,0,0,0.9741798,-181.33219,-161.94064)" />
    <g
       id="g2684"
       transform="matrix(1.3164266,0,0,1.3164266,149.34792,-98.780177)">
      <rect
         ry="1.0945482"
         y="94.161995"
         x="-35.47953"
         height="9.3439999"
         width="9.3439999"
         id="rect2686"
         style="fill:url(#radialGradient2760);fill-opacity:1;fill-rule:nonzero;stroke:#d0be00;stroke-width:0.40000001;stroke-linecap:butt;stroke-linejoin:miter;stroke-miterlimit:4;stroke-dasharray:none;stroke-dashoffset:0;stroke-opacity:1" />
    </g>
    <path
       style="font-size:7.38652611px;font-style:normal;font-variant:normal;font-weight:bold;font-stretch:normal;text-align:start;line-height:125%;writing-mode:lr-tb;text-anchor:start;fill:#000000;fill-opacity:1;stroke:none;stroke-width:1px;stroke-linecap:butt;stroke-linejoin:miter;stroke-opacity:1;font-family:Bitstream Vera Sans;-inkscape-font-specification:Bitstream Vera Sans Bold"
       d="M 105.96511,27.600939 L 105.96511,34.711 L 107.78754,34.711 L 107.78754,32.015851 L 108.3009,32.015851 C 108.59844,32.015864 108.84235,32.091423 109.01961,32.221195 C 109.20003,32.350968 109.38454,32.585388 109.55864,32.939902 L 110.40569,34.711 L 112.35646,34.711 L 111.35541,32.683221 C 111.15282,32.274905 110.96445,31.984264 110.76504,31.784838 C 110.56879,31.582266 110.34772,31.456805 110.09767,31.399817 C 110.55347,31.257393 110.89966,31.033145 111.12439,30.732446 C 111.35229,30.431735 111.45807,30.045846 111.45808,29.577382 C 111.45807,28.900002 111.22751,28.402009 110.79071,28.088633 C 110.35705,27.775271 109.67102,27.600939 108.73726,27.600939 L 105.96511,27.600939 z M 107.78754,28.93568 L 108.55758,28.93568 C 108.94058,28.93568 109.21437,29.00176 109.37896,29.141025 C 109.54672,29.280303 109.63564,29.51121 109.63564,29.834063 C 109.63564,30.16009 109.54672,30.410333 109.37896,30.55277 C 109.21437,30.695207 108.94058,30.758127 108.55758,30.758114 L 107.78754,30.758114 L 107.78754,28.93568 z"
       id="path2645" />
    <g
       id="g2710"
       transform="matrix(1.1257808,0,0,1.1257808,8.3148142,7.159276)">
      <g
         id="g21000"
         transform="matrix(1.6027032,0,0,1.6027032,74.828368,-139.0638)">
        <rect
           ry="1.0945482"
           y="94.161995"
           x="-35.47953"
           height="9.3439999"
           width="9.3439999"
           id="rect15601"
           style="fill:url(#radialGradient2715);fill-opacity:1;fill-rule:nonzero;stroke:#d0be00;stroke-width:0.40000001;stroke-linecap:butt;stroke-linejoin:miter;stroke-miterlimit:4;stroke-dasharray:none;stroke-dashoffset:0;stroke-opacity:1" />
      </g>
      <path
         id="path2659"
         d="M 22.658983,15.205062 L 28.664894,15.205062 L 28.664894,16.887179 L 24.884465,16.887179 L 24.884465,18.494145 L 28.439456,18.494145 L 28.439456,20.176262 L 24.884465,20.176262 L 24.884465,23.835298 L 22.658983,23.835298 L 22.658983,15.205062"
         style="font-size:7.38652611px;font-style:normal;font-variant:normal;font-weight:bold;font-stretch:normal;text-align:start;line-height:125%;writing-mode:lr-tb;text-anchor:start;fill:#000000;fill-opacity:1;stroke:none;stroke-width:1px;stroke-linecap:butt;stroke-linejoin:miter;stroke-opacity:1;font-family:Bitstream Vera Sans;-inkscape-font-specification:Bitstream Vera Sans Bold" />
    </g>
    <g
       transform="matrix(1.3164266,0,0,1.3164266,93.779779,-98.780095)"
       id="g2564">
      <rect
         style="fill:url(#radialGradient2752);fill-opacity:1;fill-rule:nonzero;stroke:#d0be00;stroke-width:0.40000001;stroke-linecap:butt;stroke-linejoin:miter;stroke-miterlimit:4;stroke-dasharray:none;stroke-dashoffset:0;stroke-opacity:1"
         id="rect2566"
         width="9.3439999"
         height="9.3439999"
         x="-35.47953"
         y="94.161995"
         ry="1.0945482" />
    </g>
    <path
       style="font-size:7.38652611px;font-style:normal;font-variant:normal;font-weight:bold;font-stretch:normal;text-align:start;line-height:125%;writing-mode:lr-tb;text-anchor:start;fill:#000000;fill-opacity:1;stroke:none;stroke-width:1px;stroke-linecap:butt;stroke-linejoin:miter;stroke-opacity:1;font-family:Bitstream Vera Sans;-inkscape-font-specification:Bitstream Vera Sans Bold"
       d="M 52.226171,27.622306 L 54.054135,27.622306 L 54.054135,34.711 L 52.226171,34.711 L 52.226171,27.622306"
       id="path2657" />
    <g
       id="g2696"
       transform="matrix(1.3164266,0,0,1.3164266,135.50786,-98.780093)">
      <rect
         ry="1.0945482"
         y="94.161995"
         x="-35.47953"
         height="9.3439999"
         width="9.3439999"
         id="rect2698"
         style="fill:url(#radialGradient2758);fill-opacity:1;fill-rule:nonzero;stroke:#d0be00;stroke-width:0.40000001;stroke-linecap:butt;stroke-linejoin:miter;stroke-miterlimit:4;stroke-dasharray:none;stroke-dashoffset:0;stroke-opacity:1" />
    </g>
    <path
       style="font-size:7.38652611px;font-style:normal;font-variant:normal;font-weight:bold;font-stretch:normal;text-align:start;line-height:125%;writing-mode:lr-tb;text-anchor:start;fill:#000000;fill-opacity:1;stroke:none;stroke-width:1px;stroke-linecap:butt;stroke-linejoin:miter;stroke-opacity:1;font-family:Bitstream Vera Sans;-inkscape-font-specification:Bitstream Vera Sans Bold"
       d="M 91.799638,27.622306 L 98.332828,27.622306 L 98.332828,29.003962 L 95.982592,29.003962 L 95.982592,34.711 L 94.15463,34.711 L 94.15463,29.003962 L 91.799638,29.003962 L 91.799638,27.622306"
       id="path2649" />
    <g
       transform="matrix(1.3164266,0,0,1.3164266,163.38821,-98.780177)"
       id="g2690">
      <rect
         style="fill:url(#radialGradient2764);fill-opacity:1;fill-rule:nonzero;stroke:#d0be00;stroke-width:0.40000001;stroke-linecap:butt;stroke-linejoin:miter;stroke-miterlimit:4;stroke-dasharray:none;stroke-dashoffset:0;stroke-opacity:1"
         id="rect2692"
         width="9.3439999"
         height="9.3439999"
         x="-35.47953"
         y="94.161995"
         ry="1.0945482" />
    </g>
    <path
       style="font-size:7.38652611px;font-style:normal;font-variant:normal;font-weight:bold;font-stretch:normal;text-align:start;line-height:125%;writing-mode:lr-tb;text-anchor:start;fill:#000000;fill-opacity:1;stroke:none;stroke-width:1px;stroke-linecap:butt;stroke-linejoin:miter;stroke-opacity:1;font-family:Bitstream Vera Sans;-inkscape-font-specification:Bitstream Vera Sans Bold"
       d="M 122.01155,27.600939 L 119.36774,34.711 L 121.21584,34.711 L 121.6522,33.401928 L 124.52702,33.401928 L 124.96338,34.711 L 126.81148,34.711 L 124.16767,27.600939 L 122.01155,27.600939 z M 123.08961,29.269365 L 124.065,32.092855 L 122.11422,32.092855 L 123.08961,29.269365 z"
       id="path2643" />
    <g
       transform="matrix(1.3164266,0,0,1.3164266,177.23005,-98.780177)"
       id="g2702">
      <rect
         style="fill:url(#radialGradient2762);fill-opacity:1;fill-rule:nonzero;stroke:#d0be00;stroke-width:0.40000001;stroke-linecap:butt;stroke-linejoin:miter;stroke-miterlimit:4;stroke-dasharray:none;stroke-dashoffset:0;stroke-opacity:1"
         id="rect2704"
         width="9.3439999"
         height="9.3439999"
         x="-35.47953"
         y="94.161995"
         ry="1.0945482" />
    </g>
    <path
       style="font-size:7.38652611px;font-style:normal;font-variant:normal;font-weight:bold;font-stretch:normal;text-align:start;line-height:125%;writing-mode:lr-tb;text-anchor:start;fill:#000000;fill-opacity:1;stroke:none;stroke-width:1px;stroke-linecap:butt;stroke-linejoin:miter;stroke-opacity:1;font-family:Bitstream Vera Sans;-inkscape-font-specification:Bitstream Vera Sans Bold"
       d="M 133.13012,27.622151 L 135.12901,27.622151 L 136.74331,30.148058 L 138.35762,27.622151 L 140.36126,27.622151 L 137.65967,31.724386 L 137.65967,34.710845 L 135.8317,34.710845 L 135.8317,31.724386 L 133.13012,27.622151"
       id="text2572" />
    <g
       id="g2672"
       transform="matrix(1.3164266,0,0,1.3164266,107.75288,-98.780095)">
      <rect
         ry="1.0945482"
         y="94.161995"
         x="-35.47953"
         height="9.3439999"
         width="9.3439999"
         id="rect2674"
         style="fill:url(#radialGradient2754);fill-opacity:1;fill-rule:nonzero;stroke:#d0be00;stroke-width:0.40000001;stroke-linecap:butt;stroke-linejoin:miter;stroke-miterlimit:4;stroke-dasharray:none;stroke-dashoffset:0;stroke-opacity:1" />
    </g>
    <path
       style="font-size:7.38652611px;font-style:normal;font-variant:normal;font-weight:bold;font-stretch:normal;text-align:start;line-height:125%;writing-mode:lr-tb;text-anchor:start;fill:#000000;fill-opacity:1;stroke:none;stroke-width:1px;stroke-linecap:butt;stroke-linejoin:miter;stroke-opacity:1;font-family:Bitstream Vera Sans;-inkscape-font-specification:Bitstream Vera Sans Bold"
       d="M 64.451247,27.600939 L 64.451247,34.711 L 66.273681,34.711 L 66.273681,32.01585 L 66.787043,32.01585 C 67.084579,32.015863 67.328487,32.091422 67.505749,32.221195 C 67.686167,32.350968 67.870686,32.585388 68.044779,32.939901 L 68.891826,34.711 L 70.842601,34.711 L 69.867214,32.683221 C 69.664629,32.274905 69.450587,31.984263 69.25118,31.784837 C 69.054925,31.582266 68.833863,31.456804 68.583809,31.399816 C 69.039607,31.257392 69.385787,31.033144 69.610533,30.732446 C 69.838429,30.431735 69.944211,30.045845 69.944218,29.577382 C 69.944211,28.900001 69.739323,28.402008 69.302516,28.088632 C 68.868864,27.775271 68.182828,27.600939 67.249069,27.600939 L 64.451247,27.600939 z M 66.273681,28.935679 L 67.043724,28.935679 C 67.426721,28.935679 67.700502,29.001759 67.865103,29.141024 C 68.03286,29.280302 68.121777,29.51121 68.121784,29.834063 C 68.12178,30.160089 68.032859,30.410332 67.865103,30.552769 C 67.700503,30.695207 67.42672,30.758127 67.043724,30.758114 L 66.273681,30.758114 L 66.273681,28.935679 z"
       id="path2653" />
    <g
       transform="matrix(1.3164266,0,0,1.3164266,121.74265,-98.78009)"
       id="g2678">
      <rect
         style="fill:url(#radialGradient2756);fill-opacity:1;fill-rule:nonzero;stroke:#d0be00;stroke-width:0.40000001;stroke-linecap:butt;stroke-linejoin:miter;stroke-miterlimit:4;stroke-dasharray:none;stroke-dashoffset:0;stroke-opacity:1"
         id="rect2680"
         width="9.3439999"
         height="9.3439999"
         x="-35.47953"
         y="94.161995"
         ry="1.0945482" />
    </g>
    <path
       style="font-size:7.38652611px;font-style:normal;font-variant:normal;font-weight:bold;font-stretch:normal;text-align:start;line-height:125%;writing-mode:lr-tb;text-anchor:start;fill:#000000;fill-opacity:1;stroke:none;stroke-width:1px;stroke-linecap:butt;stroke-linejoin:miter;stroke-opacity:1;font-family:Bitstream Vera Sans;-inkscape-font-specification:Bitstream Vera Sans Bold"
       d="M 78.870172,27.622234 L 83.8033,27.622234 L 83.8033,29.003889 L 80.698134,29.003889 L 80.698134,30.323817 L 83.618136,30.323817 L 83.618136,31.705473 L 80.698134,31.705473 L 80.698134,33.329272 L 83.907754,33.329272 L 83.907754,34.710928 L 78.870172,34.710928 L 78.870172,27.622234"
       id="path2651" />
  </g>
</svg>
