/* XPM */
static const char * newmail_xpm[] = {
"32 32 355 2",
"  	c None",
". 	c #868686",
"+ 	c #282828",
"@ 	c #E4E5E4",
"# 	c #E6E6E6",
"$ 	c #E8E8E8",
"% 	c #E7E8E7",
"& 	c #E6E7E6",
"* 	c #E3E3E2",
"= 	c #E0E0E0",
"- 	c #DEDDDE",
"; 	c #DBDBDB",
"> 	c #D8D7D8",
", 	c #D5D5D5",
"' 	c #D2D2D2",
") 	c #D0CFCF",
"! 	c #CCCCCC",
"~ 	c #C9C9C9",
"{ 	c #C6C6C6",
"] 	c #C4C4C4",
"^ 	c #C1C1C0",
"/ 	c #BDBDBD",
"( 	c #BABBBA",
"_ 	c #B7B7B8",
": 	c #B5B4B4",
"< 	c #B1B1B2",
"[ 	c #AEAFAE",
"} 	c #E4E4E3",
"| 	c #E8E9E9",
"1 	c #EAEAEB",
"2 	c #EBEBEB",
"3 	c #EAEBEA",
"4 	c #E9E9E9",
"5 	c #E7E7E7",
"6 	c #E4E4E4",
"7 	c #E2E1E1",
"8 	c #DFDEDF",
"9 	c #DCDBDC",
"0 	c #D9D9D9",
"a 	c #D6D6D6",
"b 	c #D3D3D3",
"c 	c #D0D0D0",
"d 	c #CDCDCD",
"e 	c #CACACA",
"f 	c #C7C7C6",
"g 	c #BEBEBE",
"h 	c #BBBABB",
"i 	c #B8B8B8",
"j 	c #B5B5B5",
"k 	c #B2B2B2",
"l 	c #AFAFAE",
"m 	c #ABACAC",
"n 	c #E5E5E5",
"o 	c #EAEBEB",
"p 	c #EDEDED",
"q 	c #EEEEEE",
"r 	c #EDEEED",
"s 	c #E6E5E5",
"t 	c #E0E0DF",
"u 	c #DCDDDD",
"v 	c #D9D9DA",
"w 	c #D7D7D7",
"x 	c #D4D3D4",
"y 	c #D1D0D0",
"z 	c #CBCACB",
"A 	c #C7C8C7",
"B 	c #C1C1C1",
"C 	c #BBBBBB",
"D 	c #AFAFAF",
"E 	c #ACACAC",
"F 	c #E5E6E6",
"G 	c #ECECEC",
"H 	c #EEEFEF",
"I 	c #F1F1F1",
"J 	c #EFEFEF",
"K 	c #EAE9EA",
"L 	c #E3E3E3",
"M 	c #DDDDDD",
"N 	c #DADADA",
"O 	c #D7D6D7",
"P 	c #D3D4D4",
"Q 	c #D1D1D1",
"R 	c #CECDCE",
"S 	c #CBCBCB",
"T 	c #C7C7C7",
"U 	c #C1C2C1",
"V 	c #B9B8B8",
"W 	c #EBECEB",
"X 	c #F0F0F0",
"Y 	c #EEEFEE",
"Z 	c #ECEBEC",
"` 	c #DAD9D9",
" .	c #D4D4D4",
"..	c #D0D1D1",
"+.	c #CDCDCE",
"@.	c #C7C7C8",
"#.	c #C4C5C5",
"$.	c #C1C1C2",
"%.	c #BEBEBF",
"&.	c #B8B9B8",
"*.	c #B3B2B2",
"=.	c #EAEAEA",
"-.	c #EBEBEA",
";.	c #E8E7E8",
">.	c #E3E2E2",
",.	c #DFDFDF",
"'.	c #DCDDDC",
").	c #D0D0D1",
"!.	c #CBCBCA",
"~.	c #BFBEBE",
"{.	c #E5E6E5",
"].	c #EAEAE9",
"^.	c #E9EAE9",
"/.	c #E6E5E6",
"(.	c #E1E1E0",
"_.	c #DEDEDE",
":.	c #DBDCDB",
"<.	c #D8D9D8",
"[.	c #D2D3D2",
"}.	c #CCCDCD",
"|.	c #C9C9CA",
"1.	c #C4C3C4",
"2.	c #BDBEBE",
"3.	c #BABBBB",
"4.	c #B4B4B4",
"5.	c #B1B2B2",
"6.	c #AFAEAE",
"7.	c #ACABAC",
"8.	c #E1E1E1",
"9.	c #E5E5E6",
"0.	c #E3E3E4",
"a.	c #E2E2E1",
"b.	c #DFE0DF",
"c.	c #DDDCDC",
"d.	c #D5D4D5",
"e.	c #D2D2D1",
"f.	c #CFCFCF",
"g.	c #C3C3C3",
"h.	c #C0C0C1",
"i.	c #B7B7B7",
"j.	c #B1B1B1",
"k.	c #ABABAB",
"l.	c #DEDFDF",
"m.	c #E0E1E1",
"n.	c #E2E2E2",
"o.	c #E3E4E4",
"p.	c #D9D8D9",
"q.	c #D5D6D6",
"r.	c #D3D4D3",
"s.	c #CACBCB",
"t.	c #C8C8C8",
"u.	c #C5C6C5",
"v.	c #C3C2C2",
"w.	c #C0BFBF",
"x.	c #BDBCBC",
"y.	c #B9B9BA",
"z.	c #B6B7B6",
"A.	c #B3B4B3",
"B.	c #B0B0B0",
"C.	c #AEADAD",
"D.	c #AAAAAB",
"E.	c #DEDEDF",
"F.	c #E0E1E0",
"G.	c #E0E0E1",
"H.	c #DEDFDE",
"I.	c #D6D7D6",
"J.	c #D2D1D2",
"K.	c #CAC9CA",
"L.	c #B6B6B6",
"M.	c #B3B3B3",
"N.	c #B0AFB0",
"O.	c #ACADAD",
"P.	c #AAAAAA",
"Q.	c #DBDBDC",
"R.	c #DCDCDC",
"S.	c #DEDDDD",
"T.	c #DCDCDD",
"U.	c #DBDADB",
"V.	c #D9D8D8",
"W.	c #D7D7D6",
"X.	c #D0CFD0",
"Y.	c #CECECE",
"Z.	c #C8C8C9",
"`.	c #C0C0C0",
" +	c #B5B5B4",
".+	c #A9A9A9",
"++	c #D7D7D8",
"@+	c #DBDBDA",
"#+	c #DADAD9",
"$+	c #D9D9D8",
"%+	c #D4D5D5",
"&+	c #D3D2D2",
"*+	c #CBCCCC",
"=+	c #C6C7C6",
"-+	c #C2C1C1",
";+	c #BFBFBF",
">+	c #BCBCBC",
",+	c #B4B3B4",
"'+	c #B0B1B1",
")+	c #AEAEAE",
"!+	c #A8A8A8",
"~+	c #D6D5D6",
"{+	c #D7D6D6",
"]+	c #D7D8D7",
"^+	c #D6D7D7",
"/+	c #CAC9C9",
"(+	c #C5C5C5",
"_+	c #C2C3C2",
":+	c #BBBBBA",
"<+	c #B2B3B3",
"[+	c #B0AFAF",
"}+	c #ADADAD",
"|+	c #A7A7A7",
"1+	c #D4D5D4",
"2+	c #D4D4D5",
"3+	c #CDCECD",
"4+	c #CACAC9",
"5+	c #C8C7C7",
"6+	c #C6C5C5",
"7+	c #C3C3C4",
"8+	c #BCBBBC",
"9+	c #B9B9B9",
"0+	c #B6B6B7",
"a+	c #B4B4B3",
"b+	c #AEAEAF",
"c+	c #A9A9A8",
"d+	c #A6A6A6",
"e+	c #D1D1D0",
"f+	c #D2D1D1",
"g+	c #CCCDCC",
"h+	c #BAB9BA",
"i+	c #B7B8B8",
"j+	c #A8A7A8",
"k+	c #A5A5A5",
"l+	c #CECECD",
"m+	c #CDCCCC",
"n+	c #CCCBCB",
"o+	c #C8C9C9",
"p+	c #BABABA",
"q+	c #B1B0B1",
"r+	c #ACABAB",
"s+	c #A3A3A3",
"t+	c #C8C9C8",
"u+	c #C6C5C6",
"v+	c #BCBDBD",
"w+	c #BABABB",
"x+	c #B8B9B9",
"y+	c #B3B4B4",
"z+	c #B2B2B1",
"A+	c #ACACAD",
"B+	c #AAAAA9",
"C+	c #A8A7A7",
"D+	c #A4A4A5",
"E+	c #A2A2A2",
"F+	c #C8C8C7",
"G+	c #C7C6C6",
"H+	c #C5C6C6",
"I+	c #C2C2C2",
"J+	c #BFBEBF",
"K+	c #BCBCBD",
"L+	c #ABAAAB",
"M+	c #A8A8A9",
"N+	c #A6A5A6",
"O+	c #A1A1A1",
"P+	c #C4C4C5",
"Q+	c #C4C5C4",
"R+	c #C5C4C5",
"S+	c #C1C0C0",
"T+	c #BFBFBE",
"U+	c #BBBBBC",
"V+	c #ADAEAD",
"W+	c #A9A8A9",
"X+	c #A7A6A7",
"Y+	c #A4A4A4",
"Z+	c #9F9F9F",
"`+	c #C0C1C1",
" @	c #C1C2C2",
".@	c #C1C0C1",
"+@	c #B9BAB9",
"@@	c #B7B8B7",
"#@	c #B5B5B6",
"$@	c #B1B2B1",
"%@	c #AFB0AF",
"&@	c #AEAEAD",
"*@	c #ACACAB",
"=@	c #A0A0A0",
"-@	c #9D9D9D",
";@	c #BEBFBF",
">@	c #ADAEAE",
",@	c #ABACAB",
"'@	c #A3A2A3",
")@	c #A1A0A0",
"!@	c #9D9E9D",
"~@	c #9B9B9B",
"{@	c #BCBBBB",
"]@	c #BABAB9",
"^@	c #B8B8B7",
"/@	c #B6B5B6",
"(@	c #AAA9AA",
"_@	c #A7A8A7",
":@	c #A2A3A3",
"<@	c #A1A1A0",
"[@	c #9E9E9E",
"}@	c #9C9C9C",
"|@	c #9A9999",
"1@	c #B8B8B9",
"2@	c #B8B7B8",
"3@	c #9E9F9F",
"4@	c #9A9A9A",
"5@	c #989898",
"6@	c #B5B6B5",
"7@	c #B5B6B6",
"8@	c #B6B6B5",
"9@	c #B2B1B1",
"0@	c #AFAEAF",
"a@	c #A4A5A5",
"b@	c #9D9C9C",
"c@	c #969695",
"d@	c #B2B3B2",
"e@	c #B2B2B3",
"f@	c #B2B1B2",
"g@	c #ABABAA",
"h@	c #A6A6A5",
"i@	c #A2A2A3",
"j@	c #969696",
"k@	c #939394",
"l@	c #B0B0AF",
"m@	c #ADADAC",
"n@	c #A9AAA9",
"o@	c #A4A4A3",
"p@	c #A1A1A2",
"q@	c #9FA09F",
"r@	c #949494",
"s@	c #929192",
"t@	c #ADACAC",
"u@	c #ACADAC",
"v@	c #ADACAD",
"w@	c #ABAAAA",
"x@	c #A8A8A7",
"y@	c #A0A0A1",
"z@	c #9C9B9C",
"A@	c #99999A",
"B@	c #949493",
"C@	c #919292",
"D@	c #909090",
"E@	c #A9A9AA",
"F@	c #A7A7A8",
"G@	c #A7A6A6",
"H@	c #A5A4A5",
"I@	c #9A9A9B",
"J@	c #999999",
"K@	c #959596",
"L@	c #939393",
"M@	c #919291",
"N@	c #8F8F8F",
"  . . . . . . . . . . . . . . . . . . . . . . . . . . . . . .   ",
". . + + + + + + + + + + + + + + + + + + + + + + + + + + + + . + ",
". + @ @ # $ $ % & @ * = - ; > , ' ) ! ~ { ] ^ / ( _ : < [ . . + ",
". + } & | 1 2 3 4 5 6 7 8 9 0 a b c d e f ] ^ g h i j k l m . + ",
". + n $ o p q r 2 $ s * t u v w x y d z A ] B g C i j k D E . + ",
". + F | G H I J G K # L = M N O P Q R S T ] U g C V j k D E . + ",
". + s $ W q X Y Z 4 F L = M ` O  ...+.e @.#.$.%.C &.j *.D E . + ",
". + @ % =.G p G -.;.n >.,.'.0 a b ).d !.T ] B ~.C i j k l E . + ",
". + L {.% 4 ].^.$ /.L (._.:.<., [.) }.|.f 1.^ 2.3.i 4.5.6.7.. + ",
". + 8.L n # 5 & 9.0.a.b.c.N w d.e.f.! ~ { g.h./ ( i.4.j.6.k.. + ",
". + l.m.n.L o.o.>.8.b.M ; p.q.r.c +.s.t.u.v.w.x.y.z.A.B.C.D.. + ",
". + c.E.t = F.G.= H.u ; 0 I. .J.f.! K.T ] B %.C V L.M.N.O.P.. + ",
". + N Q.R.S.- M T.R.U.V.W., [.X.Y.S Z.{ g.`./ ( i  +k D E .+. + ",
". + ++V.` N @+N #+$+++a %+&+c Y.*+~ =+] -+;+>+y.z.,+'+)+k.!+. + ",
". + , ~+{+]+]+w ^+a , r.' c Y.! /+@.(+_+`./ :+i j <+[+}+P.|+. + ",
". + J.b  .%+1+2+r.b ' y ) 3+*+4+5+6+7+^ g 8+9+0+a+j.b+7.c+d+. + ",
". + f.c e+Q Q f+e+c f.Y.g+S ~ T (+7+B ;+/ h+i+j k B.}+D.j+k+. + ",
". + ! d +.Y.Y.Y.l+d m+n+e o+T (+g.B ;+/ p+i L.M.q+)+r+.+d+s+. + ",
". + ~ e !.S S n+s.e /+t+T u+] _+h.;+v+w+x+L.y+z+D A+B+C+D+E+. + ",
". + =+T t.t.t.t.F+T G+H+] g.I+`.J+K+:+9+L.4.< N.}+L+M+N+s+O+. + ",
". + g.P+(+#.(+(+Q+R+] _+U S+T+/ U+p+&.0+4.k B.V+k.W+X+Y+O+Z+. + ",
". + `+B $.I+I+I+B  @.@`.%.g >+C +@@@#@4.$@%@&@*@P.|+k+E+=@-@. + ",
". + / g ~.;@;+;+;+g g / >+:+y.V i.j M.$@B.>@,@.+|+k+'@)@!@~@. + ",
". + h C U+{@>+>+8+C w+]@9+^@i./@4.k j.D }+k.(@_@k+:@<@[@}@|@. + ",
". + ^@i 1@x+9+9+x+i 2@i.L.j y+<+< B.)+E L+W+|+k+s+O+3@}@4@5@. + ",
". +  +j 6@L.7@/@8@j : 4.A.*.9@B.0@V+m P.!+d+a@E+)@[@b@4@5@c@. + ",
". + 9@k *.k M.d@e@k f@j.B.[+)+C.*@g@.+|+h@Y+i@=@[@}@4@5@j@k@. + ",
". + 0@D N.N.l@[+D D D )+V+m@k.k.n@j+X+k+o@p@q@[@}@4@5@j@r@s@. + ",
". + k.E A+t@u@m@v@E E k.w@n@M+x@X+k+o@E+y@Z+-@z@A@5@j@B@C@D@. + ",
". + . .+.+.+P.E@.+.+.+!+F@G@N+H@s+s+O+Z+[@}@I@J@5@K@L@M@N@. . + ",
". . . . . . . . . . . . . . . . . . . . . . . . . . . . . . + + ",
"  + + + + + + + + + + + + + + + + + + + + + + + + + + + + + +   "};
