/* XPM */
static const char * newmail_xpm[] = {
"32 32 11 1",
" 	c None",
".	c #C9CB8D",
"+	c #DBDD9E",
"@	c #D5D796",
"#	c #D7D79A",
"$	c #CCCD8D",
"%	c #DCDD9E",
"&	c #FDFFC5",
"*	c #B9BA80",
"=	c #D9DA9D",
"-	c #C4C58D",
".+++++++++++++++++++++++++++++@+",
"#++++++++++++++++++++++++++++++$",
"%+&&&&&&&&&&&&&&&&&&&&&&&&&&&&$$",
"++&&&&&&&&&&&&&&&&&&&&&&&&&&&&$$",
"++&&&&&&&&&&&&&&&&&&&&&&&&&&&&$*",
"++&&&&&&&&&&&&&&&&&&&&&&&&&&&&$*",
"++&&&&&&&&&&&&&&&&&&&&&&&&&&&&$*",
"++&&&&&&&&&&&&&&&&&&&&&&&&&&&&$*",
"++&&&&&&&&&&&&&&&&&&&&&&&&&&&&$*",
"++&&&&&&&&&&&&&&&&&&&&&&&&&&&&$*",
"++&&&&&&&&&&&&&&&&&&&&&&&&&&&&$*",
"++&&&&&&&&&&&&&&&&&&&&&&&&&&&&$*",
"++&&&&&&&&&&&&&&&&&&&&&&&&&&&&$*",
"++&&&&&&&&&&&&&&&&&&&&&&&&&&&&$*",
"++&&&&&&&&&&&&&&&&&&&&&&&&&&&&$*",
"++&&&&&&&&&&&&&&&&&&&&&&&&&&&&$*",
"++&&&&&&&&&&&&&&&&&&&&&&&&&&&&$*",
"++&&&&&&&&&&&&&&&&&&&&&&&&&&&&$*",
"++&&&&&&&&&&&&&&&&&&&&&&&&&&&&$*",
"++&&&&&&&&&&&&&&&&&&&&&&&&&&&&$*",
"++&&&&&&&&&&&&&&&&&&&&&&&&&&&&$*",
"++&&&&&&&&&&&&&&&&&&&&&&&&&&&&$*",
"++&&&&&&&&&&&&&&&&&&&&&&&&&&&&$*",
"++&&&&&&&&&&&&&&&&&&&&&&&&&&&&$*",
"++&&&&&&&&&&&&&&&&&&&&&&&&&&&&$*",
"++&&&&&&&&&&&&&&&&&&&&&&&&&&&&$*",
"++&&&&&&&&&&&&&&&&&&&&&&&&&&&&$*",
"++&&&&&&&&&&&&&&&&&&&&&&&&&&&&$*",
"++&&&&&&&&&&&&&&&&&&&&&&&&&&&&$*",
"%+&&&&&&&&&&&&&&&&&&&&&&&&&&&&$*",
"=+$$$$$$$$$$$$$$$$$$$$$$$$$$$$$*",
"-*******************************"};
