/* XPM */
static const char * newmail_xpm[] = {
"32 32 118 2",
"  	c None",
". 	c #AEAE72",
"+ 	c #B0B075",
"@ 	c #B1B267",
"# 	c #B4B469",
"$ 	c #BDBE73",
"% 	c #BEBF74",
"& 	c #BFBF74",
"* 	c #BFC074",
"= 	c #C0C175",
"- 	c #C0C176",
"; 	c #C1C176",
"> 	c #C1C277",
", 	c #C2C277",
"' 	c #C2C377",
") 	c #C2C378",
"! 	c #C3C378",
"~ 	c #C4C58D",
"{ 	c #CCCD8D",
"] 	c #D2D38F",
"^ 	c #D3D490",
"/ 	c #D3D491",
"( 	c #D3D590",
"_ 	c #D4D590",
": 	c #D5D58F",
"< 	c #D5D691",
"[ 	c #D5D697",
"} 	c #D5D78F",
"| 	c #D5D791",
"1 	c #D6D78F",
"2 	c #D6D790",
"3 	c #D6D791",
"4 	c #D7D890",
"5 	c #D6D893",
"6 	c #D7D79A",
"7 	c #D7D893",
"8 	c #D7D995",
"9 	c #D7D996",
"0 	c #D8D995",
"a 	c #D8D998",
"b 	c #D9DA91",
"c 	c #DADA91",
"d 	c #D9DA98",
"e 	c #DADA99",
"f 	c #D9DA9D",
"g 	c #DADB92",
"h 	c #DADB97",
"i 	c #DADB9B",
"j 	c #DBDC93",
"k 	c #DADC98",
"l 	c #DBDD91",
"m 	c #DDDD94",
"n 	c #DBDD9E",
"o 	c #DCDD9C",
"p 	c #DCDD9E",
"q 	c #DDDE94",
"r 	c #DEDF94",
"s 	c #DEDF95",
"t 	c #DDDF9F",
"u 	c #DFE095",
"v 	c #DFE096",
"w 	c #DEE0A0",
"x 	c #E0E197",
"y 	c #E1E298",
"z 	c #E2E498",
"A 	c #E3E499",
"B 	c #E3E49A",
"C 	c #E3E4A5",
"D 	c #E3E4A6",
"E 	c #E4E59A",
"F 	c #E4E59B",
"G 	c #E5E59B",
"H 	c #E5E79C",
"I 	c #E6E79C",
"J 	c #E8E99D",
"K 	c #E8E99E",
"L 	c #E7E8AB",
"M 	c #E9EA9F",
"N 	c #E8E9AD",
"O 	c #E9EBAE",
"P 	c #EBECA1",
"Q 	c #EAEBAF",
"R 	c #ECECA1",
"S 	c #ECEDA2",
"T 	c #EBECB0",
"U 	c #EBEDB0",
"V 	c #EDEEA3",
"W 	c #EDEFA3",
"X 	c #EEEFA4",
"Y 	c #EDEEB2",
"Z 	c #EFEFA4",
"` 	c #EEF0A5",
" .	c #EDEFB3",
"..	c #EFF0A5",
"+.	c #EEEFB4",
"@.	c #EFF0B4",
"#.	c #F0F1B6",
"$.	c #F1F2B7",
"%.	c #F2F3B9",
"&.	c #F3F4B9",
"*.	c #F3F5BA",
"=.	c #F4F5BB",
"-.	c #F5F6BE",
";.	c #F6F7BD",
">.	c #F8F8BF",
",.	c #F7F9BE",
"'.	c #F9F9C2",
").	c #F9FAC0",
"!.	c #FAFBC2",
"~.	c #FBFCC3",
"{.	c #FCFDC4",
"].	c #FCFEC4",
"^.	c #FDFEC5",
"/.	c #FDFEC6",
"(.	c #FDFFC5",
"_.	c #FDFFC6",
":.	c #FEFFC6",
"<.	c #FEFFC7",
"+ # ) ! ) ' ' ' ' ' ' ' , > > ; ; ; - - - = = * & & & & % $ @ . ",
"6 / s P S S S S S S S S S S S R R R P P P P P P P P P P P v ] [ ",
"p ;.^ A ..X X X X X X X X X X X X X X X X X X X X X X ..G ( =.p ",
"n (.=.< B ` X X X X X X X X X X X X X X X X X X X X ..F _ %.(.n ",
"n (.^.@.< H X X X X X X X X X X X X X X X X X X X X I |  .^.(.n ",
"n (.(.(.T : J ..X X X X X X X X X X X X X X X X ..K } O (.(.(.n ",
"n (.(.(._.N 1 M X X X X X X X X X X X X X X X X M 2 L _.(.(.(.n ",
"n (.(.(.(.{.C 4 S X X X X X X X X X X X X X X P 4 D {.(.(.(.(.n ",
"n (.(.(.(.(.].t c W X X X X X X X X X X X X V b w ].(.(.(.(.(.n ",
"n (.(.(.(.(.(./.i j V X X X X X X X X X X V g o /.(.(.(.(.(.(.n ",
"n (.(.(.(.(.(.(.!.a s X X X X X X X X X V m e ~.(.(.(.(.(.(.(.n ",
"n (.(.(.(.(.(.(.(.>.9 u ..X X X X X X Z q d ).(.(.(.(.(.(.(.(.n ",
"n (.(.(.(.(.(.(.(.(.=.0 x ..X X X X ..s d -.(.(.(.(.(.(.(.(.(.n ",
"n (.(.(.(.(.(.(.(.(.(.#.5 E X X X ..y 8 &.(.(.(.(.(.(.(.(.(.(.n ",
"n (.(.(.(.(.(.(.(.(.(.:.Y 3 I ....z 5 $._.(.(.(.(.(.(.(.(.(.(.n ",
"n (.(.(.(.(.(.(.(.(.(.(./.Q 3 r l 7 +.:.(.(.(.(.(.(.(.(.(.(.(.n ",
"n (.(.(.(.(.(.(.(.(.(.(.(.^.L h k U (.(.(.(.(.(.(.(.(.(.(.(.(.n ",
"n (.(.(.(.(.(.(.(.(.(.(.(.(.<.*.,.:.(.(.(.(.(.(.(.(.(.(.(.(.(.n ",
"n (.(.(.(.(.(.(.(.(.(.(.(.(.(.:.(.(.(.(.(.(.(.(.(.(.(.(.(.(.(.n ",
"n (.(.(.(.(.(.(.(.(.(.(.(.(.(.(.(.(.(.(.(.(.(.(.(.(.(.(.(.(.(.n ",
"n (.(.(.(.(.(.(.(.(.(.(.(.(.(.(.(.(.(.(.(.(.(.(.(.(.(.(.(.(.(.n ",
"n (.(.(.(.(.(.(.(.(.(.(.(.(.(.(.(.(.(.(.(.(.(.(.(.(.(.(.(.(.(.n ",
"n (.(.(.(.(.(.(.(.(.(.(.(.(.(.(.(.(.(.(.(.(.(.(.(.(.(.(.(.(.(.n ",
"n (.(.(.(.(.(.(.(.(.(.(.(.(.(.(.(.(.(.(.(.(.(.(.(.(.(.(.(.(.(.n ",
"n (.(.(.(.(.(.(.(.(.(.(.(.(.(.(.(.(.(.(.(.(.(.(.(.(.(.(.(.(.(.n ",
"n (.(.(.(.(.(.(.(.(.(.(.(.(.(.(.(.(.(.(.(.(.(.(.(.(.(.(.(.(.(.n ",
"n (.(.(.(.(.(.(.(.(.(.(.(.(.(.(.(.(.(.(.(.(.(.(.(.(.(.(.(.(.(.n ",
"n (.(.(.(.(.(.(.(.(.(.(.(.(.(.(.(.(.(.(.(.(.(.(.(.(.(.(.(.(.(.n ",
"n (.(.(.(.(.(.(.(.(.(.(.(.(.(.(.(.(.(.(.(.(.(.(.(.(.(.(.(.(.(.n ",
"p (.(.(.(.(.(.(.(.(.(.(.(.(.(.(.(.(.(.(.(.(.(.(.(.(.(.(.(.(.(.p ",
"f '.'.'.'.'.'.'.'.'.'.'.'.'.'.'.'.'.'.'.'.'.'.'.'.'.'.'.'.'.'.f ",
"~ { { { { { { { { { { { { { { { { { { { { { { { { { { { { { { ~ "};
