/* XPM */
static char * songbird_xpm[] = {
"63 64 657 2",
"  	c None",
". 	c #151515",
"+ 	c #191919",
"@ 	c #616161",
"# 	c #111111",
"$ 	c #000000",
"% 	c #010101",
"& 	c #121212",
"* 	c #474846",
"= 	c #40413F",
"- 	c #232323",
"; 	c #1C1D1C",
"> 	c #09090A",
", 	c #272827",
"' 	c #68696A",
") 	c #737476",
"! 	c #646566",
"~ 	c #525356",
"{ 	c #505154",
"] 	c #515255",
"^ 	c #636566",
"/ 	c #7A7B7C",
"( 	c #626465",
"_ 	c #545753",
": 	c #242423",
"< 	c #141414",
"[ 	c #262625",
"} 	c #6D6E70",
"| 	c #5D5E60",
"1 	c #707172",
"2 	c #919492",
"3 	c #B0B2B0",
"4 	c #C5C7C4",
"5 	c #D5D7D5",
"6 	c #D7D8D7",
"7 	c #C6C8C6",
"8 	c #B1B4B1",
"9 	c #989A99",
"0 	c #7A7D7C",
"a 	c #656667",
"b 	c #5C5D5F",
"c 	c #666769",
"d 	c #303030",
"e 	c #2B2C2B",
"f 	c #272727",
"g 	c #292928",
"h 	c #727274",
"i 	c #656668",
"j 	c #767878",
"k 	c #E5E7E4",
"l 	c #FAFAF9",
"m 	c #FFFFFF",
"n 	c #FDFDFD",
"o 	c #F5F6F4",
"p 	c #DBDEDA",
"q 	c #828483",
"r 	c #5F6062",
"s 	c #5A5B5E",
"t 	c #202020",
"u 	c #878989",
"v 	c #838585",
"w 	c #CFD2CF",
"x 	c #F8F9F8",
"y 	c #FCFCFC",
"z 	c #E9EBE8",
"A 	c #B5B7B4",
"B 	c #757776",
"C 	c #57585A",
"D 	c #838485",
"E 	c #1C1C1C",
"F 	c #646567",
"G 	c #717473",
"H 	c #CCCECC",
"I 	c #FBFCFB",
"J 	c #FEFEFD",
"K 	c #F7F8F7",
"L 	c #CACDC9",
"M 	c #767877",
"N 	c #5F6063",
"O 	c #2C2C2C",
"P 	c #2F2F2F",
"Q 	c #333333",
"R 	c #242524",
"S 	c #616264",
"T 	c #A3A6A3",
"U 	c #F6F7F5",
"V 	c #FBFBFB",
"W 	c #EBECEA",
"X 	c #CFD1CE",
"Y 	c #AEB0AE",
"Z 	c #949695",
"` 	c #808281",
" .	c #747675",
"..	c #6F7171",
"+.	c #707273",
"@.	c #6F7071",
"#.	c #757777",
"$.	c #888A89",
"%.	c #A8AAA8",
"&.	c #CFD1CF",
"*.	c #F0F1EF",
"=.	c #F8F9F7",
"-.	c #B6B8B6",
";.	c #717274",
">.	c #5E5F61",
",.	c #BABDBA",
"'.	c #FCFDFC",
").	c #E4E6E3",
"!.	c #AEB0AF",
"~.	c #5E6061",
"{.	c #696A6B",
"].	c #747576",
"^.	c #7D7E7E",
"/.	c #858586",
"(.	c #888888",
"_.	c #858686",
":.	c #878787",
"<.	c #818182",
"[.	c #797A7A",
"}.	c #6C6D6E",
"|.	c #636465",
"1.	c #8D908E",
"2.	c #C8CBC8",
"3.	c #DFE1DE",
"4.	c #787A79",
"5.	c #606163",
"6.	c #C2C4C2",
"7.	c #FDFEFD",
"8.	c #D4D7D3",
"9.	c #898C8A",
"0.	c #5D5F60",
"a.	c #676869",
"b.	c #7C7C7D",
"c.	c #8B8B8B",
"d.	c #7B7B7B",
"e.	c #5F5F5F",
"f.	c #444444",
"g.	c #1E1F1E",
"h.	c #0F0F0F",
"i.	c #181818",
"j.	c #282828",
"k.	c #3F3F3F",
"l.	c #5D5D5D",
"m.	c #7E7E7E",
"n.	c #737475",
"o.	c #B5B8B4",
"p.	c #F3F5F2",
"q.	c #EFF1EF",
"r.	c #898B8A",
"s.	c #6F7072",
"t.	c #7E8080",
"u.	c #5B5C5F",
"v.	c #BFC1BE",
"w.	c #E0E2DF",
"x.	c #888B89",
"y.	c #767778",
"z.	c #8A8A8A",
"A.	c #6B6B6B",
"B.	c #3A3A3A",
"C.	c #030303",
"D.	c #1A1A1A",
"E.	c #4E4E4E",
"F.	c #828282",
"G.	c #808080",
"H.	c #6C6E6E",
"I.	c #C2C5C2",
"J.	c #FAFBFA",
"K.	c #8A8D8B",
"L.	c #7E7F81",
"M.	c #666868",
"N.	c #767A76",
"O.	c #A8ACA6",
"P.	c #F2F3F1",
"Q.	c #BFC3BD",
"R.	c #787879",
"S.	c #858585",
"T.	c #4D4D4D",
"U.	c #131313",
"V.	c #060606",
"W.	c #393939",
"X.	c #7D7D7D",
"Y.	c #7E7E7F",
"Z.	c #8A8C8B",
"`.	c #EBEDEB",
" +	c #7F8180",
".+	c #6C6E6F",
"++	c #747874",
"@+	c #6A6F68",
"#+	c #1F201F",
"$+	c #171817",
"%+	c #2B2C2A",
"&+	c #5A5B59",
"*+	c #8D8D8D",
"=+	c #515151",
"-+	c #0E0E0E",
";+	c #070707",
">+	c #434343",
",+	c #868686",
"'+	c #6F7271",
")+	c #DCDEDB",
"!+	c #E8EAE8",
"~+	c #696B6C",
"{+	c #A5A7A5",
"]+	c #BEC3BB",
"^+	c #545853",
"/+	c #040404",
"(+	c #050505",
"_+	c #5B5B5B",
":+	c #777777",
"<+	c #6C6C6C",
"[+	c #737474",
"}+	c #E7E9E6",
"|+	c #A7A9A8",
"1+	c #737574",
"2+	c #636466",
"3+	c #868888",
"4+	c #C4C6C3",
"5+	c #D8DBD7",
"6+	c #575B56",
"7+	c #0C0D0C",
"8+	c #6D6D6D",
"9+	c #696B67",
"0+	c #7F847D",
"a+	c #787B76",
"b+	c #FBFBFA",
"c+	c #727474",
"d+	c #6E7071",
"e+	c #666869",
"f+	c #B4B6B3",
"g+	c #EDEFEC",
"h+	c #787D76",
"i+	c #0A0A0A",
"j+	c #717171",
"k+	c #535353",
"l+	c #020202",
"m+	c #454843",
"n+	c #575A55",
"o+	c #D2D4D1",
"p+	c #FEFEFE",
"q+	c #F9F9F8",
"r+	c #C7C8C6",
"s+	c #8F928E",
"t+	c #848784",
"u+	c #A7A9A6",
"v+	c #E6E7E5",
"w+	c #F0F2F0",
"x+	c #8E908F",
"y+	c #F9FAF9",
"z+	c #ACB1A9",
"A+	c #161716",
"B+	c #646565",
"C+	c #585858",
"D+	c #40433F",
"E+	c #4D514B",
"F+	c #989A97",
"G+	c #F6F7F6",
"H+	c #5C5E5B",
"I+	c #1A1B1A",
"J+	c #939592",
"K+	c #F1F2F0",
"L+	c #868987",
"M+	c #E2E5E1",
"N+	c #E1E3E1",
"O+	c #4C4F4B",
"P+	c #494949",
"Q+	c #6A6A6A",
"R+	c #232523",
"S+	c #5F635D",
"T+	c #020302",
"U+	c #0B0C0B",
"V+	c #DADCDA",
"W+	c #9A9D99",
"X+	c #727570",
"Y+	c #E0E2DE",
"Z+	c #626365",
"`+	c #969996",
" @	c #A4A9A1",
".@	c #080908",
"+@	c #7F807F",
"@@	c #060605",
"#@	c #6C7169",
"$@	c #121312",
"%@	c #EAECE9",
"&@	c #50534F",
"*@	c #131413",
"=@	c #444644",
"-@	c #616360",
";@	c #4D4F4B",
">@	c #1F1F1E",
",@	c #9FA29D",
"'@	c #DBDDDB",
")@	c #E8EAE7",
"!@	c #525650",
"~@	c #707070",
"{@	c #363636",
"]@	c #3F423E",
"^@	c #383A37",
"/@	c #111211",
"(@	c #373837",
"_@	c #080808",
":@	c #727471",
"<@	c #E1E2E0",
"[@	c #ECEDEC",
"}@	c #919390",
"|@	c #343533",
"1@	c #909491",
"2@	c #757677",
"3@	c #767978",
"4@	c #BEC2BC",
"5@	c #181917",
"6@	c #313131",
"7@	c #696E67",
"8@	c #D2D3D1",
"9@	c #ACAFAB",
"0@	c #C8CBC7",
"a@	c #7E827C",
"b@	c #A5A5A5",
"c@	c #717273",
"d@	c #80857D",
"e@	c #747474",
"f@	c #292929",
"g@	c #2A2C29",
"h@	c #A9ABA8",
"i@	c #D6DAD4",
"j@	c #D2D5D0",
"k@	c #767976",
"l@	c #A2A3A2",
"m@	c #5C5C5C",
"n@	c #4A4B4C",
"o@	c #D0D2CF",
"p@	c #4A4D48",
"q@	c #929292",
"r@	c #282929",
"s@	c #585C56",
"t@	c #161715",
"u@	c #6D6F6C",
"v@	c #EFF1EE",
"w@	c #A8ACA7",
"x@	c #0B0A0B",
"y@	c #545557",
"z@	c #EAECEA",
"A@	c #D0D4CF",
"B@	c #262726",
"C@	c #4F4F4F",
"D@	c #696969",
"E@	c #4E4F4E",
"F@	c #2A2A2A",
"G@	c #2F302E",
"H@	c #67686A",
"I@	c #B9BEB7",
"J@	c #090909",
"K@	c #171717",
"L@	c #3E3F3E",
"M@	c #383838",
"N@	c #585C55",
"O@	c #D4D6D3",
"P@	c #F2F4F1",
"Q@	c #EDF0EC",
"R@	c #EFF2EE",
"S@	c #EDEFEB",
"T@	c #242525",
"U@	c #0C0C0C",
"V@	c #9EA39C",
"W@	c #050605",
"X@	c #1B1B1B",
"Y@	c #282A27",
"Z@	c #3F423D",
"`@	c #B8BBB6",
" #	c #ECEFEA",
".#	c #F0F2EF",
"+#	c #F9FAF8",
"@#	c #A7A9A7",
"##	c #090A09",
"$#	c #F7F8F6",
"%#	c #858982",
"&#	c #363736",
"*#	c #5A5B5A",
"=#	c #0D0D0D",
"-#	c #393938",
";#	c #2A292A",
">#	c #2A2B2A",
",#	c #696A69",
"'#	c #101010",
")#	c #212121",
"!#	c #595959",
"~#	c #545554",
"{#	c #3A3D38",
"]#	c #2C2E2B",
"^#	c #151615",
"/#	c #DEE2DC",
"(#	c #EEF0ED",
"_#	c #EEF1ED",
":#	c #CBCDCA",
"<#	c #56585A",
"[#	c #EEF0EE",
"}#	c #7C8079",
"|#	c #404040",
"1#	c #7A7A7A",
"2#	c #5A5A5A",
"3#	c #4B4B4B",
"4#	c #4F5050",
"5#	c #5E5E5E",
"6#	c #1F1F1F",
"7#	c #464944",
"8#	c #1F211F",
"9#	c #F4F6F3",
"0#	c #F0F2EE",
"a#	c #E1E3E0",
"b#	c #606164",
"c#	c #434446",
"d#	c #CCCFCC",
"e#	c #828680",
"f#	c #464646",
"g#	c #797979",
"h#	c #626262",
"i#	c #484C47",
"j#	c #1C1D1B",
"k#	c #595B59",
"l#	c #F4F5F3",
"m#	c #F3F4F2",
"n#	c #E6E8E5",
"o#	c #66676A",
"p#	c #272728",
"q#	c #999F96",
"r#	c #686868",
"s#	c #161616",
"t#	c #666666",
"u#	c #7F7F7F",
"v#	c #505050",
"w#	c #686A66",
"x#	c #E6E8E4",
"y#	c #2D2D2D",
"z#	c #050506",
"A#	c #474849",
"B#	c #878C85",
"C#	c #101110",
"D#	c #222222",
"E#	c #777877",
"F#	c #949494",
"G#	c #848484",
"H#	c #6F6F6F",
"I#	c #272927",
"J#	c #F1F2EF",
"K#	c #DEE0DE",
"L#	c #616265",
"M#	c #656867",
"N#	c #41443F",
"O#	c #676767",
"P#	c #2F322E",
"Q#	c #393B37",
"R#	c #5C5E5C",
"S#	c #C9CBC8",
"T#	c #9C9C9C",
"U#	c #3D3E3F",
"V#	c #7A7F78",
"W#	c #6D6D6C",
"X#	c #323333",
"Y#	c #787978",
"Z#	c #545454",
"`#	c #282827",
" $	c #191A19",
".$	c #3D3F3C",
"+$	c #EFF1ED",
"@$	c #A6A9A6",
"#$	c #5B5E5E",
"$$	c #8E908D",
"%$	c #131213",
"&$	c #2D2E2D",
"*$	c #030403",
"=$	c #676B65",
"-$	c #181918",
";$	c #DBDBDB",
">$	c #C9C9C8",
",$	c #DEE0DD",
"'$	c #7B7D7C",
")$	c #757575",
"!$	c #151516",
"~$	c #626263",
"{$	c #535453",
"]$	c #61665F",
"^$	c #BEBFBD",
"/$	c #ECEEEA",
"($	c #B0B1B0",
"_$	c #707171",
":$	c #4C4D4C",
"<$	c #989998",
"[$	c #DADCD9",
"}$	c #606263",
"|$	c #A9A9A9",
"1$	c #262626",
"2$	c #3C3F3A",
"3$	c #313430",
"4$	c #767775",
"5$	c #C4C4C3",
"6$	c #CDCDCC",
"7$	c #F3F4F3",
"8$	c #E6E7E6",
"9$	c #B8B8B7",
"0$	c #AEAFAE",
"a$	c #B5B6B4",
"b$	c #ABACAA",
"c$	c #8E918E",
"d$	c #6B6C6E",
"e$	c #A0A09F",
"f$	c #5F605F",
"g$	c #0B0B0B",
"h$	c #838383",
"i$	c #0F0F0E",
"j$	c #626660",
"k$	c #424242",
"l$	c #A1A1A0",
"m$	c #9B9B9B",
"n$	c #3B3B3B",
"o$	c #525252",
"p$	c #6E6F70",
"q$	c #636363",
"r$	c #1D1E1D",
"s$	c #1D1E1C",
"t$	c #282928",
"u$	c #727272",
"v$	c #686969",
"w$	c #343434",
"x$	c #8E8F8E",
"y$	c #A1A1A1",
"z$	c #454545",
"A$	c #484948",
"B$	c #666A63",
"C$	c #575857",
"D$	c #4C4C4C",
"E$	c #0C0D0D",
"F$	c #AAAAAA",
"G$	c #8F8F8F",
"H$	c #797D78",
"I$	c #3D3D3D",
"J$	c #979797",
"K$	c #1D1D1D",
"L$	c #8D908C",
"M$	c #252625",
"N$	c #757574",
"O$	c #5B5B5A",
"P$	c #7E7F7E",
"Q$	c #A8A9A8",
"R$	c #606060",
"S$	c #959595",
"T$	c #999A98",
"U$	c #2E2E2E",
"V$	c #A2A2A2",
"W$	c #B2B2B1",
"X$	c #737373",
"Y$	c #3C3C3C",
"Z$	c #A6A6A6",
"`$	c #919191",
" %	c #ACACAB",
".%	c #787878",
"+%	c #242424",
"@%	c #898988",
"#%	c #A9AAA9",
"$%	c #CDCDCD",
"%%	c #CBCBCB",
"&%	c #CDCECC",
"*%	c #8C8D8C",
"=%	c #BDBEBD",
"-%	c #B3B4B2",
";%	c #B0B0AF",
">%	c #D7D7D6",
",%	c #CACACA",
"'%	c #C9C9C9",
")%	c #CCCCCC",
"!%	c #CFD0CE",
"~%	c #A0A0A0",
"{%	c #767676",
"]%	c #2C2D2C",
"^%	c #BBBCBB",
"/%	c #BBBBBB",
"(%	c #D1D1D1",
"_%	c #F2F3F2",
":%	c #CFCFCF",
"<%	c #C6C6C6",
"[%	c #353535",
"}%	c #898A89",
"|%	c #8C8C8C",
"1%	c #575757",
"2%	c #9E9E9E",
"3%	c #ABABAA",
"4%	c #CBCCCA",
"5%	c #CCCDCC",
"6%	c #D0D0CF",
"7%	c #8E8E8E",
"8%	c #565656",
"9%	c #7C7C7C",
"0%	c #797A79",
"a%	c #474847",
"b%	c #3D3E3D",
"c%	c #414141",
"d%	c #484848",
"e%	c #818281",
"f%	c #898A8A",
"g%	c #818181",
"h%	c #656566",
"i%	c #989898",
"j%	c #6E6E6E",
"k%	c #B7B7B7",
"l%	c #C8C8C7",
"m%	c #AAACAA",
"n%	c #D0D1D1",
"o%	c #AFAFAF",
"p%	c #B5B6B5",
"q%	c #B0B0B0",
"r%	c #ADAEAD",
"s%	c #AAABAA",
"t%	c #ABACAB",
"u%	c #ACADAC",
"v%	c #696A6A",
"w%	c #5E5E5F",
"x%	c #BDBDBD",
"y%	c #C3C3C3",
"z%	c #BABAB9",
"A%	c #B2B3B3",
"B%	c #B2B2B2",
"C%	c #BABBBA",
"D%	c #C4C4C4",
"E%	c #CECFCE",
"F%	c #DEDEDE",
"G%	c #9FA0A0",
"H%	c #717271",
"I%	c #909090",
"J%	c #9FA09E",
"K%	c #A3A4A3",
"L%	c #B1B1B1",
"M%	c #C7C7C7",
"N%	c #BFBFBF",
"O%	c #898989",
"P%	c #878887",
"Q%	c #6D6E6D",
"R%	c #6B6C6B",
"S%	c #707170",
"T%	c #B8B8B8",
"U%	c #757675",
"V%	c #BEBEBE",
"W%	c #585859",
"X%	c #959696",
"Y%	c #C8C8C8",
"Z%	c #8B8C8B",
"`%	c #616262",
" &	c #CCCCCB",
".&	c #CECECE",
"+&	c #CACBCA",
"@&	c #A2A2A1",
"#&	c #B1B2B1",
"$&	c #CBCBCA",
"%&	c #D0D1D0",
"&&	c #D1D2D1",
"*&	c #D3D3D2",
"=&	c #BEBFBE",
"-&	c #7A7B7A",
";&	c #A7A8A7",
">&	c #D4D5D4",
"    .                     +                                                                                                   ",
"    .                     +                                                                                                   ",
"  @ #       $             +                                                                                                   ",
"$ $ %       $             +                                                                                                   ",
"& & *       $     = - # ; +                                                                                                   ",
"            $     > $ $ $ ,                         ' ) ! ~ { { ] ^ / (                                                       ",
"            $     _ : < [                     } | 1 2 3 4 5 6 6 5 7 8 9 0 a b c                                               ",
"    d e f g $                           h i j 3 k l m m m m m m m m m m n o p 8 q r s                                         ",
"  t $ $ $ $ $                       u r v w x m m m m m m m m m m m m m m m m m y z A B C D                                   ",
"  f $ $ $ $ E                     F G H l m m m m m m m n I I I I J m m m m m m m m m K L M N                                 ",
"    O P Q R                     S T U m m m V W X Y Z `  ...+.1 @.#.$.%.&.*.n m m m m m m =.-.( ;.                            ",
"                              >.,.'.m y ).!.0 ~.b {.].^./.(._.:.:.<.[.}.| |.1.2.o m m m m m m 3.4.i                           ",
"                            5.6.7.I 8.9.0.a.b.c.d.e.f.d g.< h.& i.j.k.l.m.(.n.| ..o.p.m m m m m q.r.s.                        ",
"                        t.u.v.n w.x.0.y.z.A.B.# C.$ $ $ $ $ $ $ $ $ $ $ C.D.E.F.G.5.H.I.J.m m m m o K.].                      ",
"                    L.M.N.O.P.Q.a.R.S.T.U.$ $ $ $ $ $ $ $ $ $ $ $ $ $ $ $ $ $ V.W.X.Y.| Z.`.m m m m P. +.+                    ",
"                c a ++@+#+$+%+&+*+=+-+$ $ $ $ $ $ $ $ $ $ $ $ $ $ $ $ $ $ $ $ $ $ ;+>+,+1 '+)+m m m m !+~+n.                  ",
"              r {+]+^+/+$ (+_+:+g.$ $ $ $ $ $ $ $ $ $ $ $ $ $ $ $ $ $ $ $ $ $ $ $ $ $ . <+<.[+}+m m m m )+|+1+2+3+            ",
"            | 4+5+6+% $ 7+8+e.;+$ $ $ $ $ $ $ $ $ $ $ $ $ $ $ $ $ $ $ $ $ $ $ $ $ $ $ $ % 9+0+a+b+m m m m m l L c+d+          ",
"          e+f+g+h+/+$ i+j+k+l+$ $ $ $ $ $ $ $ $ $ $ $ $ $ $ $ $ $ $ $ $ $ $ $ $ $ $ $ % m+n+, o+p+m q+r+s+t+u+v+w+x+b         ",
"        n.$.y+z+A+$ C.B+C+C.$ $ $ $ $ $ $ $ $ $ $ $ $ $ $ $ $ $ $ $ $ $ $ $ $ $ $ $ $ D+E+% F+m m G+H+V.$ $ $ I+J+K+L+s.      ",
"        >.M+N+O+$ $ P+Q+C.$ $ $ $ $ $ $ $ $ $ $ $ $ $ $ $ $ $ $ $ $ $ $ $ $ $ $ $ $ R+S+T+U+V+m m W+$ $ $ $ $ $ % X+Y+Z+      ",
"      {.`+n  @.@$ t +@# $ $ $ $ $ $ $ $ $ $ $ $ $ $ $ $ $ $ $ $ $ $ $ $ $ $ $ $ $ @@#@U+$ $@%@m J &@$ $ *@=@-@;@>@(+,@q       ",
"      Z+'@)@!@$ l+~@{@$ $ $ $ $ $ $ $ $ $ $ $ $ $ $ $ $ $ $ $ $ $ $ $ $ $ $ $ $ $ ]@^@$ $ /@}+m J.(@_@:@<@I p+'.[@}@|@1@2@    ",
"      3@l 4@5@$ 6@j+l+$ $ $ $ $ $ $ $ $ $ $ $ $ $ $ $ $ $ $ $ $ $ $ $ $ $ $ $ $ (+7@(+$ $ ;+8@m y O+9@'.m m m m m p+0@a@!     ",
"  b@c@|+y d@% C.e@f@$ $ $ $ $ $ $ $ $ $ $ $ $ $ $ $ $ $ $ $ $ $ $ $ $ $ $ $ $ $ g@m+$ $ $ $ h@m p+i@p+m m m m m m m m j@k@    ",
"l@m@n@o@z p@$ t q@r@$ $ $ $ $ $ $ $ $ $ $ $ $ $ $ $ $ $ $ $ $ $ $ $ $ $ $ $ $ $ s@t@$ $ $ $ u@p+m v@m m m m m m m m m I w@}.  ",
"F.x@y@z@A@B@$ k+C@D@E@F@Q =+l+$ $ $ $ $ $ $ $ $ $ $ $ $ $ $ $ $ $ $ $ $ $ $ $ $ 7@$ $ $ $ $ G@K m v@m m m m m m m m m m M+H@  ",
"C@_@r U I@J@% m.K@% - L@M@& $ $ $ $ $ $ $ $ $ $ $ $ $ $ $ $ $ $ $ $ $ $ $ $ $ /@N@$ $ $ $ $ (+O@m P@I m m m m b+Q@R@S@o V 0   ",
"T@U@e+=.V@$ K@[.% $ $ $ $ $ $ $ $ (+(+$ $ $ $ $ $ $ # W@$ $ $ $ $ k.X@$ $ $ $ Y@Z@$ $ $ $ $ $ `@m y P@m m m '. #p+m m .#+#@#} ",
";+##|.$#%#$ &#*#$ $ $ $ $ $ $ $ =#Q+E.-#;#J@$ $ $ $ >#,#P '#U@)#!#~#C.$ $ $ $ {#]#$ $ $ $ $ ^#/#I m v@m m m (#n m m m p+_#:#S ",
"$ /+<#[#}#$ C@|#$ $ $ $ $ $ $ - 1#2#3#3#4#m@_@$ $ $ $ '#|#!#5#3#6#% $ $ $ $ $ 7#8#$ $ $ $ $ ^@$#9#m .#m m n .#m m m m m 0#a#b#",
"$ $ c#d#e#$ l.d $ $ $ $ $ C.f#g#=+3#3#3#h#j+)#$ $ $ $ $ $ $ $ $ $ $ $ $ $ $ $ i#j#$ $ $ $ $ k#n  #q+v@m m l#J.m m m m m m#n#o#",
"C.$ p#Z.q#$ r#R $ $ $ $ s#<+d.e.e.t#~@u#[.v#t $ $ $ $ $ $ $ $ $ $ $ $ $ $ $ $ i#j#$ $ $ $ $ w#p+I l#p+m m .#p+m m m m m p.x#o#",
"y#$ z#A#B#C#Q+D#$ $ $ $ B.E#F#G#H#t#m@v#3#P+=#$ $ $ $ $ $ $ $ $ $ $ $ $ $ $ $ Z@I#$ $ $ $ $ w#p+m m m m m J#m m m m m m P.K#L#",
"~@C.$ '#M#N#O#f $ $ $ $ $ $ < f#e@~@=+3#3#f $ $ $ $ $ $ $ $ $ $ $ $ $ $ $ $ $ P#Q#$ $ $ $ $ R#p+m m m m m .#m m m m m m R@S#F ",
"T#&#$ $ U#V#W#d $ $ $ $ $ $ $ $ /+X#Y#Z#`#% $ $ $ $ $ $ $ $ $ $ $ $ $ $ $ $ $  $E+$ $ $ $ $ .$y m m m m m .#n m m m m p++$@$s.",
"  c.*@$ h.#$$$L@$ $ $ $ $ $ $ $ $ $ %$&$$ $ $ $ $ $ $ $ $ $ $ $ $ $ $ $ $ $ $ *$=$$ $ $ $ $ -$(#m m m m m x l#m p+;$>$,$U '$  ",
"  l@)$_@$ !$~${$$ $ $ $ $ $ $ $ $ $ $ $ $ $ $ $ $ $ $ $ $ $ $ $ $ $ $ $ $ $ $ $ ]$##$ $ $ $ $ ^$m m m m m m /$y+($_$:$<$[$}$  ",
"    |$t#(+$ 1$A.$ $ $ $ $ $ $ $ $ $ $ $ $ $ $ $ $ $ $ $ $ $ $ $ $ $ $ $ $ $ $ $ 2$3$$ $ $ $ C.4$5$6$7$8$9$0$a$b$8+C.$ j+c$d$  ",
"      e$f$/+g$h$V.$ $ $ $ $ $ $ $ $ $ $ $ $ $ $ $ $ $ $ $ $ $ $ $ $ $ $ $ $ $ $ i$j$% $ $ $ B.)$k$!#l$m$n$- {@A.o$$ $ m@p$    ",
"        b@q$;+:+r$$ $ $ $ $ $ $ $ $ $ $ $ $ $ $ $ $ $ $ $ $ $ $ $ $ $ $ $ $ $ $ $ s@s$$ $ % 8+t$$ % u$v$$ $ $ w$C+$ $ o$x$    ",
"          y$H#l.z$$ $ $ $ $ $ $ $ $ $ $ $ $ $ $ $ $ $ $ $ $ $ $ $ $ $ $ $ $ $ $ O A$B$% $ # G.V.$ $ C$D$$ $ $ (+E$$ $ E.      ",
"            F$G$e@l+$ $ $ $ $ $ $ $ $ $ $ $ $ $ $ $ $ $ $ $ $ $ $ $ $ $ $ $ $ $ K@G.H$2$$ I$_+$ $ $ . . $ $ $ $ $ $ $ v#      ",
"                J$E $ $ $ $ $ $ $ $ $ $ $ $ $ $ $ $ $ $ $ $ $ $ $ $ $ $ $ $ $ $ $ K$+@L$M$N$f $ $ $ $ $ $ $ $ $ $ $ $ !#      ",
"                |$O$$ $ $ $ $ $ $ $ $ $ $ $ $ $ $ $ $ $ $ $ $ $ $ $ $ $ $ $ $ $ $ $ i+D$P$O#C.$ $ $ $ $ $ $ $ $ $ $ $ r#      ",
"                  q@. $ $ $ $ $ $ $ $ $ $ $ $ $ $ $ $ $ $ $ $ $ $ $ $ $ $ $ $ $ $ $ $ $ l+l+$ $ $ $ $ $ $ $ $ $ $ $ $ +@      ",
"                  Q$R$% $ $ $ $ $ $ $ $ $ $ $ $ $ $ $ $ $ $ $ $ $ $ $ $ $ $ $ $ $ $ $ $ $ $ $ $ $ $ $ $ $ $ $ $ $ $ -+S$      ",
"                    T$U$$ $ $ $ $ $ $ $ $ $ $ $ $ $ $ $ $ $ $ $ $ $ $ $ $ $ $ $ $ $ $ $ $ $ $ $ $ $ $ $ $ $ $ $ $ $ k.V$      ",
"                      :.# $ $ $ $ $ $ $ $ $ $ $ $ $ $ $ $ $ $ $ $ $ $ $ $ $ $ $ $ $ $ $ $ $ $ $ $ $ $ $ $ $ $ $ $ (+d.        ",
"                      W$X$J@$ $ $ $ $ $ $ $ $ $ $ $ $ $ $ $ $ $ $ $ $ $ $ $ $ $ $ $ $ $ $ $ $ $ $ $ $ $ $ $ $ $ $ Y$l@        ",
"                        Z$H#i+$ $ $ $ $ $ $ $ $ $ $ $ $ $ $ $ $ $ $ $ $ $ $ $ $ $ $ $ $ $ $ $ $ $ $ $ $ $ $ $ $ K$`$          ",
"                           %.%+ $ $ $ $ $ $ $ $ $ $ $ $ $ $ $ $ $ $ $ $ $ $ $ $ $ $ $ $ $ $ $ $ $ $ $ $ $ $ $ +%@%          #%",
"            $%%%&%          @#*%I$C.$ $ $ $ $ $ $ $ $ $ $ $ $ $ $ $ i+B.% $ $ $ $ $ $ $ $ $ $ $ $ $ $ $ $ (+f.`$      =%-%;%>%",
"          ,%'%'%'%'%)%!%        ~%{%P l+$ $ $ $ $ $ $ $ $ $ $ $ $ $ ;+j+5#-+$ $ $ $ $ $ $ $ $ $ $ $ $ $ ]%:+V$        ^%/%(%_%",
"        :%'%'%'%'%'%'%'%'%6$)%'%<%S.S.u#E.D#J@% $ $ $ $ $ $ $ $ % ;+& [%}%|%1%- _@$ $ $ $ $ $ $ % g$Q u$2%            3%4%5%6%",
"          $%,%'%'%'%'%'%'%'%'%'%7%8%8%9%0%,+S.)$R$E@a%b%c%d%k+q$X$e%f%g%X$h%[+i%:.8+8%z$I$I$z$8%j%|%l@k%l%%%$%          m%n%m ",
"              (%)%'%'%'%'%'%'%o%!#8%G#~@8%C+*+/%p%q%r%s%t%u%g%v%q$m@C+8%8%8%w%x%y%z%A%u%s%s%u%B%C%D%'%'%'%'%'%,%E%      s%F%m ",
"                  ,%'%'%'%'%'%G%8%H%I%8%C+J%'%'%'%'%'%'%<%m.8%8%1%8%8%8%l.7%=%'%'%'%'%'%'%'%'%'%'%'%'%'%'%'%'%'%'%        K%L%",
"                  ,%'%'%'%'%'%M%F$N%O#8%O%'%'%'%'%'%'%'%P%8%8%Q%R%8%8%S%T%'%'%'%'%'%'%'%'%'%'%'%'%'%'%'%'%'%'%'%,%            ",
"                    '%'%'%'%'%'%'%'%*+U%V%'%'%'%'%'%'%A%W%8%.%X%1%8%1#y%'%'%'%'%'%'%'%'%'%'%'%'%'%'%'%'%'%'%'%%%              ",
"                      %%'%'%'%'%'%'%'%Y%'%'%'%'%'%'%'%Z%8%`%C%R$8%8+y%'%'%'%'%'%'%'%'%'%'%'%'%'%'%'%'%'%'% &.&                ",
"                           &+&'%'%'%'%'%'%'%'%'%'%'%'%F#C+c.@&8%1%#&'%'%'%'%'%'%'%'%'%'%'%'%'%'%'%$&%%$%                      ",
"                                %&,%$%'%'%'%'%'%'%'%'%M%k%<%J$8%A.Y%'%'%'%'%'%'%'%'%'%%%5%%%&&                                ",
"                                              *&*&.&)%'%'%'%=&-&;& &.&%&>&(%                                                  "};
