/* XPM */
static const char * thunderbird_xpm[] = {
"63 64 256 2",
"  	c None",
". 	c #020437",
"+ 	c #03043D",
"@ 	c #090432",
"# 	c #0A0438",
"$ 	c #0C092E",
"% 	c #13063B",
"& 	c #0D0745",
"* 	c #180930",
"= 	c #010D51",
"- 	c #120D29",
"; 	c #150E26",
"> 	c #170D3A",
", 	c #101061",
"' 	c #08146C",
") 	c #14174A",
"! 	c #171844",
"~ 	c #0C1866",
"{ 	c #1B1651",
"] 	c #081A62",
"^ 	c #0C1A5B",
"/ 	c #161C31",
"( 	c #28182A",
"_ 	c #1D1B3E",
": 	c #051F74",
"< 	c #22202D",
"[ 	c #111E7A",
"} 	c #2C2021",
"| 	c #3C1C20",
"1 	c #1F2059",
"2 	c #09257D",
"3 	c #1D2642",
"4 	c #102573",
"5 	c #18246B",
"6 	c #0F296C",
"7 	c #2B2453",
"8 	c #1C2C56",
"9 	c #2D294C",
"0 	c #362A33",
"a 	c #1D2E5E",
"b 	c #122D8B",
"c 	c #142F7D",
"d 	c #122F86",
"e 	c #0C3286",
"f 	c #412B38",
"g 	c #1A336B",
"h 	c #1B3277",
"i 	c #3E3032",
"j 	c #2C3451",
"k 	c #31306D",
"l 	c #34343D",
"m 	c #313446",
"n 	c #37335B",
"o 	c #4A3328",
"p 	c #163A8B",
"q 	c #1D398F",
"r 	c #1A3D83",
"s 	c #0D418E",
"t 	c #4D3A32",
"u 	c #22416F",
"v 	c #124588",
"w 	c #403D55",
"x 	c #1E4194",
"y 	c #473E3A",
"z 	c #423B6C",
"A 	c #1A4580",
"B 	c #38407C",
"C 	c #27448B",
"D 	c #334377",
"E 	c #51414B",
"F 	c #47416B",
"G 	c #424466",
"H 	c #534535",
"I 	c #5B4527",
"J 	c #154F98",
"K 	c #2F4A87",
"L 	c #484951",
"M 	c #125297",
"N 	c #264C98",
"O 	c #0A5595",
"P 	c #314A9C",
"Q 	c #1F5285",
"R 	c #2A4E90",
"S 	c #18548E",
"T 	c #364B90",
"U 	c #584B47",
"V 	c #4F4D65",
"W 	c #425083",
"X 	c #3653A0",
"Y 	c #17609C",
"Z 	c #7B4F23",
"` 	c #36599F",
" .	c #6A5535",
"..	c #2A5EA1",
"+.	c #3B5C93",
"@.	c #1F6497",
"#.	c #455C8D",
"$.	c #6F5930",
"%.	c #375F9C",
"&.	c #266692",
"*.	c #326297",
"=.	c #5C5A73",
"-.	c #625B58",
";.	c #775A26",
">.	c #6E5855",
",.	c #6D5A47",
"'.	c #81591C",
").	c #5C5A8C",
"!.	c #815C16",
"~.	c #5A5D84",
"{.	c #7E5A3D",
"].	c #286DA5",
"^.	c #64636E",
"/.	c #456898",
"(.	c #336CA7",
"_.	c #4568A0",
":.	c #4668B0",
"<.	c #2872A7",
"[.	c #4F6A8D",
"}.	c #416CAC",
"|.	c #7B6547",
"1.	c #32729F",
"2.	c #666781",
"3.	c #926328",
"4.	c #9B641D",
"5.	c #8A6828",
"6.	c #5A6B9E",
"7.	c #7A6A58",
"8.	c #8F6833",
"9.	c #8D6B46",
"0.	c #347BB0",
"a.	c #826F4E",
"b.	c #4079B1",
"c.	c #5376B4",
"d.	c #AD6B27",
"e.	c #637790",
"f.	c #4F7C9B",
"g.	c #3C80AE",
"h.	c #547AA4",
"i.	c #7A7470",
"j.	c #537AAC",
"k.	c #A67024",
"l.	c #3982B6",
"m.	c #4E7FAA",
"n.	c #4582A8",
"o.	c #AE7039",
"p.	c #697AA4",
"q.	c #7A7A95",
"r.	c #9F7849",
"s.	c #917C69",
"t.	c #967D5E",
"u.	c #807F8B",
"v.	c #438CC3",
"w.	c #488CBB",
"x.	c #9C8056",
"y.	c #5B89BF",
"z.	c #BC7B3A",
"A.	c #5090B7",
"B.	c #7788B1",
"C.	c #5E90AE",
"D.	c #668EB4",
"E.	c #B4833D",
"F.	c #A28866",
"G.	c #C2824A",
"H.	c #AA8A5A",
"I.	c #A38C79",
"J.	c #A48F5B",
"K.	c #6E96BB",
"L.	c #949187",
"M.	c #BA8B54",
"N.	c #5A9CCF",
"O.	c #5C9DC6",
"P.	c #609EBF",
"Q.	c #8895AE",
"R.	c #6B9DC0",
"S.	c #7B9AB4",
"T.	c #B6944E",
"U.	c #B69558",
"V.	c #74A1BA",
"W.	c #8A9DA8",
"X.	c #799ED1",
"Y.	c #829DC2",
"Z.	c #AF9976",
"`.	c #969CA7",
" +	c #B59A61",
".+	c #C09964",
"++	c #C99953",
"@+	c #B79E6C",
"#+	c #AA9F8A",
"$+	c #B5A260",
"%+	c #6BACD7",
"&+	c #81A7CA",
"*+	c #7CACC2",
"=+	c #75AECE",
"-+	c #C5A46C",
";+	c #97A9C4",
">+	c #CBA575",
",+	c #DAA465",
"'+	c #BBAA88",
")+	c #C6A984",
"!+	c #C4AB7C",
"~+	c #ADB1A7",
"{+	c #7ABBDE",
"]+	c #CEAF67",
"^+	c #CBB270",
"/+	c #8FBBC9",
"(+	c #96B9D0",
"_+	c #88BFD5",
":+	c #DDB16B",
"<+	c #BDB69F",
"[+	c #CEB78E",
"}+	c #A0BFCE",
"|+	c #D4B884",
"1+	c #E0B686",
"2+	c #E6B67B",
"3+	c #D0BA98",
"4+	c #B1BECE",
"5+	c #98CEE0",
"6+	c #9CD0DA",
"7+	c #CFC5B6",
"8+	c #E4C299",
"9+	c #C6C6CA",
"0+	c #F9BF80",
"a+	c #F3C379",
"b+	c #DBC79E",
"c+	c #F6C381",
"d+	c #F2C682",
"e+	c #E6C992",
"f+	c #F8C589",
"g+	c #DBCBAE",
"h+	c #EFCC8C",
"i+	c #B4D5ED",
"j+	c #F7CB8D",
"k+	c #D9D2A3",
"l+	c #FACF98",
"m+	c #E8D4AA",
"n+	c #E0D4C3",
"o+	c #F7D499",
"p+	c #F6D5A7",
"q+	c #BAE2EA",
"r+	c #F9D7A3",
"s+	c #E8DDC0",
"t+	c #FBDBAD",
"u+	c #FDDFB6",
"v+	c #FAE1B0",
"w+	c #F8E3B9",
"x+	c #F5E9C8",
"y+	c #FFE9C2",
"z+	c #F4ECD1",
"A+	c #FBEEC6",
"B+	c #FEF2E5",
"C+	c #FCF6D3",
"D+	c #FBF6E2",
"E+	c #FFF6DB",
"F+	c #FCFCDE",
"G+	c #FCFDE6",
"                                                                                                                              ",
"                                                                                                                              ",
"                                                S.W.                                                                          ",
"                                            /+f.[.                                                                            ",
"                                          V.f.f.    `.                                                                        ",
"                                        V.m.[.(+;+e.        V.V.C.C.n.n.D.                                                    ",
"                                      (+R.m.p.Y.f.R.f.f.=+P.P.A.w.g.<.(.Y O O S *.h.&+                                        ",
"                                    }+*+R.[.h.j.m.P.A.A.P.O.A.w.l.<.].Y O O O O O R S #.h.                                    ",
"                                  S./+_+P.D.&+n.R.P.P.P.P.A.w.0.b.].Y Y Y ].<.0.0.0.0.l.m.f.S.                                ",
"                              p.8 S.5+_+V.=+*+=+=+=+P.P.A.w.0.<.].@.].0.l.l.g.g.g.n.A.A.w.l.m.m.*+                            ",
"                          B.K D #.i+5+5+5+_+_+{+=+R.O.A.w.g.<.].].0.0.l.g.g.g.w.w.g.g.n.w.w.g.g.P.*+(+                        ",
"                        #.h P B &+i+6+6+5+_+_+*+P.O.D.w.g.<.].<.0.0.0.0.l.l.0.l.w.v.0.n.O.%+O.P.O.N.1.K.                      ",
"                    Y.#.C e 4 D i+q+6+6+_+_+=+P.D.w.w.l.<.].<.0.<.0.0.l.w.w.0.<.<.1.A.A.n.g.1.1.1.@.S @.D.                    ",
"                  K.Q ..X q 4 B.q+6+6+_+{+=+D.m.j.y.m.<.].].<.<.0.0.w.g.1.g.w.l.l.A.%+%+g.<.w.w.%+g.<.0.h.K.                  ",
"                &+&.S N q : h i+q+6+_+&+N.m.j.j.y.y.<.].].].].].<.0.w.g.1.<.l.g.&.1.g.1.&.A.n.A.N.w.<.0.v.j.&+                ",
"              (+D.w.b.` d ] p.q+5+/+*+m._.}./.y.y.].].Y Y O R R S @.1.<.l.0.@.<.w.{+{+A.O.{+{+<.Y Y Y @.Y Y @.;+              ",
"              C.P.w...c ^ ) 4+q+_+&+1.*.*.*.j.X.b.Y ..M M M v r h g A *.0.l.&.@.@.g.w.<.@.1.<.@.@.].0.v.].O O h.              ",
"            S.0.@.M e ^ @ $ 4+5+=+b.` T T c.X.y.@.@.O O M J N s s s 6 ^ A @.<.<.N.l.].].0.0.<.].l.<.@.l.v.O v %.D.            ",
"          }+C.1.b.N 1 < } < 4+_+P.%.c { 7 p.X.].@.S O M M J s s p p p c ^ 6 O b.N.N.@.b.N.N.<.0.v.v.Y S Y M s J _.            ",
"          *+=+=+].a < $.;.$.~+/+A.T k f >.Q.m.Y O M N J v v s s p p e e 4 = 6 S Q Q S O @.0.@.O @.(...O O M e x ` B.          ",
"        }+V.%+0.v ! t Z 3.5.#+(+A.C 1 | 7.Q.@.O M A A v v r s s p p d d 5 ^ & g b.@.b.O O O O M O M ....O M c c T W           ",
"        *+A.<.` 6 l t.Z 3.8.L.&+n.C B q.;+h.Q u j l t y l m 3 8 1 ^ ^ ] = & + + #.N.X.].M M M M M O %...M N 4 : T 6 B.        ",
"        P.1.(.M ! 7.U.8.Z r.L.P.g.+.X.X.y.Q j y {.3.4.4.4.3.8.{.,.t } ( - $ $ @ ) *.K.y.O J M M M Y @._.s p : ' p ] 6.        ",
"      }+P.g.(.g / F.T..+Z 9.~+C.n./.j.&.u m {.o.d.d.k.d.d.z.,+2+2+>+H.;. .I o 0 ; g _.(...M ....R (.(.}.4 : ' ' d 4 W         ",
"      *+A.l...g l J.T.U.r.9.9+`.e.G u l ,.r.k.k.d.o.o.o.,+c+c+c+a+a+c+:+T.3.'.$.I _ ..}.(.S ....R }.}.` ~ ' ' ' : d r         ",
"      C.m.(.C ^ U U.T. + +Z.9+u.y L i.t.G.z.E.E.E.E.E.2+h+d+d+d+d+a+c+c+d+:+k.!.;.< A M *.S O ..v }.}.C ~ ' [ [ 2 d r B.      ",
"      n...N p ^ >. +!+k+@+!+~+L L.z+k+U.G.M.M.M.E.E.|+r+r+l+l+l+l+f+c+d+d+d+2+5.;.H 8 R (.(...C 6 }.` c ~ : 2 [ : q C p.      ",
"      1.v x e ) ,.@+w+F+k+Z.7.i.z+E+m+@+.+.+M.M.M.|+r+t+t+p+r+r+o+l+j+j+l+f+c+:+!.$.3 ..}.}.:.5 ^ C s e 4 : d b : x N K.      ",
"      @.r 2 d ) -.3+F+F+F+3+F.|.<+E+s+)+>+-+.+.+!+u+w+w+w+w+v+v+r+r+r+r+l+l+j+d+++;.m }.c.c.X , = c p e 4 4 q q 4 C X p.      ",
"      O r : d 6 -.g+E+G+F+x+!+H.a.z+E+3+>+>+>+>+b+A+A+y+y+w+w+v+v+t+r+r+r+r+l+l+-+;.l +.c.}.p : = h x p e d x q : T ` /.      ",
"      R s 2 q r L s+D+D+F+C+w+@+x.Z.D+g+[+[+)+3+x+C+E+C+A+A+A+y+w+u+v+v+u+8+Z.{.Z 8.L A :.` p 4 = r N x c c N d : T }./.      ",
"      v p 2 K K V n+G+G+G+F+F+b+@+|.n+z+b+3+3+g+E+F+F+F+C+C+x+x+x+x+y+b+F.$.9.F.)+-+-.K T C s c ^ C N N c r N : : ` }./.      ",
"      r d : p.e.2.9+G+F+G+G+G+A+[+Z.s.z+s+g+g+s+F+F+F+G+G+G+E+E+z+'+|. .F.@+!+>+-+]+i.+.` ..J 6 6 ` ` T 4 p e 2 2 :.` #.      ",
"      h b 4 u.#+L.~+F+F+G+G+G+F+x+'+F.'+D+s+s+z+F+G+G+D+D+D+g+t. .a.Z.)+!+!+|+|+e+o+~+/._._...5 g %.` T ] d d d d :.r #.      ",
"      B [ ~ -.!+'+'+C+D+G+F+F+G+G+w+!+t.n+D+z+D+G+G+D+n+#+|.|.F.)+)+!+|+8+p+p+p+r+r+~+h.j.j.R 5 K }.}.s : 2 d q q X ] 6.      ",
"      #.' ' =.3+)+!+k+F+G+F+G+G+F+C+b+Z.t.D+B+B+B+7+s.|.a.Z.[+[+|+8+p+p+r+r+r+r+r+p+`.C.D.c.g 5 _.c...e d 2 x x p : ~ p.      ",
"      6.' ' F n+m+[+b+E+G+F+G+F+F+C+C+b+Z.#+7+I.,.|.Z.[+[+[+b+m+v+t+t+t+r+r+r+r+r+k+W.R.K.W 1 h c.}.R s q e P x c ' ~ #.      ",
"      B.~ : a 7+F+x+g+D+F+F+G+G+F+C+C+x+3+t.|.I.'+3+b+b+m+w+w+v+t+t+r+r+r+r+r+r+r+k+S.&+e.l n %.:.R M T p p P x : ' ~ ~.      ",
"        h d g `.E+F+D+D+F+F+D+F+F+C+C+C+s+3+3+b+m+u+w+w+w+w+v+t+t+t+r+r+r+r+o+o+e+<+Q.L y  .j r p ` %.` c N X d : ' 5 B.      ",
"        B 4 C q.s+C+D+G+F+D+F+F+F+C+C+x+x+w+s+y+y+w+w+w+w+v+v+t+r+r+r+r+o+l+l+l+l+Z.I.$.;.$.a d s }.c.J c X q 2 2 : k         ",
"        ).] 4 ).g+C+D+F+C+D+F+F+C+C+x+x+A+A+A+y+w+w+w+w+v+v+t+r+r+r+r+o+l+l+l+j+j+j+|+5.!.I ^ b ` c.}.c d e d d d 4 B         ",
"          k , 1 #+k+x+C+C+D+C+C+C+x+A+A+A+A+w+w+w+v+v+v+v+t+r+r+r+r+o+o+l+l+j+j+j+f+:+'.;.o { c c.c.r e d 4 d d e c W         ",
"          )., , -.@+]+^+e+w+A+A+A+A+x+A+w+w+w+w+u+u+t+t+r+r+r+r+r+r+o+o+j+j+j+c+d+d+++3.@+i ] e N 6 c p s 5 p x p 1 ~.        ",
"            5 , 7 U a.J.$+^+|+e+u+y+y+w+v+w+w+w+v+v+v+r+r+r+r+r+o+l+l+j+j+j+d+c+c+a+++,+1+( = c c ] p x p ] s x h 7           ",
"            ~.] ' & ; } H a.J. +^+^+e+r+v+v+v+u+u+w+v+t+p+p+r+r+l+l+j+j+j+j+d+c+c+a+2+d+F.* = 5 5 ] C x 4 4 N p ^ j           ",
"              D [ ' & # @ * ( H a.J.$+]+^+e+o+r+t+t+t+p+r+r+r+l+l+j+j+j+d+c+c+c+c+0+c+e+>.& + { ] 6 C c , c r ] . =.          ",
"              B.5 c = + + + + $ ; ( t |.J.$+^+^+h+h+o+o+o+o+o+l+j+j+f+c+c+c+c+c+c+0+f+)+f & + % = 4 6 ] , 4 5 & _             ",
"                ~.g h % . @ @ @ % # @ $ 0 H a.J. +^+]+h+h+h+h+j+j+j+c+c+c+c+c+c+c+c+h+s.9 % # # = 5 ] & ] ] & @ w             ",
"                  W d , & + # > F ! $ - =.    y H |.F. +]+]+d+d+j+j+f+c+c+c+c+c+c+c+|+E 7 @ # # + = & + = = # _               ",
"                    ^ , = + . @ G   9 $ $         0 E U |.J. +]+:+d+d+d+c+c+c+c+a+f+I.V > @ # + # # . . . . @ V               ",
"                      1 ] = & @ $       G _               i H |.J.$+]+]+a+a+a+c+0+8+>.=.# # . + > # # # . @ 9                 ",
"                        1 5 ] + $                             U i y |.x. +^+:+:+d+n+u.! + @ @ # ) # + + @ $ =.                ",
"                            k 1 + n                                 E i t s.'+[+[+  G # + . @ ) ) # + # $ V                   ",
"                              ~.7 . 9                                     -.y U     > + # @ @ 7 % # @ $ w                     ",
"                                  _ w                                             9 # . . @ 7 7 % # $ w                       ",
"                                                                                _ @ @ # # ) z > @ $ w                         ",
"                                                                              n @ @ @ . # z ! $ m V                           ",
"                                                                            _ @ . # . > F _ - w                               ",
"                                                                        2.9 @ @ @ # ) F _ - m                                 ",
"                                                                    2.9 $ @ @ _ 9 n n - m ^.                                  ",
"                                                                i.L 3 9 w V =.V w w w ^.                                      ",
"                                                                            `.                                                ",
"                                                                                                                              ",
"                                                                                                                              "};
