/* XPM */
static const char * chatzilla_xpm[] = {
"64 64 140 2",
"  	c None",
". 	c #4C5864",
"+ 	c #4A5763",
"@ 	c #374552",
"# 	c #3D4B57",
"$ 	c #515D68",
"% 	c #5B6771",
"& 	c #5A6570",
"* 	c #46535F",
"= 	c #384653",
"- 	c #6F7982",
"; 	c #CBCFD2",
"> 	c #EBECED",
", 	c #F5F6F6",
"' 	c #F4F5F6",
") 	c #DDE0E2",
"! 	c #949BA2",
"~ 	c #69747E",
"{ 	c #424F5B",
"] 	c #CDD0D4",
"^ 	c #FFFFFF",
"/ 	c #E3E5E7",
"( 	c #4E5A66",
"_ 	c #43505C",
": 	c #7B848D",
"< 	c #FAFBFB",
"[ 	c #FDFDFD",
"} 	c #737D86",
"| 	c #67717B",
"1 	c #FCFCFC",
"2 	c #FEFEFE",
"3 	c #868F96",
"4 	c #414E5B",
"5 	c #56626D",
"6 	c #44515E",
"7 	c #8E969D",
"8 	c #8C959C",
"9 	c #B3B8BD",
"0 	c #5B6670",
"a 	c #4C5964",
"b 	c #7E8790",
"c 	c #B1B7BC",
"d 	c #D9DBDE",
"e 	c #DCDFE1",
"f 	c #F0F1F2",
"g 	c #D8DBDD",
"h 	c #ADB2B8",
"i 	c #59646F",
"j 	c #3C4956",
"k 	c #899299",
"l 	c #394754",
"m 	c #485460",
"n 	c #4F5C67",
"o 	c #D4D7DA",
"p 	c #CED1D4",
"q 	c #90979F",
"r 	c #BBC0C4",
"s 	c #646F79",
"t 	c #E7E8EA",
"u 	c #626D77",
"v 	c #3B4956",
"w 	c #838C94",
"x 	c #ECEDEF",
"y 	c #A0A7AD",
"z 	c #E4E5E7",
"A 	c #7A848C",
"B 	c #959DA3",
"C 	c #A9AFB4",
"D 	c #F7F8F8",
"E 	c #3F4C59",
"F 	c #CACDD1",
"G 	c #6B757F",
"H 	c #A1A7AE",
"I 	c #8F979E",
"J 	c #68737D",
"K 	c #525E69",
"L 	c #EBEDEE",
"M 	c #5A6671",
"N 	c #E1E3E5",
"O 	c #BCC0C5",
"P 	c #505C68",
"Q 	c #404D59",
"R 	c #4A5762",
"S 	c #525F6A",
"T 	c #B9BEC3",
"U 	c #DBDDE0",
"V 	c #ADB3B8",
"W 	c #F9F9FA",
"X 	c #3A4855",
"Y 	c #8C949B",
"Z 	c #7F8890",
"` 	c #3D4A57",
" .	c #6C7780",
"..	c #6E7881",
"+.	c #D2D5D8",
"@.	c #475460",
"#.	c #55616C",
"$.	c #DCDEE0",
"%.	c #C5C9CD",
"&.	c #BEC2C7",
"*.	c #828B93",
"=.	c #C3C7CB",
"-.	c #B0B5BA",
";.	c #58646E",
">.	c #818A92",
",.	c #899199",
"'.	c #6F7A83",
").	c #EAEBED",
"!.	c #B5BABF",
"~.	c #66717B",
"{.	c #F2F3F3",
"].	c #717B84",
"^.	c #DFE1E3",
"/.	c #8D959D",
"(.	c #69747D",
"_.	c #6D7781",
":.	c #535F6A",
"<.	c #AEB4B9",
"[.	c #878F97",
"}.	c #5D6973",
"|.	c #4B5763",
"1.	c #737C86",
"2.	c #EFF0F1",
"3.	c #57636E",
"4.	c #E5E7E9",
"5.	c #D9DCDE",
"6.	c #747E87",
"7.	c #B4BABF",
"8.	c #AFB5BA",
"9.	c #B8BDC1",
"0.	c #C9CDD0",
"a.	c #B8BDC2",
"b.	c #77818A",
"c.	c #9DA4AA",
"d.	c #CACED2",
"e.	c #44525D",
"f.	c #78828A",
"g.	c #848C94",
"h.	c #9FA5AC",
"i.	c #D3D6D9",
"                                                                                                                                ",
"                                                                                                                                ",
"                                                                                                                                ",
"                                                                                                                                ",
"                                                                                                                                ",
"                                                                                                                                ",
"                                                                                                                                ",
"                                                                                                                                ",
"                                                                                                                                ",
"                                                                                                                                ",
"                                                                                                                                ",
"                                                                                                                                ",
"                                                                          . + + + + + + + + + + + + + + + + + + + + + +         ",
"                                                                      @ # $ % % % % % % % % % % % % % % % % % % % % % & *       ",
"                                                                    = - ; > , , , , , , , , , , , , , , , , , , , , , ' ) ! = ~ ",
"                                                                  . { ] ^ ^ ^ ^ ^ ^ ^ ^ ^ ^ ^ ^ ^ ^ ^ ^ ^ ^ ^ ^ ^ ^ ^ ^ ^ / ( _ ",
"                                                                  @ : < ^ ^ ^ ^ ^ ^ ^ ^ ^ ^ ^ ^ ^ ^ ^ ^ ^ ^ ^ ^ ^ ^ ^ ^ ^ [ } @ ",
"                                                                . { ] ^ ^ ^ ^ ^ ^ ^ ^ ^ ^ ^ ^ ^ ^ ^ ^ ^ ^ ^ ^ ^ ^ ^ ^ ^ ^ / ( _ ",
"                                      + |                       @ : < ^ ^ ^ ^ ^ ^ ^ 1 , , , , , , , 2 ^ ^ ^ ^ ^ ^ ^ ^ ^ [ ! = 3 ",
"                          4 { 5 % % % & 6 @ @ _               . { ] ^ ^ ^ ^ ^ ^ ^ , 7 % % % % % % 8 , ^ ^ ^ ^ ^ ^ ^ ^ ^ 9 4 0   ",
"                . @ a b c d e f , , , ' g h b i j             @ : < ^ ^ ^ ^ ^ ^ , k l     m @ @ n o ^ ^ ^ ^ ^ ^ ^ ^ ^ p n *     ",
"            ~ @ a q ) 2 ^ ^ ^ ^ ^ ^ ^ ^ ^ ^ 2 f r s = +     . { ] ^ ^ ^ ^ ^ ^ , k l         4 4 9 ^ ^ ^ ^ ^ ^ ^ ^ ^ t u v       ",
"          + j w ) 2 ^ ^ ^ ^ ^ ^ ^ ^ ^ ^ ^ ^ ^ ^ ^ x y 4     @ : < ^ ^ ^ ^ ^ z A l           l B [ ^ ^ ^ ^ ^ ^ ^ ^ , w @         ",
"          4 C D ^ ^ ^ ^ ^ ^ ^ ^ ^ ^ ^ ^ ^ ^ ^ ^ ^ ^ [ C j @ E F ^ ^ ^ ^ ^ z G @           @ A , ^ ^ ^ ^ ^ ^ ^ ^ [ H l           ",
"        @ I [ ^ ^ ^ ^ ^ ^ ^ ^ ^ ^ ^ ^ ^ ^ ^ ^ ^ ^ ^ ^ ' J @ K L ^ ^ ^ ^ z G @ ~         = M N ^ ^ ^ ^ ^ ^ ^ ^ ^ O 4 P           ",
"      @ u t ^ ^ ^ ^ ^ ^ ^ ^ ^ ^ ^ ^ ^ ^ ^ ^ ^ ^ ^ ^ ^ ^ r j j r ^ ^ ^ z G @ ~         Q R F ^ ^ ^ ^ ^ ^ ^ ^ ^ o K Q             ",
"      R ] ^ ^ ^ ^ ^ ^ ^ ^ ^ ^ ^ ^ ^ ^ ^ ^ ^ ^ ^ ^ ^ ^ ^ > S @ & T U T u @             E V 2 ^ ^ ^ ^ ^ ^ ^ ^ t J =               ",
"      q 2 ^ ^ ^ ^ ^ ^ ^ ^ ^ ^ W , 1 ^ ^ ^ ^ ^ ^ ^ ^ ^ ^ 2 : @ @ X 4 X @             = Y < ^ ^ ^ ^ ^ ^ ^ ^ , w @                 ",
"    R ) ^ ^ ^ ^ ^ ^ ^ ^ ^ o Y G % Z z ^ ^ ^ ^ ^ ^ ^ ^ ^ 1 } `                     @  .x ^ ^ ^ ^ ^ ^ ^ ^ [ H l ..                ",
"    } 1 ^ ^ ^ ^ ^ ^ ^ [ 9 n @ ` m @  .x ^ ^ ^ ^ ^ ^ ^ ^ +.@.                    v #.$.^ ^ ^ ^ ^ ^ ^ ^ ^ %.6 P                   ",
"  @ H ^ ^ ^ ^ ^ ^ ^ ^ &.4 *         = *.t ^ ^ ^ ^ ^ ^ N J .                   * 6 %.^ ^ ^ ^ ^ ^ ^ ^ ^ $.#.v                     ",
"  @ 9 ^ ^ ^ ^ ^ ^ ^ x s =             @ u c d U =.-.k ;.@                   0 l H [ ^ ^ ^ ^ ^ ^ ^ ^ x  .@                       ",
"  X =.^ ^ ^ ^ ^ ^ ^ r = >.                = 4 4 X @ @                       @ w , ^ ^ ^ ^ ^ ^ ^ ^ D ,.=                         ",
"  4 U ^ ^ ^ ^ ^ ^ ^ H @                                                   @ J t ^ ^ ^ ^ ^ ^ ^ ^ [ C j ~           = 6 '.i       ",
"  4 d ^ ^ ^ ^ ^ ^ ^ B @                                                 v n o ^ ^ ^ ^ ^ ^ ^ ^ ^ %.6 +           l w g < ).! =   ",
"  = r ^ ^ ^ ^ ^ ^ ^ !.@                     6     w ~.                * 4 9 ^ ^ ^ ^ ^ ^ ^ ^ ^ N M v           l k , ^ ^ ^ ).i   ",
"  @ 9 ^ ^ ^ ^ ^ ^ ^ ) a .               @ M %.[ ^ ^ {.B 4 +         0 l B [ ^ ^ ^ ^ ^ ^ ^ ^ {.].@           l k , ^ ^ ^ ^ < '.  ",
"  @ B ^ ^ ^ ^ ^ ^ ^ 2 B =             Q ;.^.^ ^ ^ ^ ^ [ !.{ ~       @ A , ^ ^ ^ ^ ^ ^ ^ ^ < /.l             k , ^ ^ ^ ^ ^ g 6   ",
"  . (.D ^ ^ ^ ^ ^ ^ ^ x _.= ` :.:   0 X <.^ ^ ^ ^ ^ ^ ^ D  .=     @ M N ^ ^ ^ ^ ^ ^ ^ ^ 2 V E             A , ^ ^ ^ ^ ^ < [.@   ",
"    { ] ^ ^ ^ ^ ^ ^ ^ ^ x B }.|.#   { 1.2.^ ^ ^ ^ ^ ^ ^ ^ H @ 3.v R F ^ ^ ^ ^ ^ ^ ^ ^ ^ F R @         @ G z ^ ^ ^ ^ ^ ^ ] { Q   ",
"    = : < ^ ^ ^ ^ ^ ^ ^ ^ 2 , 4.; r 5.' ^ ^ ^ ^ ^ ^ ^ ^ W _.@ @ E V 2 ^ ^ ^ ^ ^ ^ ^ ^ N M @ @ @ @ @ @ G z ^ ^ ^ ^ ^ ^ < : @     ",
"    6.E 9 ^ ^ ^ ^ ^ ^ ^ ^ ^ ^ ^ ^ ^ ^ ^ ^ ^ ^ ^ ^ ^ ^ ^ / |.@ = Y < ^ ^ ^ ^ ^ ^ ^ ^ [ 7.w w w w w w I z ^ ^ ^ ^ ^ ^ ^ ] { Q     ",
"      v n o ^ ^ ^ ^ ^ ^ ^ ^ ^ ^ ^ ^ ^ ^ ^ ^ ^ ^ ^ ^ ^ ^ 8.= @ 1.2.^ ^ ^ ^ ^ ^ ^ ^ ^ ^ ^ ^ ^ ^ ^ ^ ^ ^ ^ ^ ^ ^ ^ ^ ^ < : @ 7     ",
"        @ J z ^ ^ ^ ^ ^ ^ ^ ^ ^ ^ ^ ^ ^ ^ ^ ^ ^ ^ ^ ^ o K @ = 9.^ ^ ^ ^ ^ ^ ^ ^ ^ ^ ^ ^ ^ ^ ^ ^ ^ ^ ^ ^ ^ ^ ^ ^ ^ ^ ] { Q       ",
"          @ G z ^ ^ ^ ^ ^ ^ ^ ^ ^ ^ ^ ^ ^ ^ ^ ^ ^ ^ N J @ v # 0.^ ^ ^ ^ ^ ^ ^ ^ ^ ^ ^ ^ ^ ^ ^ ^ ^ ^ ^ ^ ^ ^ ^ ^ ^ < : @ 7       ",
"          ..@ u r ' ^ ^ ^ ^ ^ ^ ^ ^ ^ ^ ^ ^ ^ ^ D a.M @ b.  @ c.2 ^ ^ ^ ^ ^ ^ ^ ^ ^ ^ ^ ^ ^ ^ ^ ^ ^ ^ ^ ^ ^ ^ ^ ^ d.{ e.        ",
"              = j J r f 2 ^ ^ ^ ^ ^ ^ ^ ^ ^ D ] f.j v       * @.g.-.9 9 9 9 9 9 9 9 9 9 9 9 9 9 9 9 9 9 9 9 9 9 h.#.=           ",
"                  ` j i : B 9 !.i.U ; 9 -.Y (.{ @             * @ @ @ @ @ @ @ @ @ @ @ @ @ @ @ @ @ @ @ @ @ @ @ @ @ =             ",
"                      _ @ @ @ @ Q 4 # @ @ @ `                                                                                   ",
"                                                                                                                                ",
"                                                                                                                                ",
"                                                                                                                                ",
"                                                                                                                                ",
"                                                                                                                                ",
"                                                                                                                                ",
"                                                                                                                                ",
"                                                                                                                                ",
"                                                                                                                                ",
"                                                                                                                                ",
"                                                                                                                                ",
"                                                                                                                                ",
"                                                                                                                                ",
"                                                                                                                                ",
"                                                                                                                                "};
